<?xml version="1.0" encoding="UTF-8" standalone="no"?>
<svg xmlns="http://www.w3.org/2000/svg" xmlns:xlink="http://www.w3.org/1999/xlink" contentScriptType="application/ecmascript" contentStyleType="text/css" height="600px" preserveAspectRatio="none" style="width:664px;height:600px;" version="1.1" viewBox="0 0 664 600" width="664px" zoomAndPan="magnify"><defs><filter height="300%" id="f66pyuh" width="300%" x="-1" y="-1"><feGaussianBlur result="blurOut" stdDeviation="2.0"/><feColorMatrix in="blurOut" result="blurOut2" type="matrix" values="0 0 0 0 0 0 0 0 0 0 0 0 0 0 0 0 0 0 .4 0"/><feOffset dx="4.0" dy="4.0" in="blurOut2" result="blurOut3"/><feBlend in="SourceGraphic" in2="blurOut3" mode="normal"/></filter></defs><g><text fill="#000000" font-family="sans-serif" font-size="18" lengthAdjust="spacingAndGlyphs" textLength="314" x="179.5" y="16.708">Event Handling in SwingApplication</text><!--class JFrame--><rect fill="#FEFECE" filter="url(#f66pyuh)" height="48" style="stroke: #A80036; stroke-width: 1.5;" width="74" x="102.5" y="35.4531"/><ellipse cx="117.5" cy="51.4531" fill="#ADD1B2" rx="11" ry="11" style="stroke: #A80036; stroke-width: 1.0;"/><path d="M119.8438,47.125 L120.0156,47.2031 C120.2344,46.8906 120.4375,46.7969 120.7344,46.7969 C121.0313,46.7969 121.3125,46.9375 121.4688,47.2031 C121.5625,47.3594 121.5781,47.4844 121.5781,47.9219 L121.5781,49.3438 C121.5781,49.7656 121.5469,49.9531 121.4375,50.1094 C121.2656,50.3281 121,50.4688 120.7344,50.4688 C120.5156,50.4688 120.2813,50.3594 120.1406,50.2188 C120,50.0938 119.9688,49.9688 119.9063,49.5625 C119.8125,49.1563 119.6406,48.9375 119.1563,48.6563 C118.6875,48.4063 118.0781,48.25 117.5,48.25 C115.7656,48.25 114.5156,49.5625 114.5156,51.3438 L114.5156,52.4375 C114.5156,54.1406 115.8125,55.2344 117.8594,55.2344 C118.625,55.2344 119.3125,55.1094 119.7344,54.8438 C119.9219,54.75 119.9219,54.75 120.375,54.2656 C120.5625,54.0781 120.7656,54 120.9844,54 C121.4531,54 121.8438,54.3906 121.8438,54.8438 C121.8438,55.2344 121.5156,55.6875 120.9375,56.0938 C120.1875,56.6406 119.0313,56.9375 117.8125,56.9375 C114.9219,56.9375 112.8125,55.0469 112.8125,52.4688 L112.8125,51.3438 C112.8125,48.625 114.8125,46.5469 117.4375,46.5469 C118.3125,46.5469 118.9063,46.6875 119.8438,47.125 Z "/><text fill="#000000" font-family="sans-serif" font-size="12" lengthAdjust="spacingAndGlyphs" textLength="42" x="131.5" y="55.6074">JFrame</text><line style="stroke: #A80036; stroke-width: 1.5;" x1="103.5" x2="175.5" y1="67.4531" y2="67.4531"/><line style="stroke: #A80036; stroke-width: 1.5;" x1="103.5" x2="175.5" y1="75.4531" y2="75.4531"/><!--class ActionListener--><rect fill="#FEFECE" filter="url(#f66pyuh)" height="60.8047" style="stroke: #A80036; stroke-width: 1.5;" width="242" x="211.5" y="28.9531"/><ellipse cx="283.75" cy="44.9531" fill="#B4A7E5" rx="11" ry="11" style="stroke: #A80036; stroke-width: 1.0;"/><path d="M284.7031,41.7344 L284.7031,48.25 L286.4219,48.25 C286.875,48.25 287.0156,48.2813 287.1875,48.4063 C287.4219,48.5781 287.5313,48.8281 287.5313,49.1094 C287.5313,49.6719 287.1719,49.9531 286.4219,49.9531 L281.2813,49.9531 C280.875,49.9531 280.6719,49.9063 280.5156,49.7813 C280.2969,49.625 280.1563,49.3594 280.1563,49.1094 C280.1563,48.8125 280.3125,48.5313 280.5625,48.375 C280.7188,48.2656 280.8438,48.25 281.2813,48.25 L283,48.25 L283,41.7344 L281.2813,41.7344 C280.8594,41.7344 280.6719,41.7031 280.5156,41.5938 C280.2969,41.4219 280.1563,41.1719 280.1563,40.8906 C280.1563,40.6094 280.3125,40.3125 280.5625,40.1563 C280.7188,40.0625 280.8438,40.0469 281.2813,40.0469 L286.4219,40.0469 C286.875,40.0469 287.0156,40.0781 287.1875,40.1875 C287.4219,40.3594 287.5313,40.625 287.5313,40.8906 C287.5313,41.1875 287.3906,41.4688 287.125,41.625 C287,41.7031 286.8125,41.7344 286.4219,41.7344 Z "/><text fill="#000000" font-family="sans-serif" font-size="12" font-style="italic" lengthAdjust="spacingAndGlyphs" textLength="89" x="304.25" y="49.1074">ActionListener</text><line style="stroke: #A80036; stroke-width: 1.5;" x1="212.5" x2="452.5" y1="60.9531" y2="60.9531"/><line style="stroke: #A80036; stroke-width: 1.5;" x1="212.5" x2="452.5" y1="68.9531" y2="68.9531"/><ellipse cx="222.5" cy="80.8555" fill="#84BE84" rx="3" ry="3" style="stroke: #038048; stroke-width: 1.0;"/><text fill="#000000" font-family="sans-serif" font-size="11" font-style="italic" lengthAdjust="spacingAndGlyphs" textLength="216" x="231.5" y="83.1636">actionPerformed(e: ActionEvent): void</text><!--class JButton--><rect fill="#FEFECE" filter="url(#f66pyuh)" height="60.8047" style="stroke: #A80036; stroke-width: 1.5;" width="257" x="398" y="168.9531"/><ellipse cx="499.75" cy="184.9531" fill="#ADD1B2" rx="11" ry="11" style="stroke: #A80036; stroke-width: 1.0;"/><path d="M502.0938,180.625 L502.2656,180.7031 C502.4844,180.3906 502.6875,180.2969 502.9844,180.2969 C503.2813,180.2969 503.5625,180.4375 503.7188,180.7031 C503.8125,180.8594 503.8281,180.9844 503.8281,181.4219 L503.8281,182.8438 C503.8281,183.2656 503.7969,183.4531 503.6875,183.6094 C503.5156,183.8281 503.25,183.9688 502.9844,183.9688 C502.7656,183.9688 502.5313,183.8594 502.3906,183.7188 C502.25,183.5938 502.2188,183.4688 502.1563,183.0625 C502.0625,182.6563 501.8906,182.4375 501.4063,182.1563 C500.9375,181.9063 500.3281,181.75 499.75,181.75 C498.0156,181.75 496.7656,183.0625 496.7656,184.8438 L496.7656,185.9375 C496.7656,187.6406 498.0625,188.7344 500.1094,188.7344 C500.875,188.7344 501.5625,188.6094 501.9844,188.3438 C502.1719,188.25 502.1719,188.25 502.625,187.7656 C502.8125,187.5781 503.0156,187.5 503.2344,187.5 C503.7031,187.5 504.0938,187.8906 504.0938,188.3438 C504.0938,188.7344 503.7656,189.1875 503.1875,189.5938 C502.4375,190.1406 501.2813,190.4375 500.0625,190.4375 C497.1719,190.4375 495.0625,188.5469 495.0625,185.9688 L495.0625,184.8438 C495.0625,182.125 497.0625,180.0469 499.6875,180.0469 C500.5625,180.0469 501.1563,180.1875 502.0938,180.625 Z "/><text fill="#000000" font-family="sans-serif" font-size="12" lengthAdjust="spacingAndGlyphs" textLength="45" x="520.25" y="189.1074">JButton</text><line style="stroke: #A80036; stroke-width: 1.5;" x1="399" x2="654" y1="200.9531" y2="200.9531"/><line style="stroke: #A80036; stroke-width: 1.5;" x1="399" x2="654" y1="208.9531" y2="208.9531"/><ellipse cx="409" cy="220.8555" fill="#84BE84" rx="3" ry="3" style="stroke: #038048; stroke-width: 1.0;"/><text fill="#000000" font-family="sans-serif" font-size="11" lengthAdjust="spacingAndGlyphs" textLength="231" x="418" y="223.1636">addActionListener(l: ActionListener): void</text><!--class SwingApplication--><rect fill="#FEFECE" filter="url(#f66pyuh)" height="99.2188" style="stroke: #A80036; stroke-width: 1.5;" width="255" x="108" y="149.9531"/><ellipse cx="178.75" cy="165.9531" fill="#ADD1B2" rx="11" ry="11" style="stroke: #A80036; stroke-width: 1.0;"/><path d="M181.0938,161.625 L181.2656,161.7031 C181.4844,161.3906 181.6875,161.2969 181.9844,161.2969 C182.2813,161.2969 182.5625,161.4375 182.7188,161.7031 C182.8125,161.8594 182.8281,161.9844 182.8281,162.4219 L182.8281,163.8438 C182.8281,164.2656 182.7969,164.4531 182.6875,164.6094 C182.5156,164.8281 182.25,164.9688 181.9844,164.9688 C181.7656,164.9688 181.5313,164.8594 181.3906,164.7188 C181.25,164.5938 181.2188,164.4688 181.1563,164.0625 C181.0625,163.6563 180.8906,163.4375 180.4063,163.1563 C179.9375,162.9063 179.3281,162.75 178.75,162.75 C177.0156,162.75 175.7656,164.0625 175.7656,165.8438 L175.7656,166.9375 C175.7656,168.6406 177.0625,169.7344 179.1094,169.7344 C179.875,169.7344 180.5625,169.6094 180.9844,169.3438 C181.1719,169.25 181.1719,169.25 181.625,168.7656 C181.8125,168.5781 182.0156,168.5 182.2344,168.5 C182.7031,168.5 183.0938,168.8906 183.0938,169.3438 C183.0938,169.7344 182.7656,170.1875 182.1875,170.5938 C181.4375,171.1406 180.2813,171.4375 179.0625,171.4375 C176.1719,171.4375 174.0625,169.5469 174.0625,166.9688 L174.0625,165.8438 C174.0625,163.125 176.0625,161.0469 178.6875,161.0469 C179.5625,161.0469 180.1563,161.1875 181.0938,161.625 Z "/><text fill="#000000" font-family="sans-serif" font-size="12" lengthAdjust="spacingAndGlyphs" textLength="105" x="199.25" y="170.1074">SwingApplication</text><line style="stroke: #A80036; stroke-width: 1.5;" x1="109" x2="362" y1="181.9531" y2="181.9531"/><rect fill="none" height="6" style="stroke: #C82930; stroke-width: 1.0;" width="6" x="116" y="190.8555"/><text fill="#000000" font-family="sans-serif" font-size="11" lengthAdjust="spacingAndGlyphs" textLength="71" x="128" y="196.1636">jlabel: JLabel</text><rect fill="none" height="6" style="stroke: #C82930; stroke-width: 1.0;" width="6" x="116" y="203.6602"/><text fill="#000000" font-family="sans-serif" font-size="11" lengthAdjust="spacingAndGlyphs" textLength="80" x="128" y="208.9683">numClicks: int</text><line style="stroke: #A80036; stroke-width: 1.5;" x1="109" x2="362" y1="215.5625" y2="215.5625"/><ellipse cx="119" cy="227.4648" fill="#84BE84" rx="3" ry="3" style="stroke: #038048; stroke-width: 1.0;"/><text fill="#000000" font-family="sans-serif" font-size="11" lengthAdjust="spacingAndGlyphs" textLength="115" x="128" y="229.7729">C SwingApplication()</text><ellipse cx="119" cy="240.2695" fill="#84BE84" rx="3" ry="3" style="stroke: #038048; stroke-width: 1.0;"/><text fill="#000000" font-family="sans-serif" font-size="11" lengthAdjust="spacingAndGlyphs" textLength="229" x="128" y="242.5776">@ actionPerformed(e: ActionEvent): void</text><polygon fill="#FBFB77" filter="url(#f66pyuh)" points="6,308.9531,6,591.3438,465,591.3438,465,318.9531,455,308.9531,6,308.9531" style="stroke: #A80036; stroke-width: 1.0;"/><polygon fill="#FBFB77" points="6,308.9531,6,591.3438,465,591.3438,465,318.9531,455,308.9531,239.5,308.9531,235.5,248.9561,231.5,308.9531,6,308.9531" style="stroke: #A80036; stroke-width: 1.0;"/><line style="stroke: #A80036; stroke-width: 1.0;" x1="455" x2="455" y1="308.9531" y2="318.9531"/><line style="stroke: #A80036; stroke-width: 1.0;" x1="465" x2="455" y1="318.9531" y2="318.9531"/><text fill="#000000" font-family="sans-serif" font-size="13" lengthAdjust="spacingAndGlyphs" textLength="438" x="12" y="326.02">public SwingApplication extends JFrame implements ActionListener {</text><text fill="#000000" font-family="sans-serif" font-size="13" lengthAdjust="spacingAndGlyphs" textLength="12" x="20" y="341.1528">...</text><text fill="#000000" font-family="sans-serif" font-size="13" lengthAdjust="spacingAndGlyphs" textLength="12" x="20" y="356.2856">...</text><text fill="#000000" font-family="sans-serif" font-size="13" lengthAdjust="spacingAndGlyphs" textLength="170" x="20" y="371.4185">public SwingApplication() {</text><text fill="#000000" font-family="sans-serif" font-size="13" lengthAdjust="spacingAndGlyphs" textLength="12" x="28" y="386.5513">...</text><text fill="#000000" font-family="sans-serif" font-size="13" lengthAdjust="spacingAndGlyphs" textLength="287" x="28" y="401.6841">JButton jbutton = new JButton("jbutton text");</text><text fill="#000000" font-family="sans-serif" font-size="13" lengthAdjust="spacingAndGlyphs" textLength="0" x="28" y="416.8169"/><text fill="#000000" font-family="sans-serif" font-size="13" font-weight="bold" lengthAdjust="spacingAndGlyphs" textLength="236" x="28" y="416.8169">jbutton.addActionListener(this);</text><text fill="#000000" font-family="sans-serif" font-size="13" lengthAdjust="spacingAndGlyphs" textLength="12" x="28" y="431.9497">...</text><text fill="#000000" font-family="sans-serif" font-size="13" lengthAdjust="spacingAndGlyphs" textLength="8" x="20" y="447.0825">}</text><text fill="#000000" font-family="sans-serif" font-size="13" lengthAdjust="spacingAndGlyphs" textLength="12" x="20" y="462.2153">...</text><text fill="#000000" font-family="sans-serif" font-size="13" lengthAdjust="spacingAndGlyphs" textLength="12" x="20" y="477.3481">...</text><text fill="#000000" font-family="sans-serif" font-size="13" lengthAdjust="spacingAndGlyphs" textLength="0" x="20" y="492.481"/><text fill="#000000" font-family="sans-serif" font-size="13" font-weight="bold" lengthAdjust="spacingAndGlyphs" textLength="337" x="20" y="492.481">public void actionPerformed(ActionEvent e) {</text><text fill="#000000" font-family="sans-serif" font-size="13" lengthAdjust="spacingAndGlyphs" textLength="0" x="28" y="507.6138"/><text fill="#000000" font-family="sans-serif" font-size="13" font-weight="bold" lengthAdjust="spacingAndGlyphs" textLength="102" x="28" y="507.6138">numClicks++;</text><text fill="#000000" font-family="sans-serif" font-size="13" lengthAdjust="spacingAndGlyphs" textLength="0" x="28" y="522.7466"/><text fill="#000000" font-family="sans-serif" font-size="13" font-weight="bold" lengthAdjust="spacingAndGlyphs" textLength="305" x="28" y="522.7466">jlabel.setText("some text " + numClicks);</text><text fill="#000000" font-family="sans-serif" font-size="13" lengthAdjust="spacingAndGlyphs" textLength="0" x="20" y="537.8794"/><text fill="#000000" font-family="sans-serif" font-size="13" font-weight="bold" lengthAdjust="spacingAndGlyphs" textLength="9" x="20" y="537.8794">}</text><text fill="#000000" font-family="sans-serif" font-size="13" lengthAdjust="spacingAndGlyphs" textLength="12" x="20" y="553.0122">...</text><text fill="#000000" font-family="sans-serif" font-size="13" lengthAdjust="spacingAndGlyphs" textLength="12" x="20" y="568.145">...</text><text fill="#000000" font-family="sans-serif" font-size="13" lengthAdjust="spacingAndGlyphs" textLength="8" x="12" y="583.2778">}</text><path d="M167.073,100.0891 C177.853,115.5861 190.323,133.5121 201.642,149.7821 " fill="none" style="stroke: #A80036; stroke-width: 1.0;"/><polygon fill="none" points="161.243,103.9671,155.568,83.5511,172.736,95.9721,161.243,103.9671" style="stroke: #A80036; stroke-width: 1.0;"/><path d="M363.097,199.4531 C372.971,199.4531 382.846,199.4531 392.72,199.4531 " fill="none" style="stroke: #A80036; stroke-width: 1.0;"/><polygon fill="#A80036" points="397.884,199.4531,388.884,195.4531,392.884,199.4531,388.884,203.4531,397.884,199.4531" style="stroke: #A80036; stroke-width: 1.0;"/><path d="M299.986,106.7101 C290.225,120.5971 279.491,135.8681 269.628,149.8991 " fill="none" style="stroke: #A80036; stroke-width: 1.0; stroke-dasharray: 7.0,7.0;"/><polygon fill="none" points="294.463,102.3941,311.691,90.0571,305.917,110.4451,294.463,102.3941" style="stroke: #A80036; stroke-width: 1.0;"/></g></svg>