<?xml version="1.0" encoding="UTF-8" standalone="no"?>
<svg xmlns="http://www.w3.org/2000/svg" xmlns:xlink="http://www.w3.org/1999/xlink" contentScriptType="application/ecmascript" contentStyleType="text/css" height="757px" preserveAspectRatio="none" style="width:664px;height:757px;" version="1.1" viewBox="0 0 664 757" width="664px" zoomAndPan="magnify"><defs><filter height="300%" id="fgraxhh" width="300%" x="-1" y="-1"><feGaussianBlur result="blurOut" stdDeviation="2.0"/><feColorMatrix in="blurOut" result="blurOut2" type="matrix" values="0 0 0 0 0 0 0 0 0 0 0 0 0 0 0 0 0 0 .4 0"/><feOffset dx="4.0" dy="4.0" in="blurOut2" result="blurOut3"/><feBlend in="SourceGraphic" in2="blurOut3" mode="normal"/></filter></defs><g><text fill="#000000" font-family="sans-serif" font-size="18" lengthAdjust="spacingAndGlyphs" textLength="314" x="179.5" y="16.708">Event Handling in SwingApplication</text><!--class JFrame--><rect fill="#FEFECE" filter="url(#fgraxhh)" height="48" style="stroke: #A80036; stroke-width: 1.5;" width="74" x="102.5" y="35.4531"/><ellipse cx="117.5" cy="51.4531" fill="#ADD1B2" rx="11" ry="11" style="stroke: #A80036; stroke-width: 1.0;"/><path d="M119.8438,47.125 L120.0156,47.2031 C120.2344,46.8906 120.4375,46.7969 120.7344,46.7969 C121.0313,46.7969 121.3125,46.9375 121.4688,47.2031 C121.5625,47.3594 121.5781,47.4844 121.5781,47.9219 L121.5781,49.3438 C121.5781,49.7656 121.5469,49.9531 121.4375,50.1094 C121.2656,50.3281 121,50.4688 120.7344,50.4688 C120.5156,50.4688 120.2813,50.3594 120.1406,50.2188 C120,50.0938 119.9688,49.9688 119.9063,49.5625 C119.8125,49.1563 119.6406,48.9375 119.1563,48.6563 C118.6875,48.4063 118.0781,48.25 117.5,48.25 C115.7656,48.25 114.5156,49.5625 114.5156,51.3438 L114.5156,52.4375 C114.5156,54.1406 115.8125,55.2344 117.8594,55.2344 C118.625,55.2344 119.3125,55.1094 119.7344,54.8438 C119.9219,54.75 119.9219,54.75 120.375,54.2656 C120.5625,54.0781 120.7656,54 120.9844,54 C121.4531,54 121.8438,54.3906 121.8438,54.8438 C121.8438,55.2344 121.5156,55.6875 120.9375,56.0938 C120.1875,56.6406 119.0313,56.9375 117.8125,56.9375 C114.9219,56.9375 112.8125,55.0469 112.8125,52.4688 L112.8125,51.3438 C112.8125,48.625 114.8125,46.5469 117.4375,46.5469 C118.3125,46.5469 118.9063,46.6875 119.8438,47.125 Z "/><text fill="#000000" font-family="sans-serif" font-size="12" lengthAdjust="spacingAndGlyphs" textLength="42" x="131.5" y="55.6074">JFrame</text><line style="stroke: #A80036; stroke-width: 1.5;" x1="103.5" x2="175.5" y1="67.4531" y2="67.4531"/><line style="stroke: #A80036; stroke-width: 1.5;" x1="103.5" x2="175.5" y1="75.4531" y2="75.4531"/><!--class ActionListener--><rect fill="#FEFECE" filter="url(#fgraxhh)" height="60.8047" style="stroke: #A80036; stroke-width: 1.5;" width="242" x="211.5" y="28.9531"/><ellipse cx="283.75" cy="44.9531" fill="#B4A7E5" rx="11" ry="11" style="stroke: #A80036; stroke-width: 1.0;"/><path d="M284.7031,41.7344 L284.7031,48.25 L286.4219,48.25 C286.875,48.25 287.0156,48.2813 287.1875,48.4063 C287.4219,48.5781 287.5313,48.8281 287.5313,49.1094 C287.5313,49.6719 287.1719,49.9531 286.4219,49.9531 L281.2813,49.9531 C280.875,49.9531 280.6719,49.9063 280.5156,49.7813 C280.2969,49.625 280.1563,49.3594 280.1563,49.1094 C280.1563,48.8125 280.3125,48.5313 280.5625,48.375 C280.7188,48.2656 280.8438,48.25 281.2813,48.25 L283,48.25 L283,41.7344 L281.2813,41.7344 C280.8594,41.7344 280.6719,41.7031 280.5156,41.5938 C280.2969,41.4219 280.1563,41.1719 280.1563,40.8906 C280.1563,40.6094 280.3125,40.3125 280.5625,40.1563 C280.7188,40.0625 280.8438,40.0469 281.2813,40.0469 L286.4219,40.0469 C286.875,40.0469 287.0156,40.0781 287.1875,40.1875 C287.4219,40.3594 287.5313,40.625 287.5313,40.8906 C287.5313,41.1875 287.3906,41.4688 287.125,41.625 C287,41.7031 286.8125,41.7344 286.4219,41.7344 Z "/><text fill="#000000" font-family="sans-serif" font-size="12" font-style="italic" lengthAdjust="spacingAndGlyphs" textLength="89" x="304.25" y="49.1074">ActionListener</text><line style="stroke: #A80036; stroke-width: 1.5;" x1="212.5" x2="452.5" y1="60.9531" y2="60.9531"/><line style="stroke: #A80036; stroke-width: 1.5;" x1="212.5" x2="452.5" y1="68.9531" y2="68.9531"/><ellipse cx="222.5" cy="80.8555" fill="#84BE84" rx="3" ry="3" style="stroke: #038048; stroke-width: 1.0;"/><text fill="#000000" font-family="sans-serif" font-size="11" font-style="italic" lengthAdjust="spacingAndGlyphs" textLength="216" x="231.5" y="83.1636">actionPerformed(e: ActionEvent): void</text><!--class JButton--><rect fill="#FEFECE" filter="url(#fgraxhh)" height="60.8047" style="stroke: #A80036; stroke-width: 1.5;" width="257" x="398" y="194.4531"/><ellipse cx="499.75" cy="210.4531" fill="#ADD1B2" rx="11" ry="11" style="stroke: #A80036; stroke-width: 1.0;"/><path d="M502.0938,206.125 L502.2656,206.2031 C502.4844,205.8906 502.6875,205.7969 502.9844,205.7969 C503.2813,205.7969 503.5625,205.9375 503.7188,206.2031 C503.8125,206.3594 503.8281,206.4844 503.8281,206.9219 L503.8281,208.3438 C503.8281,208.7656 503.7969,208.9531 503.6875,209.1094 C503.5156,209.3281 503.25,209.4688 502.9844,209.4688 C502.7656,209.4688 502.5313,209.3594 502.3906,209.2188 C502.25,209.0938 502.2188,208.9688 502.1563,208.5625 C502.0625,208.1563 501.8906,207.9375 501.4063,207.6563 C500.9375,207.4063 500.3281,207.25 499.75,207.25 C498.0156,207.25 496.7656,208.5625 496.7656,210.3438 L496.7656,211.4375 C496.7656,213.1406 498.0625,214.2344 500.1094,214.2344 C500.875,214.2344 501.5625,214.1094 501.9844,213.8438 C502.1719,213.75 502.1719,213.75 502.625,213.2656 C502.8125,213.0781 503.0156,213 503.2344,213 C503.7031,213 504.0938,213.3906 504.0938,213.8438 C504.0938,214.2344 503.7656,214.6875 503.1875,215.0938 C502.4375,215.6406 501.2813,215.9375 500.0625,215.9375 C497.1719,215.9375 495.0625,214.0469 495.0625,211.4688 L495.0625,210.3438 C495.0625,207.625 497.0625,205.5469 499.6875,205.5469 C500.5625,205.5469 501.1563,205.6875 502.0938,206.125 Z "/><text fill="#000000" font-family="sans-serif" font-size="12" lengthAdjust="spacingAndGlyphs" textLength="45" x="520.25" y="214.6074">JButton</text><line style="stroke: #A80036; stroke-width: 1.5;" x1="399" x2="654" y1="226.4531" y2="226.4531"/><line style="stroke: #A80036; stroke-width: 1.5;" x1="399" x2="654" y1="234.4531" y2="234.4531"/><ellipse cx="409" cy="246.3555" fill="#84BE84" rx="3" ry="3" style="stroke: #038048; stroke-width: 1.0;"/><text fill="#000000" font-family="sans-serif" font-size="11" lengthAdjust="spacingAndGlyphs" textLength="231" x="418" y="248.6636">addActionListener(l: ActionListener): void</text><!--class SwingApplication--><rect fill="#FEFECE" filter="url(#fgraxhh)" height="150.4375" style="stroke: #A80036; stroke-width: 1.5;" width="255" x="108" y="149.9531"/><ellipse cx="178.75" cy="165.9531" fill="#ADD1B2" rx="11" ry="11" style="stroke: #A80036; stroke-width: 1.0;"/><path d="M181.0938,161.625 L181.2656,161.7031 C181.4844,161.3906 181.6875,161.2969 181.9844,161.2969 C182.2813,161.2969 182.5625,161.4375 182.7188,161.7031 C182.8125,161.8594 182.8281,161.9844 182.8281,162.4219 L182.8281,163.8438 C182.8281,164.2656 182.7969,164.4531 182.6875,164.6094 C182.5156,164.8281 182.25,164.9688 181.9844,164.9688 C181.7656,164.9688 181.5313,164.8594 181.3906,164.7188 C181.25,164.5938 181.2188,164.4688 181.1563,164.0625 C181.0625,163.6563 180.8906,163.4375 180.4063,163.1563 C179.9375,162.9063 179.3281,162.75 178.75,162.75 C177.0156,162.75 175.7656,164.0625 175.7656,165.8438 L175.7656,166.9375 C175.7656,168.6406 177.0625,169.7344 179.1094,169.7344 C179.875,169.7344 180.5625,169.6094 180.9844,169.3438 C181.1719,169.25 181.1719,169.25 181.625,168.7656 C181.8125,168.5781 182.0156,168.5 182.2344,168.5 C182.7031,168.5 183.0938,168.8906 183.0938,169.3438 C183.0938,169.7344 182.7656,170.1875 182.1875,170.5938 C181.4375,171.1406 180.2813,171.4375 179.0625,171.4375 C176.1719,171.4375 174.0625,169.5469 174.0625,166.9688 L174.0625,165.8438 C174.0625,163.125 176.0625,161.0469 178.6875,161.0469 C179.5625,161.0469 180.1563,161.1875 181.0938,161.625 Z "/><text fill="#000000" font-family="sans-serif" font-size="12" lengthAdjust="spacingAndGlyphs" textLength="105" x="199.25" y="170.1074">SwingApplication</text><line style="stroke: #A80036; stroke-width: 1.5;" x1="109" x2="362" y1="181.9531" y2="181.9531"/><rect fill="none" height="6" style="stroke: #C82930; stroke-width: 1.0;" width="6" x="116" y="190.8555"/><text fill="#000000" font-family="sans-serif" font-size="11" lengthAdjust="spacingAndGlyphs" textLength="71" x="128" y="196.1636">jlabel: JLabel</text><rect fill="none" height="6" style="stroke: #C82930; stroke-width: 1.0;" width="6" x="116" y="203.6602"/><text fill="#000000" font-family="sans-serif" font-size="11" lengthAdjust="spacingAndGlyphs" textLength="68" x="128" y="208.9683">jlab2: JLabel</text><rect fill="none" height="6" style="stroke: #C82930; stroke-width: 1.0;" width="6" x="116" y="216.4648"/><text fill="#000000" font-family="sans-serif" font-size="11" lengthAdjust="spacingAndGlyphs" textLength="80" x="128" y="221.7729">numClicks: int</text><rect fill="none" height="6" style="stroke: #C82930; stroke-width: 1.0;" width="6" x="116" y="229.2695"/><text fill="#000000" font-family="sans-serif" font-size="11" lengthAdjust="spacingAndGlyphs" textLength="107" x="128" y="234.5776">numSlowClicks: int</text><rect fill="none" height="6" style="stroke: #C82930; stroke-width: 1.0;" width="6" x="116" y="242.0742"/><text fill="#000000" font-family="sans-serif" font-size="11" lengthAdjust="spacingAndGlyphs" textLength="87" x="128" y="247.3823">jbutton: JButton</text><rect fill="none" height="6" style="stroke: #C82930; stroke-width: 1.0;" width="6" x="116" y="254.8789"/><text fill="#000000" font-family="sans-serif" font-size="11" lengthAdjust="spacingAndGlyphs" textLength="76" x="128" y="260.187">jbut2: JButton</text><line style="stroke: #A80036; stroke-width: 1.5;" x1="109" x2="362" y1="266.7813" y2="266.7813"/><ellipse cx="119" cy="278.6836" fill="#84BE84" rx="3" ry="3" style="stroke: #038048; stroke-width: 1.0;"/><text fill="#000000" font-family="sans-serif" font-size="11" lengthAdjust="spacingAndGlyphs" textLength="115" x="128" y="280.9917">C SwingApplication()</text><ellipse cx="119" cy="291.4883" fill="#84BE84" rx="3" ry="3" style="stroke: #038048; stroke-width: 1.0;"/><text fill="#000000" font-family="sans-serif" font-size="11" lengthAdjust="spacingAndGlyphs" textLength="229" x="128" y="293.7964">@ actionPerformed(e: ActionEvent): void</text><polygon fill="#FBFB77" filter="url(#fgraxhh)" points="6,359.9531,6,748.2734,465,748.2734,465,369.9531,455,359.9531,6,359.9531" style="stroke: #A80036; stroke-width: 1.0;"/><polygon fill="#FBFB77" points="6,359.9531,6,748.2734,465,748.2734,465,369.9531,455,359.9531,239.5,359.9531,235.5,300.1541,231.5,359.9531,6,359.9531" style="stroke: #A80036; stroke-width: 1.0;"/><line style="stroke: #A80036; stroke-width: 1.0;" x1="455" x2="455" y1="359.9531" y2="369.9531"/><line style="stroke: #A80036; stroke-width: 1.0;" x1="465" x2="455" y1="369.9531" y2="369.9531"/><text fill="#000000" font-family="sans-serif" font-size="13" lengthAdjust="spacingAndGlyphs" textLength="438" x="12" y="377.02">public SwingApplication extends JFrame implements ActionListener {</text><text fill="#000000" font-family="sans-serif" font-size="13" lengthAdjust="spacingAndGlyphs" textLength="12" x="20" y="392.1528">...</text><text fill="#000000" font-family="sans-serif" font-size="13" lengthAdjust="spacingAndGlyphs" textLength="12" x="20" y="407.2856">...</text><text fill="#000000" font-family="sans-serif" font-size="13" lengthAdjust="spacingAndGlyphs" textLength="170" x="20" y="422.4185">public SwingApplication() {</text><text fill="#000000" font-family="sans-serif" font-size="13" lengthAdjust="spacingAndGlyphs" textLength="12" x="28" y="437.5513">...</text><text fill="#000000" font-family="sans-serif" font-size="13" lengthAdjust="spacingAndGlyphs" textLength="237" x="28" y="452.6841">jbutton = new JButton("jbutton text");</text><text fill="#000000" font-family="sans-serif" font-size="13" lengthAdjust="spacingAndGlyphs" textLength="0" x="28" y="467.8169"/><text fill="#000000" font-family="sans-serif" font-size="13" font-weight="bold" lengthAdjust="spacingAndGlyphs" textLength="236" x="28" y="467.8169">jbutton.addActionListener(this);</text><text fill="#000000" font-family="sans-serif" font-size="13" lengthAdjust="spacingAndGlyphs" textLength="12" x="28" y="482.9497">...</text><text fill="#000000" font-family="sans-serif" font-size="13" lengthAdjust="spacingAndGlyphs" textLength="211" x="28" y="498.0825">jbut2 = new JButton("jbut2 text");</text><text fill="#000000" font-family="sans-serif" font-size="13" lengthAdjust="spacingAndGlyphs" textLength="0" x="28" y="513.2153"/><text fill="#000000" font-family="sans-serif" font-size="13" font-weight="bold" lengthAdjust="spacingAndGlyphs" textLength="221" x="28" y="513.2153">jbut2.addActionListener(this);</text><text fill="#000000" font-family="sans-serif" font-size="13" lengthAdjust="spacingAndGlyphs" textLength="12" x="28" y="528.3481">...</text><text fill="#000000" font-family="sans-serif" font-size="13" lengthAdjust="spacingAndGlyphs" textLength="8" x="20" y="543.481">}</text><text fill="#000000" font-family="sans-serif" font-size="13" lengthAdjust="spacingAndGlyphs" textLength="12" x="20" y="558.6138">...</text><text fill="#000000" font-family="sans-serif" font-size="13" lengthAdjust="spacingAndGlyphs" textLength="12" x="20" y="573.7466">...</text><text fill="#000000" font-family="sans-serif" font-size="13" lengthAdjust="spacingAndGlyphs" textLength="287" x="20" y="588.8794">public void actionPerformed(ActionEvent e) {</text><text fill="#000000" font-family="sans-serif" font-size="13" lengthAdjust="spacingAndGlyphs" textLength="223" x="28" y="604.0122">if (e.getSource() == this.jbutton) {</text><text fill="#000000" font-family="sans-serif" font-size="13" lengthAdjust="spacingAndGlyphs" textLength="207" x="36" y="619.145">//event handling code for jbutton</text><text fill="#000000" font-family="sans-serif" font-size="13" lengthAdjust="spacingAndGlyphs" textLength="8" x="28" y="634.2778">}</text><text fill="#000000" font-family="sans-serif" font-size="13" lengthAdjust="spacingAndGlyphs" textLength="240" x="28" y="649.4106">else if (e.getSource() == this.jbut2) {</text><text fill="#000000" font-family="sans-serif" font-size="13" lengthAdjust="spacingAndGlyphs" textLength="194" x="36" y="664.5435">//event handling code for jbut2</text><text fill="#000000" font-family="sans-serif" font-size="13" lengthAdjust="spacingAndGlyphs" textLength="8" x="28" y="679.6763">}</text><text fill="#000000" font-family="sans-serif" font-size="13" lengthAdjust="spacingAndGlyphs" textLength="8" x="20" y="694.8091">}</text><text fill="#000000" font-family="sans-serif" font-size="13" lengthAdjust="spacingAndGlyphs" textLength="12" x="20" y="709.9419">...</text><text fill="#000000" font-family="sans-serif" font-size="13" lengthAdjust="spacingAndGlyphs" textLength="12" x="20" y="725.0747">...</text><text fill="#000000" font-family="sans-serif" font-size="13" lengthAdjust="spacingAndGlyphs" textLength="8" x="12" y="740.2075">}</text><path d="M163.437,101.2211 C172.054,115.8971 182.067,132.9501 191.838,149.5911 " fill="none" style="stroke: #A80036; stroke-width: 1.0;"/><polygon fill="none" points="157.141,104.3231,153.051,83.5321,169.214,97.2341,157.141,104.3231" style="stroke: #A80036; stroke-width: 1.0;"/><path d="M363.097,224.9531 C372.971,224.9531 382.846,224.9531 392.72,224.9531 " fill="none" style="stroke: #A80036; stroke-width: 1.0;"/><polygon fill="#A80036" points="397.884,224.9531,388.884,220.9531,392.884,224.9531,388.884,228.9531,397.884,224.9531" style="stroke: #A80036; stroke-width: 1.0;"/><path d="M304.581,107.5121 C296.768,120.6811 288.08,135.3261 279.575,149.6611 " fill="none" style="stroke: #A80036; stroke-width: 1.0; stroke-dasharray: 7.0,7.0;"/><polygon fill="none" points="298.709,103.6911,314.934,90.0621,310.75,110.8341,298.709,103.6911" style="stroke: #A80036; stroke-width: 1.0;"/></g></svg>