<?xml version="1.0" encoding="UTF-8" standalone="no"?><svg xmlns="http://www.w3.org/2000/svg" xmlns:xlink="http://www.w3.org/1999/xlink" contentScriptType="application/ecmascript" contentStyleType="text/css" height="463px" preserveAspectRatio="none" style="width:703px;height:463px;" version="1.1" viewBox="0 0 703 463" width="703px" zoomAndPan="magnify"><defs><filter height="300%" id="f7y6dme" width="300%" x="-1" y="-1"><feGaussianBlur result="blurOut" stdDeviation="2.0"/><feColorMatrix in="blurOut" result="blurOut2" type="matrix" values="0 0 0 0 0 0 0 0 0 0 0 0 0 0 0 0 0 0 .4 0"/><feOffset dx="4.0" dy="4.0" in="blurOut2" result="blurOut3"/><feBlend in="SourceGraphic" in2="blurOut3" mode="normal"/></filter></defs><g><!--class JFrame--><rect fill="#FEFECE" filter="url(#f7y6dme)" height="60.8047" style="stroke: #A80036; stroke-width: 1.5;" width="159" x="278" y="8"/><ellipse cx="332.25" cy="24" fill="#ADD1B2" rx="11" ry="11" style="stroke: #A80036; stroke-width: 1.0;"/><path d="M334.5938,19.6719 L334.7656,19.75 C334.9844,19.4375 335.1875,19.3438 335.4844,19.3438 C335.7813,19.3438 336.0625,19.4844 336.2188,19.75 C336.3125,19.9063 336.3281,20.0313 336.3281,20.4688 L336.3281,21.8906 C336.3281,22.3125 336.2969,22.5 336.1875,22.6563 C336.0156,22.875 335.75,23.0156 335.4844,23.0156 C335.2656,23.0156 335.0313,22.9063 334.8906,22.7656 C334.75,22.6406 334.7188,22.5156 334.6563,22.1094 C334.5625,21.7031 334.3906,21.4844 333.9063,21.2031 C333.4375,20.9531 332.8281,20.7969 332.25,20.7969 C330.5156,20.7969 329.2656,22.1094 329.2656,23.8906 L329.2656,24.9844 C329.2656,26.6875 330.5625,27.7813 332.6094,27.7813 C333.375,27.7813 334.0625,27.6563 334.4844,27.3906 C334.6719,27.2969 334.6719,27.2969 335.125,26.8125 C335.3125,26.625 335.5156,26.5469 335.7344,26.5469 C336.2031,26.5469 336.5938,26.9375 336.5938,27.3906 C336.5938,27.7813 336.2656,28.2344 335.6875,28.6406 C334.9375,29.1875 333.7813,29.4844 332.5625,29.4844 C329.6719,29.4844 327.5625,27.5938 327.5625,25.0156 L327.5625,23.8906 C327.5625,21.1719 329.5625,19.0938 332.1875,19.0938 C333.0625,19.0938 333.6563,19.2344 334.5938,19.6719 Z "/><text fill="#000000" font-family="sans-serif" font-size="12" lengthAdjust="spacingAndGlyphs" textLength="42" x="352.75" y="28.1543">JFrame</text><line style="stroke: #A80036; stroke-width: 1.5;" x1="279" x2="436" y1="40" y2="40"/><line style="stroke: #A80036; stroke-width: 1.5;" x1="279" x2="436" y1="48" y2="48"/><ellipse cx="289" cy="59.9023" fill="#84BE84" rx="3" ry="3" style="stroke: #038048; stroke-width: 1.0;"/><text fill="#000000" font-family="sans-serif" font-size="11" lengthAdjust="spacingAndGlyphs" textLength="133" x="298" y="62.2104">paint(g: Graphics): void</text><!--class DrawingGUI--><rect fill="#FEFECE" filter="url(#f7y6dme)" height="73.6094" style="stroke: #A80036; stroke-width: 1.5;" width="175" x="270" y="129"/><ellipse cx="317.75" cy="145" fill="#ADD1B2" rx="11" ry="11" style="stroke: #A80036; stroke-width: 1.0;"/><path d="M320.0938,140.6719 L320.2656,140.75 C320.4844,140.4375 320.6875,140.3438 320.9844,140.3438 C321.2813,140.3438 321.5625,140.4844 321.7188,140.75 C321.8125,140.9063 321.8281,141.0313 321.8281,141.4688 L321.8281,142.8906 C321.8281,143.3125 321.7969,143.5 321.6875,143.6563 C321.5156,143.875 321.25,144.0156 320.9844,144.0156 C320.7656,144.0156 320.5313,143.9063 320.3906,143.7656 C320.25,143.6406 320.2188,143.5156 320.1563,143.1094 C320.0625,142.7031 319.8906,142.4844 319.4063,142.2031 C318.9375,141.9531 318.3281,141.7969 317.75,141.7969 C316.0156,141.7969 314.7656,143.1094 314.7656,144.8906 L314.7656,145.9844 C314.7656,147.6875 316.0625,148.7813 318.1094,148.7813 C318.875,148.7813 319.5625,148.6563 319.9844,148.3906 C320.1719,148.2969 320.1719,148.2969 320.625,147.8125 C320.8125,147.625 321.0156,147.5469 321.2344,147.5469 C321.7031,147.5469 322.0938,147.9375 322.0938,148.3906 C322.0938,148.7813 321.7656,149.2344 321.1875,149.6406 C320.4375,150.1875 319.2813,150.4844 318.0625,150.4844 C315.1719,150.4844 313.0625,148.5938 313.0625,146.0156 L313.0625,144.8906 C313.0625,142.1719 315.0625,140.0938 317.6875,140.0938 C318.5625,140.0938 319.1563,140.2344 320.0938,140.6719 Z "/><text fill="#000000" font-family="sans-serif" font-size="12" lengthAdjust="spacingAndGlyphs" textLength="71" x="338.25" y="149.1543">DrawingGUI</text><line style="stroke: #A80036; stroke-width: 1.5;" x1="271" x2="444" y1="161" y2="161"/><rect fill="none" height="6" style="stroke: #C82930; stroke-width: 1.0;" width="6" x="278" y="169.9023"/><text fill="#000000" font-family="sans-serif" font-size="11" lengthAdjust="spacingAndGlyphs" textLength="117" x="290" y="175.2104">dw: AbstractDrawing</text><line style="stroke: #A80036; stroke-width: 1.5;" x1="271" x2="444" y1="181.8047" y2="181.8047"/><ellipse cx="281" cy="193.707" fill="#84BE84" rx="3" ry="3" style="stroke: #038048; stroke-width: 1.0;"/><text fill="#000000" font-family="sans-serif" font-size="11" lengthAdjust="spacingAndGlyphs" textLength="149" x="290" y="196.0151">@ paint(g: Graphics): void</text><!--class AbstractDrawing--><rect fill="#FEFECE" filter="url(#f7y6dme)" height="60.8047" style="stroke: #A80036; stroke-width: 1.5;" width="159" x="76" y="135.5"/><ellipse cx="101.8" cy="151.5" fill="#A9DCDF" rx="11" ry="11" style="stroke: #A80036; stroke-width: 1.0;"/><path d="M103.3781,153.3125 L99.3313,153.3125 L98.9406,154.2969 L99.3313,154.2969 C99.7844,154.2969 99.925,154.3281 100.0969,154.4531 C100.3156,154.625 100.4406,154.875 100.4406,155.1563 C100.4406,155.4375 100.3,155.7344 100.0344,155.875 C99.9094,155.9688 99.6906,156 99.3313,156 L97.0656,156 C96.3156,156 95.9406,155.7188 95.9406,155.1563 C95.9406,154.8594 96.0969,154.5781 96.3469,154.4219 C96.5031,154.3125 96.6594,154.2969 97.0813,154.2969 L99.7219,147.7813 L98.6438,147.7813 C98.2063,147.7813 98.0344,147.75 97.8625,147.6406 C97.6438,147.4688 97.5031,147.2188 97.5031,146.9375 C97.5031,146.6563 97.6594,146.375 97.9094,146.2031 C98.0656,146.1094 98.1906,146.0938 98.6438,146.0938 L102.3156,146.0938 L105.7063,154.2969 C106.175,154.2969 106.3313,154.3281 106.5031,154.4688 C106.7219,154.625 106.8625,154.875 106.8625,155.1563 C106.8625,155.4375 106.7063,155.7344 106.4563,155.875 C106.3156,155.9688 106.0969,156 105.7375,156 L103.3781,156 C102.9563,156 102.7531,155.9531 102.6125,155.8281 C102.3938,155.6719 102.2531,155.4219 102.2531,155.1563 C102.2531,154.8594 102.4094,154.5781 102.6594,154.4219 C102.8156,154.3125 102.925,154.2969 103.3781,154.2969 L103.7688,154.2969 Z M102.675,151.6094 L101.3469,148.3438 L100.0031,151.6094 Z "/><text fill="#000000" font-family="sans-serif" font-size="12" font-style="italic" lengthAdjust="spacingAndGlyphs" textLength="103" x="118.2" y="155.6543">AbstractDrawing</text><line style="stroke: #A80036; stroke-width: 1.5;" x1="77" x2="234" y1="167.5" y2="167.5"/><line style="stroke: #A80036; stroke-width: 1.5;" x1="77" x2="234" y1="175.5" y2="175.5"/><ellipse cx="87" cy="187.4023" fill="#84BE84" rx="3" ry="3" style="stroke: #038048; stroke-width: 1.0;"/><text fill="#000000" font-family="sans-serif" font-size="11" font-style="italic" lengthAdjust="spacingAndGlyphs" textLength="133" x="96" y="189.7104">draw(g: Graphics): void</text><!--class ConcreteDrawing--><rect fill="#FEFECE" filter="url(#f7y6dme)" height="60.8047" style="stroke: #A80036; stroke-width: 1.5;" width="175" x="68" y="263"/><ellipse cx="99.2" cy="279" fill="#ADD1B2" rx="11" ry="11" style="stroke: #A80036; stroke-width: 1.0;"/><path d="M101.5438,274.6719 L101.7156,274.75 C101.9344,274.4375 102.1375,274.3438 102.4344,274.3438 C102.7313,274.3438 103.0125,274.4844 103.1688,274.75 C103.2625,274.9063 103.2781,275.0313 103.2781,275.4688 L103.2781,276.8906 C103.2781,277.3125 103.2469,277.5 103.1375,277.6563 C102.9656,277.875 102.7,278.0156 102.4344,278.0156 C102.2156,278.0156 101.9813,277.9063 101.8406,277.7656 C101.7,277.6406 101.6688,277.5156 101.6063,277.1094 C101.5125,276.7031 101.3406,276.4844 100.8563,276.2031 C100.3875,275.9531 99.7781,275.7969 99.2,275.7969 C97.4656,275.7969 96.2156,277.1094 96.2156,278.8906 L96.2156,279.9844 C96.2156,281.6875 97.5125,282.7813 99.5594,282.7813 C100.325,282.7813 101.0125,282.6563 101.4344,282.3906 C101.6219,282.2969 101.6219,282.2969 102.075,281.8125 C102.2625,281.625 102.4656,281.5469 102.6844,281.5469 C103.1531,281.5469 103.5438,281.9375 103.5438,282.3906 C103.5438,282.7813 103.2156,283.2344 102.6375,283.6406 C101.8875,284.1875 100.7313,284.4844 99.5125,284.4844 C96.6219,284.4844 94.5125,282.5938 94.5125,280.0156 L94.5125,278.8906 C94.5125,276.1719 96.5125,274.0938 99.1375,274.0938 C100.0125,274.0938 100.6063,274.2344 101.5438,274.6719 Z "/><text fill="#000000" font-family="sans-serif" font-size="12" lengthAdjust="spacingAndGlyphs" textLength="107" x="116.8" y="283.1543">ConcreteDrawing</text><line style="stroke: #A80036; stroke-width: 1.5;" x1="69" x2="242" y1="295" y2="295"/><line style="stroke: #A80036; stroke-width: 1.5;" x1="69" x2="242" y1="303" y2="303"/><ellipse cx="79" cy="314.9023" fill="#84BE84" rx="3" ry="3" style="stroke: #038048; stroke-width: 1.0;"/><text fill="#000000" font-family="sans-serif" font-size="11" lengthAdjust="spacingAndGlyphs" textLength="149" x="88" y="317.2104">@ draw(g: Graphics): void</text><polygon fill="#FFA500" filter="url(#f7y6dme)" points="480.5,130.5,480.5,201.0313,694.5,201.0313,694.5,140.5,684.5,130.5,480.5,130.5" style="stroke: #A80036; stroke-width: 1.0;"/><polygon fill="#FFA500" points="480.5,130.5,480.5,162,445.098,166,480.5,170,480.5,201.0313,694.5,201.0313,694.5,140.5,684.5,130.5,480.5,130.5" style="stroke: #A80036; stroke-width: 1.0;"/><line style="stroke: #A80036; stroke-width: 1.0;" x1="684.5" x2="684.5" y1="130.5" y2="140.5"/><line style="stroke: #A80036; stroke-width: 1.0;" x1="694.5" x2="684.5" y1="140.5" y2="140.5"/><text fill="#000000" font-family="sans-serif" font-size="13" lengthAdjust="spacingAndGlyphs" textLength="193" x="486.5" y="147.5669">public void paint(Graphics g) {</text><text fill="#000000" font-family="sans-serif" font-size="13" lengthAdjust="spacingAndGlyphs" textLength="94" x="494.5" y="162.6997">super.paint(g);</text><text fill="#000000" font-family="sans-serif" font-size="13" lengthAdjust="spacingAndGlyphs" textLength="0" x="494.5" y="177.8325"/><text fill="#000000" font-family="sans-serif" font-size="13" font-weight="bold" lengthAdjust="spacingAndGlyphs" textLength="91" x="494.5" y="177.8325">dw.draw(g);</text><text fill="#000000" font-family="sans-serif" font-size="13" lengthAdjust="spacingAndGlyphs" textLength="8" x="486.5" y="192.9653">}</text><polygon fill="#FFA500" filter="url(#f7y6dme)" points="6,384,6,454.5313,305,454.5313,305,394,295,384,6,384" style="stroke: #A80036; stroke-width: 1.0;"/><polygon fill="#FFA500" points="6,384,6,454.5313,305,454.5313,305,394,295,384,159.5,384,155.5,324.201,151.5,384,6,384" style="stroke: #A80036; stroke-width: 1.0;"/><line style="stroke: #A80036; stroke-width: 1.0;" x1="295" x2="295" y1="384" y2="394"/><line style="stroke: #A80036; stroke-width: 1.0;" x1="305" x2="295" y1="394" y2="394"/><text fill="#000000" font-family="sans-serif" font-size="13" lengthAdjust="spacingAndGlyphs" textLength="191" x="12" y="401.0669">public void draw(Graphics g) {</text><text fill="#000000" font-family="sans-serif" font-size="13" lengthAdjust="spacingAndGlyphs" textLength="213" x="20" y="416.1997">Graphics2D g2d = (Graphics2D)g</text><text fill="#000000" font-family="sans-serif" font-size="13" lengthAdjust="spacingAndGlyphs" textLength="0" x="20" y="431.3325"/><text fill="#000000" font-family="sans-serif" font-size="13" font-style="italic" lengthAdjust="spacingAndGlyphs" textLength="270" x="20" y="431.3325">//add instructions for your specific drawing</text><text fill="#000000" font-family="sans-serif" font-size="13" lengthAdjust="spacingAndGlyphs" textLength="8" x="12" y="446.4653">}</text><path d="M357.5,89.505 C357.5,102.621 357.5,116.513 357.5,128.755 " fill="none" style="stroke: #A80036; stroke-width: 1.0;"/><polygon fill="none" points="350.5,89.242,357.5,69.242,364.5,89.242,350.5,89.242" style="stroke: #A80036; stroke-width: 1.0;"/><path d="M155.5,216.947 C155.5,232.547 155.5,249.249 155.5,262.972 " fill="none" style="stroke: #A80036; stroke-width: 1.0;"/><polygon fill="none" points="148.5,216.742,155.5,196.742,162.5,216.742,148.5,216.742" style="stroke: #A80036; stroke-width: 1.0;"/><path d="M240.301,166 C250.065,166 259.829,166 269.594,166 " fill="none" style="stroke: #A80036; stroke-width: 1.0;"/><polygon fill="#A80036" points="235.195,166,244.195,170,240.195,166,244.195,162,235.195,166" style="stroke: #A80036; stroke-width: 1.0;"/></g></svg>