<?xml version="1.0" encoding="UTF-8" standalone="no"?><svg xmlns="http://www.w3.org/2000/svg" xmlns:xlink="http://www.w3.org/1999/xlink" contentScriptType="application/ecmascript" contentStyleType="text/css" height="727px" preserveAspectRatio="none" style="width:994px;height:727px;" version="1.1" viewBox="0 0 994 727" width="994px" zoomAndPan="magnify"><defs><filter height="300%" id="fjhn05l" width="300%" x="-1" y="-1"><feGaussianBlur result="blurOut" stdDeviation="2.0"/><feColorMatrix in="blurOut" result="blurOut2" type="matrix" values="0 0 0 0 0 0 0 0 0 0 0 0 0 0 0 0 0 0 .4 0"/><feOffset dx="4.0" dy="4.0" in="blurOut2" result="blurOut3"/><feBlend in="SourceGraphic" in2="blurOut3" mode="normal"/></filter></defs><g><!--class JFrame--><rect fill="#FEFECE" filter="url(#fjhn05l)" height="48" style="stroke: #A80036; stroke-width: 1.5;" width="74" x="732.5" y="14.5"/><ellipse cx="747.5" cy="30.5" fill="#ADD1B2" rx="11" ry="11" style="stroke: #A80036; stroke-width: 1.0;"/><path d="M749.8438,26.1719 L750.0156,26.25 C750.2344,25.9375 750.4375,25.8438 750.7344,25.8438 C751.0313,25.8438 751.3125,25.9844 751.4688,26.25 C751.5625,26.4063 751.5781,26.5313 751.5781,26.9688 L751.5781,28.3906 C751.5781,28.8125 751.5469,29 751.4375,29.1563 C751.2656,29.375 751,29.5156 750.7344,29.5156 C750.5156,29.5156 750.2813,29.4063 750.1406,29.2656 C750,29.1406 749.9688,29.0156 749.9063,28.6094 C749.8125,28.2031 749.6406,27.9844 749.1563,27.7031 C748.6875,27.4531 748.0781,27.2969 747.5,27.2969 C745.7656,27.2969 744.5156,28.6094 744.5156,30.3906 L744.5156,31.4844 C744.5156,33.1875 745.8125,34.2813 747.8594,34.2813 C748.625,34.2813 749.3125,34.1563 749.7344,33.8906 C749.9219,33.7969 749.9219,33.7969 750.375,33.3125 C750.5625,33.125 750.7656,33.0469 750.9844,33.0469 C751.4531,33.0469 751.8438,33.4375 751.8438,33.8906 C751.8438,34.2813 751.5156,34.7344 750.9375,35.1406 C750.1875,35.6875 749.0313,35.9844 747.8125,35.9844 C744.9219,35.9844 742.8125,34.0938 742.8125,31.5156 L742.8125,30.3906 C742.8125,27.6719 744.8125,25.5938 747.4375,25.5938 C748.3125,25.5938 748.9063,25.7344 749.8438,26.1719 Z "/><text fill="#000000" font-family="sans-serif" font-size="12" lengthAdjust="spacingAndGlyphs" textLength="42" x="761.5" y="34.6543">JFrame</text><line style="stroke: #A80036; stroke-width: 1.5;" x1="733.5" x2="805.5" y1="46.5" y2="46.5"/><line style="stroke: #A80036; stroke-width: 1.5;" x1="733.5" x2="805.5" y1="54.5" y2="54.5"/><!--class JScrollPane--><rect fill="#FEFECE" filter="url(#fjhn05l)" height="48" style="stroke: #A80036; stroke-width: 1.5;" width="101" x="484" y="148"/><ellipse cx="499" cy="164" fill="#ADD1B2" rx="11" ry="11" style="stroke: #A80036; stroke-width: 1.0;"/><path d="M501.3438,159.6719 L501.5156,159.75 C501.7344,159.4375 501.9375,159.3438 502.2344,159.3438 C502.5313,159.3438 502.8125,159.4844 502.9688,159.75 C503.0625,159.9063 503.0781,160.0313 503.0781,160.4688 L503.0781,161.8906 C503.0781,162.3125 503.0469,162.5 502.9375,162.6563 C502.7656,162.875 502.5,163.0156 502.2344,163.0156 C502.0156,163.0156 501.7813,162.9063 501.6406,162.7656 C501.5,162.6406 501.4688,162.5156 501.4063,162.1094 C501.3125,161.7031 501.1406,161.4844 500.6563,161.2031 C500.1875,160.9531 499.5781,160.7969 499,160.7969 C497.2656,160.7969 496.0156,162.1094 496.0156,163.8906 L496.0156,164.9844 C496.0156,166.6875 497.3125,167.7813 499.3594,167.7813 C500.125,167.7813 500.8125,167.6563 501.2344,167.3906 C501.4219,167.2969 501.4219,167.2969 501.875,166.8125 C502.0625,166.625 502.2656,166.5469 502.4844,166.5469 C502.9531,166.5469 503.3438,166.9375 503.3438,167.3906 C503.3438,167.7813 503.0156,168.2344 502.4375,168.6406 C501.6875,169.1875 500.5313,169.4844 499.3125,169.4844 C496.4219,169.4844 494.3125,167.5938 494.3125,165.0156 L494.3125,163.8906 C494.3125,161.1719 496.3125,159.0938 498.9375,159.0938 C499.8125,159.0938 500.4063,159.2344 501.3438,159.6719 Z "/><text fill="#000000" font-family="sans-serif" font-size="12" lengthAdjust="spacingAndGlyphs" textLength="69" x="513" y="168.1543">JScrollPane</text><line style="stroke: #A80036; stroke-width: 1.5;" x1="485" x2="584" y1="180" y2="180"/><line style="stroke: #A80036; stroke-width: 1.5;" x1="485" x2="584" y1="188" y2="188"/><!--class DrawingGUI--><rect fill="#FEFECE" filter="url(#fjhn05l)" height="60.8047" style="stroke: #A80036; stroke-width: 1.5;" width="298" x="620.5" y="141.5"/><ellipse cx="729.75" cy="157.5" fill="#ADD1B2" rx="11" ry="11" style="stroke: #A80036; stroke-width: 1.0;"/><path d="M732.0938,153.1719 L732.2656,153.25 C732.4844,152.9375 732.6875,152.8438 732.9844,152.8438 C733.2813,152.8438 733.5625,152.9844 733.7188,153.25 C733.8125,153.4063 733.8281,153.5313 733.8281,153.9688 L733.8281,155.3906 C733.8281,155.8125 733.7969,156 733.6875,156.1563 C733.5156,156.375 733.25,156.5156 732.9844,156.5156 C732.7656,156.5156 732.5313,156.4063 732.3906,156.2656 C732.25,156.1406 732.2188,156.0156 732.1563,155.6094 C732.0625,155.2031 731.8906,154.9844 731.4063,154.7031 C730.9375,154.4531 730.3281,154.2969 729.75,154.2969 C728.0156,154.2969 726.7656,155.6094 726.7656,157.3906 L726.7656,158.4844 C726.7656,160.1875 728.0625,161.2813 730.1094,161.2813 C730.875,161.2813 731.5625,161.1563 731.9844,160.8906 C732.1719,160.7969 732.1719,160.7969 732.625,160.3125 C732.8125,160.125 733.0156,160.0469 733.2344,160.0469 C733.7031,160.0469 734.0938,160.4375 734.0938,160.8906 C734.0938,161.2813 733.7656,161.7344 733.1875,162.1406 C732.4375,162.6875 731.2813,162.9844 730.0625,162.9844 C727.1719,162.9844 725.0625,161.0938 725.0625,158.5156 L725.0625,157.3906 C725.0625,154.6719 727.0625,152.5938 729.6875,152.5938 C730.5625,152.5938 731.1563,152.7344 732.0938,153.1719 Z "/><text fill="#000000" font-family="sans-serif" font-size="12" lengthAdjust="spacingAndGlyphs" textLength="71" x="750.25" y="161.6543">DrawingGUI</text><line style="stroke: #A80036; stroke-width: 1.5;" x1="621.5" x2="917.5" y1="173.5" y2="173.5"/><line style="stroke: #A80036; stroke-width: 1.5;" x1="621.5" x2="917.5" y1="181.5" y2="181.5"/><ellipse cx="631.5" cy="193.4023" fill="#84BE84" rx="3" ry="3" style="stroke: #038048; stroke-width: 1.0;"/><text fill="#000000" font-family="sans-serif" font-size="11" lengthAdjust="spacingAndGlyphs" textLength="272" x="640.5" y="195.7104">c DrawingGUI(title: String, dw: AbstractDrawing)</text><!--class JPanel--><rect fill="#FEFECE" filter="url(#fjhn05l)" height="60.8047" style="stroke: #A80036; stroke-width: 1.5;" width="224" x="216.5" y="8"/><ellipse cx="305.25" cy="24" fill="#ADD1B2" rx="11" ry="11" style="stroke: #A80036; stroke-width: 1.0;"/><path d="M307.5938,19.6719 L307.7656,19.75 C307.9844,19.4375 308.1875,19.3438 308.4844,19.3438 C308.7813,19.3438 309.0625,19.4844 309.2188,19.75 C309.3125,19.9063 309.3281,20.0313 309.3281,20.4688 L309.3281,21.8906 C309.3281,22.3125 309.2969,22.5 309.1875,22.6563 C309.0156,22.875 308.75,23.0156 308.4844,23.0156 C308.2656,23.0156 308.0313,22.9063 307.8906,22.7656 C307.75,22.6406 307.7188,22.5156 307.6563,22.1094 C307.5625,21.7031 307.3906,21.4844 306.9063,21.2031 C306.4375,20.9531 305.8281,20.7969 305.25,20.7969 C303.5156,20.7969 302.2656,22.1094 302.2656,23.8906 L302.2656,24.9844 C302.2656,26.6875 303.5625,27.7813 305.6094,27.7813 C306.375,27.7813 307.0625,27.6563 307.4844,27.3906 C307.6719,27.2969 307.6719,27.2969 308.125,26.8125 C308.3125,26.625 308.5156,26.5469 308.7344,26.5469 C309.2031,26.5469 309.5938,26.9375 309.5938,27.3906 C309.5938,27.7813 309.2656,28.2344 308.6875,28.6406 C307.9375,29.1875 306.7813,29.4844 305.5625,29.4844 C302.6719,29.4844 300.5625,27.5938 300.5625,25.0156 L300.5625,23.8906 C300.5625,21.1719 302.5625,19.0938 305.1875,19.0938 C306.0625,19.0938 306.6563,19.2344 307.5938,19.6719 Z "/><text fill="#000000" font-family="sans-serif" font-size="12" lengthAdjust="spacingAndGlyphs" textLength="38" x="325.75" y="28.1543">JPanel</text><line style="stroke: #A80036; stroke-width: 1.5;" x1="217.5" x2="439.5" y1="40" y2="40"/><line style="stroke: #A80036; stroke-width: 1.5;" x1="217.5" x2="439.5" y1="48" y2="48"/><ellipse cx="227.5" cy="59.9023" fill="#84BE84" rx="3" ry="3" style="stroke: #038048; stroke-width: 1.0;"/><text fill="#000000" font-family="sans-serif" font-size="11" lengthAdjust="spacingAndGlyphs" textLength="198" x="236.5" y="62.2104">paintComponent(g: Graphics): void</text><!--class DrawingPanel--><rect fill="#FEFECE" filter="url(#fjhn05l)" height="86.4141" style="stroke: #A80036; stroke-width: 1.5;" width="240" x="208.5" y="129"/><ellipse cx="281.75" cy="145" fill="#ADD1B2" rx="11" ry="11" style="stroke: #A80036; stroke-width: 1.0;"/><path d="M284.0938,140.6719 L284.2656,140.75 C284.4844,140.4375 284.6875,140.3438 284.9844,140.3438 C285.2813,140.3438 285.5625,140.4844 285.7188,140.75 C285.8125,140.9063 285.8281,141.0313 285.8281,141.4688 L285.8281,142.8906 C285.8281,143.3125 285.7969,143.5 285.6875,143.6563 C285.5156,143.875 285.25,144.0156 284.9844,144.0156 C284.7656,144.0156 284.5313,143.9063 284.3906,143.7656 C284.25,143.6406 284.2188,143.5156 284.1563,143.1094 C284.0625,142.7031 283.8906,142.4844 283.4063,142.2031 C282.9375,141.9531 282.3281,141.7969 281.75,141.7969 C280.0156,141.7969 278.7656,143.1094 278.7656,144.8906 L278.7656,145.9844 C278.7656,147.6875 280.0625,148.7813 282.1094,148.7813 C282.875,148.7813 283.5625,148.6563 283.9844,148.3906 C284.1719,148.2969 284.1719,148.2969 284.625,147.8125 C284.8125,147.625 285.0156,147.5469 285.2344,147.5469 C285.7031,147.5469 286.0938,147.9375 286.0938,148.3906 C286.0938,148.7813 285.7656,149.2344 285.1875,149.6406 C284.4375,150.1875 283.2813,150.4844 282.0625,150.4844 C279.1719,150.4844 277.0625,148.5938 277.0625,146.0156 L277.0625,144.8906 C277.0625,142.1719 279.0625,140.0938 281.6875,140.0938 C282.5625,140.0938 283.1563,140.2344 284.0938,140.6719 Z "/><text fill="#000000" font-family="sans-serif" font-size="12" lengthAdjust="spacingAndGlyphs" textLength="85" x="302.25" y="149.1543">DrawingPanel</text><line style="stroke: #A80036; stroke-width: 1.5;" x1="209.5" x2="447.5" y1="161" y2="161"/><rect fill="none" height="6" style="stroke: #C82930; stroke-width: 1.0;" width="6" x="216.5" y="169.9023"/><text fill="#000000" font-family="sans-serif" font-size="11" lengthAdjust="spacingAndGlyphs" textLength="117" x="228.5" y="175.2104">dw: AbstractDrawing</text><line style="stroke: #A80036; stroke-width: 1.5;" x1="209.5" x2="447.5" y1="181.8047" y2="181.8047"/><ellipse cx="219.5" cy="193.707" fill="#84BE84" rx="3" ry="3" style="stroke: #038048; stroke-width: 1.0;"/><text fill="#000000" font-family="sans-serif" font-size="11" lengthAdjust="spacingAndGlyphs" textLength="211" x="228.5" y="196.0151">setDrawing(d: AbstractDrawing): void</text><ellipse cx="219.5" cy="206.5117" fill="#84BE84" rx="3" ry="3" style="stroke: #038048; stroke-width: 1.0;"/><text fill="#000000" font-family="sans-serif" font-size="11" lengthAdjust="spacingAndGlyphs" textLength="214" x="228.5" y="208.8198">@ paintComponent(g: Graphics): void</text><!--class AbstractDrawing--><rect fill="#FEFECE" filter="url(#fjhn05l)" height="86.4141" style="stroke: #A80036; stroke-width: 1.5;" width="159" x="14" y="129"/><ellipse cx="39.8" cy="145" fill="#A9DCDF" rx="11" ry="11" style="stroke: #A80036; stroke-width: 1.0;"/><path d="M41.3781,146.8125 L37.3313,146.8125 L36.9406,147.7969 L37.3313,147.7969 C37.7844,147.7969 37.925,147.8281 38.0969,147.9531 C38.3156,148.125 38.4406,148.375 38.4406,148.6563 C38.4406,148.9375 38.3,149.2344 38.0344,149.375 C37.9094,149.4688 37.6906,149.5 37.3313,149.5 L35.0656,149.5 C34.3156,149.5 33.9406,149.2188 33.9406,148.6563 C33.9406,148.3594 34.0969,148.0781 34.3469,147.9219 C34.5031,147.8125 34.6594,147.7969 35.0813,147.7969 L37.7219,141.2813 L36.6438,141.2813 C36.2063,141.2813 36.0344,141.25 35.8625,141.1406 C35.6438,140.9688 35.5031,140.7188 35.5031,140.4375 C35.5031,140.1563 35.6594,139.875 35.9094,139.7031 C36.0656,139.6094 36.1906,139.5938 36.6438,139.5938 L40.3156,139.5938 L43.7063,147.7969 C44.175,147.7969 44.3313,147.8281 44.5031,147.9688 C44.7219,148.125 44.8625,148.375 44.8625,148.6563 C44.8625,148.9375 44.7063,149.2344 44.4563,149.375 C44.3156,149.4688 44.0969,149.5 43.7375,149.5 L41.3781,149.5 C40.9563,149.5 40.7531,149.4531 40.6125,149.3281 C40.3938,149.1719 40.2531,148.9219 40.2531,148.6563 C40.2531,148.3594 40.4094,148.0781 40.6594,147.9219 C40.8156,147.8125 40.925,147.7969 41.3781,147.7969 L41.7688,147.7969 Z M40.675,145.1094 L39.3469,141.8438 L38.0031,145.1094 Z "/><text fill="#000000" font-family="sans-serif" font-size="12" font-style="italic" lengthAdjust="spacingAndGlyphs" textLength="103" x="56.2" y="149.1543">AbstractDrawing</text><line style="stroke: #A80036; stroke-width: 1.5;" x1="15" x2="172" y1="161" y2="161"/><line style="stroke: #A80036; stroke-width: 1.5;" x1="15" x2="172" y1="169" y2="169"/><ellipse cx="25" cy="180.9023" fill="#84BE84" rx="3" ry="3" style="stroke: #038048; stroke-width: 1.0;"/><text fill="#000000" font-family="sans-serif" font-size="11" font-style="italic" lengthAdjust="spacingAndGlyphs" textLength="133" x="34" y="183.2104">draw(g: Graphics): void</text><ellipse cx="25" cy="193.707" fill="#84BE84" rx="3" ry="3" style="stroke: #038048; stroke-width: 1.0;"/><text fill="#000000" font-family="sans-serif" font-size="11" font-style="italic" lengthAdjust="spacingAndGlyphs" textLength="126" x="34" y="196.0151">getDrawingWidth(): int</text><ellipse cx="25" cy="206.5117" fill="#84BE84" rx="3" ry="3" style="stroke: #038048; stroke-width: 1.0;"/><text fill="#000000" font-family="sans-serif" font-size="11" font-style="italic" lengthAdjust="spacingAndGlyphs" textLength="130" x="34" y="208.8198">getDrawingHeight(): int</text><!--class ConcreteDrawing--><rect fill="#FEFECE" filter="url(#fjhn05l)" height="86.4141" style="stroke: #A80036; stroke-width: 1.5;" width="175" x="6" y="594.5"/><ellipse cx="37.2" cy="610.5" fill="#ADD1B2" rx="11" ry="11" style="stroke: #A80036; stroke-width: 1.0;"/><path d="M39.5438,606.1719 L39.7156,606.25 C39.9344,605.9375 40.1375,605.8438 40.4344,605.8438 C40.7313,605.8438 41.0125,605.9844 41.1688,606.25 C41.2625,606.4063 41.2781,606.5313 41.2781,606.9688 L41.2781,608.3906 C41.2781,608.8125 41.2469,609 41.1375,609.1563 C40.9656,609.375 40.7,609.5156 40.4344,609.5156 C40.2156,609.5156 39.9813,609.4063 39.8406,609.2656 C39.7,609.1406 39.6688,609.0156 39.6063,608.6094 C39.5125,608.2031 39.3406,607.9844 38.8563,607.7031 C38.3875,607.4531 37.7781,607.2969 37.2,607.2969 C35.4656,607.2969 34.2156,608.6094 34.2156,610.3906 L34.2156,611.4844 C34.2156,613.1875 35.5125,614.2813 37.5594,614.2813 C38.325,614.2813 39.0125,614.1563 39.4344,613.8906 C39.6219,613.7969 39.6219,613.7969 40.075,613.3125 C40.2625,613.125 40.4656,613.0469 40.6844,613.0469 C41.1531,613.0469 41.5438,613.4375 41.5438,613.8906 C41.5438,614.2813 41.2156,614.7344 40.6375,615.1406 C39.8875,615.6875 38.7313,615.9844 37.5125,615.9844 C34.6219,615.9844 32.5125,614.0938 32.5125,611.5156 L32.5125,610.3906 C32.5125,607.6719 34.5125,605.5938 37.1375,605.5938 C38.0125,605.5938 38.6063,605.7344 39.5438,606.1719 Z "/><text fill="#000000" font-family="sans-serif" font-size="12" lengthAdjust="spacingAndGlyphs" textLength="107" x="54.8" y="614.6543">ConcreteDrawing</text><line style="stroke: #A80036; stroke-width: 1.5;" x1="7" x2="180" y1="626.5" y2="626.5"/><line style="stroke: #A80036; stroke-width: 1.5;" x1="7" x2="180" y1="634.5" y2="634.5"/><ellipse cx="17" cy="646.4023" fill="#84BE84" rx="3" ry="3" style="stroke: #038048; stroke-width: 1.0;"/><text fill="#000000" font-family="sans-serif" font-size="11" lengthAdjust="spacingAndGlyphs" textLength="149" x="26" y="648.7104">@ draw(g: Graphics): void</text><ellipse cx="17" cy="659.207" fill="#84BE84" rx="3" ry="3" style="stroke: #038048; stroke-width: 1.0;"/><text fill="#000000" font-family="sans-serif" font-size="11" lengthAdjust="spacingAndGlyphs" textLength="140" x="26" y="661.5151">@ getDrawingWidth(): int</text><ellipse cx="17" cy="672.0117" fill="#84BE84" rx="3" ry="3" style="stroke: #038048; stroke-width: 1.0;"/><text fill="#000000" font-family="sans-serif" font-size="11" lengthAdjust="spacingAndGlyphs" textLength="146" x="26" y="674.3198">@ getDrawingHeight(): int</text><polygon fill="#FFA500" filter="url(#fjhn05l)" points="184,350.5,184,421.0313,473,421.0313,473,360.5,463,350.5,184,350.5" style="stroke: #A80036; stroke-width: 1.0;"/><polygon fill="#FFA500" points="184,350.5,184,421.0313,473,421.0313,473,360.5,463,350.5,332.5,350.5,328.5,215.138,324.5,350.5,184,350.5" style="stroke: #A80036; stroke-width: 1.0;"/><line style="stroke: #A80036; stroke-width: 1.0;" x1="463" x2="463" y1="350.5" y2="360.5"/><line style="stroke: #A80036; stroke-width: 1.0;" x1="473" x2="463" y1="360.5" y2="360.5"/><text fill="#000000" font-family="sans-serif" font-size="13" lengthAdjust="spacingAndGlyphs" textLength="268" x="190" y="367.5669">public void paintComponent(Graphics g) {</text><text fill="#000000" font-family="sans-serif" font-size="13" lengthAdjust="spacingAndGlyphs" textLength="169" x="198" y="382.6997">super.paintComponent(g);</text><text fill="#000000" font-family="sans-serif" font-size="13" lengthAdjust="spacingAndGlyphs" textLength="0" x="198" y="397.8325"/><text fill="#000000" font-family="sans-serif" font-size="13" font-weight="bold" lengthAdjust="spacingAndGlyphs" textLength="91" x="198" y="397.8325">dw.draw(g);</text><text fill="#000000" font-family="sans-serif" font-size="13" lengthAdjust="spacingAndGlyphs" textLength="8" x="190" y="412.9653">}</text><polygon fill="#FFA500" filter="url(#fjhn05l)" points="216,557,216,718.3281,515,718.3281,515,567,505,557,216,557" style="stroke: #A80036; stroke-width: 1.0;"/><polygon fill="#FFA500" points="216,557,216,633.5,181.156,637.5,216,641.5,216,718.3281,515,718.3281,515,567,505,557,216,557" style="stroke: #A80036; stroke-width: 1.0;"/><line style="stroke: #A80036; stroke-width: 1.0;" x1="505" x2="505" y1="557" y2="567"/><line style="stroke: #A80036; stroke-width: 1.0;" x1="515" x2="505" y1="567" y2="567"/><text fill="#000000" font-family="sans-serif" font-size="13" lengthAdjust="spacingAndGlyphs" textLength="191" x="222" y="574.0669">public void draw(Graphics g) {</text><text fill="#000000" font-family="sans-serif" font-size="13" lengthAdjust="spacingAndGlyphs" textLength="213" x="230" y="589.1997">Graphics2D g2d = (Graphics2D)g</text><text fill="#000000" font-family="sans-serif" font-size="13" lengthAdjust="spacingAndGlyphs" textLength="0" x="230" y="604.3325"/><text fill="#000000" font-family="sans-serif" font-size="13" font-style="italic" lengthAdjust="spacingAndGlyphs" textLength="270" x="230" y="604.3325">//add instructions for your specific drawing</text><text fill="#000000" font-family="sans-serif" font-size="13" lengthAdjust="spacingAndGlyphs" textLength="8" x="222" y="619.4653">}</text><text fill="#000000" font-family="sans-serif" font-size="13" font-weight="bold" lengthAdjust="spacingAndGlyphs" textLength="215" x="222" y="634.5981">public int getDrawingWidth()</text><text fill="#000000" font-family="sans-serif" font-size="13" lengthAdjust="spacingAndGlyphs" textLength="8" x="441" y="634.5981">{</text><text fill="#000000" font-family="sans-serif" font-size="13" lengthAdjust="spacingAndGlyphs" textLength="0" x="230" y="649.731"/><text fill="#000000" font-family="sans-serif" font-size="13" font-style="italic" lengthAdjust="spacingAndGlyphs" textLength="255" x="230" y="649.731">//compute and return the drawing width</text><text fill="#000000" font-family="sans-serif" font-size="13" lengthAdjust="spacingAndGlyphs" textLength="8" x="222" y="664.8638">}</text><text fill="#000000" font-family="sans-serif" font-size="13" font-weight="bold" lengthAdjust="spacingAndGlyphs" textLength="221" x="222" y="679.9966">public int getDrawingHeight()</text><text fill="#000000" font-family="sans-serif" font-size="13" lengthAdjust="spacingAndGlyphs" textLength="8" x="447" y="679.9966">{</text><text fill="#000000" font-family="sans-serif" font-size="13" lengthAdjust="spacingAndGlyphs" textLength="0" x="230" y="695.1294"/><text fill="#000000" font-family="sans-serif" font-size="13" font-style="italic" lengthAdjust="spacingAndGlyphs" textLength="260" x="230" y="695.1294">//compute and return the drawing height</text><text fill="#000000" font-family="sans-serif" font-size="13" lengthAdjust="spacingAndGlyphs" textLength="8" x="222" y="710.2622">}</text><polygon fill="#FFA500" filter="url(#fjhn05l)" points="554,275,554,496.8594,985,496.8594,985,285,975,275,554,275" style="stroke: #A80036; stroke-width: 1.0;"/><polygon fill="#FFA500" points="554,275,554,496.8594,985,496.8594,985,285,975,275,773.5,275,769.5,202.925,765.5,275,554,275" style="stroke: #A80036; stroke-width: 1.0;"/><line style="stroke: #A80036; stroke-width: 1.0;" x1="975" x2="975" y1="275" y2="285"/><line style="stroke: #A80036; stroke-width: 1.0;" x1="985" x2="975" y1="285" y2="285"/><text fill="#000000" font-family="sans-serif" font-size="13" lengthAdjust="spacingAndGlyphs" textLength="337" x="560" y="292.0669">public DrawingGUI(String title, AbstractDrawing dw) {</text><text fill="#000000" font-family="sans-serif" font-size="13" lengthAdjust="spacingAndGlyphs" textLength="12" x="568" y="307.1997">...</text><text fill="#000000" font-family="sans-serif" font-size="13" lengthAdjust="spacingAndGlyphs" textLength="303" x="568" y="322.3325">DrawingPanel drawPanel = new DrawingPanel();</text><text fill="#000000" font-family="sans-serif" font-size="13" lengthAdjust="spacingAndGlyphs" textLength="171" x="568" y="337.4653">drawPanel.setDrawing(dw);</text><text fill="#000000" font-family="sans-serif" font-size="13" lengthAdjust="spacingAndGlyphs" textLength="0" x="568" y="352.5981"/><text fill="#000000" font-family="sans-serif" font-size="13" font-weight="bold" lengthAdjust="spacingAndGlyphs" textLength="331" x="568" y="352.5981">drawPanel.setPreferredSize(new Dimension(</text><text fill="#000000" font-family="sans-serif" font-size="13" lengthAdjust="spacingAndGlyphs" textLength="0" x="576" y="367.731"/><text fill="#000000" font-family="sans-serif" font-size="13" font-weight="bold" lengthAdjust="spacingAndGlyphs" textLength="326" x="576" y="367.731">dw.getDrawingWidth() + HORIZONTAL_GAP,</text><text fill="#000000" font-family="sans-serif" font-size="13" lengthAdjust="spacingAndGlyphs" textLength="0" x="576" y="382.8638"/><text fill="#000000" font-family="sans-serif" font-size="13" font-weight="bold" lengthAdjust="spacingAndGlyphs" textLength="319" x="576" y="382.8638">dw.getDrawingHeight() + VERTICAL_GAP));</text><text fill="#000000" font-family="sans-serif" font-size="13" lengthAdjust="spacingAndGlyphs" textLength="0" x="576" y="397.9966"/><text fill="#000000" font-family="sans-serif" font-size="13" lengthAdjust="spacingAndGlyphs" textLength="0" x="576" y="413.1294"/><text fill="#000000" font-family="sans-serif" font-size="13" font-weight="bold" lengthAdjust="spacingAndGlyphs" textLength="394" x="576" y="413.1294">JScrollPane scrollPane = new JScrollPane(drawPanel);</text><text fill="#000000" font-family="sans-serif" font-size="13" lengthAdjust="spacingAndGlyphs" textLength="263" x="576" y="428.2622">Container contPane = getContentPane();</text><text fill="#000000" font-family="sans-serif" font-size="13" lengthAdjust="spacingAndGlyphs" textLength="266" x="576" y="443.395">contPane.setLayout(new BorderLayout());</text><text fill="#000000" font-family="sans-serif" font-size="13" lengthAdjust="spacingAndGlyphs" textLength="0" x="576" y="458.5278"/><text fill="#000000" font-family="sans-serif" font-size="13" font-weight="bold" lengthAdjust="spacingAndGlyphs" textLength="367" x="576" y="458.5278">contPane.add(scrollPane, BorderLayout.CENTER);</text><text fill="#000000" font-family="sans-serif" font-size="13" lengthAdjust="spacingAndGlyphs" textLength="44" x="576" y="473.6606">pack();</text><text fill="#000000" font-family="sans-serif" font-size="13" lengthAdjust="spacingAndGlyphs" textLength="8" x="560" y="488.7935">}</text><path d="M769.5,82.969 C769.5,102.024 769.5,123.911 769.5,141.094 " fill="none" style="stroke: #A80036; stroke-width: 1.0;"/><polygon fill="none" points="762.5,82.707,769.5,62.707,776.5,82.707,762.5,82.707" style="stroke: #A80036; stroke-width: 1.0;"/><path d="M328.5,89.138 C328.5,102.225 328.5,116.22 328.5,128.869 " fill="none" style="stroke: #A80036; stroke-width: 1.0;"/><polygon fill="none" points="321.5,89.011,328.5,69.011,335.5,89.011,321.5,89.011" style="stroke: #A80036; stroke-width: 1.0;"/><path d="M93.5,235.599 C93.5,331.576 93.5,512.552 93.5,594.405 " fill="none" style="stroke: #A80036; stroke-width: 1.0;"/><polygon fill="none" points="86.5001,235.361,93.5,215.361,100.5001,235.361,86.5001,235.361" style="stroke: #A80036; stroke-width: 1.0;"/><path d="M178.536,172 C188.427,172 198.317,172 208.208,172 " fill="none" style="stroke: #A80036; stroke-width: 1.0;"/><polygon fill="#A80036" points="173.363,172,182.363,176,178.363,172,182.363,168,173.363,172" style="stroke: #A80036; stroke-width: 1.0;"/><path d="M454.018,172 C463.996,172 473.973,172 483.951,172 " fill="none" style="stroke: #A80036; stroke-width: 1.0;"/><polygon fill="#A80036" points="448.801,172,457.801,176,453.801,172,457.801,168,448.801,172" style="stroke: #A80036; stroke-width: 1.0;"/><path d="M590.623,172 C600.521,172 610.419,172 620.317,172 " fill="none" style="stroke: #A80036; stroke-width: 1.0;"/><polygon fill="#A80036" points="585.447,172,594.447,176,590.447,172,594.447,168,585.447,172" style="stroke: #A80036; stroke-width: 1.0;"/></g></svg>