<?xml version="1.0" encoding="UTF-8" standalone="no"?><svg xmlns="http://www.w3.org/2000/svg" xmlns:xlink="http://www.w3.org/1999/xlink" contentScriptType="application/ecmascript" contentStyleType="text/css" height="732px" preserveAspectRatio="none" style="width:1192px;height:732px;" version="1.1" viewBox="0 0 1192 732" width="1192px" zoomAndPan="magnify"><defs><filter height="300%" id="flqz5fe" width="300%" x="-1" y="-1"><feGaussianBlur result="blurOut" stdDeviation="2.0"/><feColorMatrix in="blurOut" result="blurOut2" type="matrix" values="0 0 0 0 0 0 0 0 0 0 0 0 0 0 0 0 0 0 .4 0"/><feOffset dx="4.0" dy="4.0" in="blurOut2" result="blurOut3"/><feBlend in="SourceGraphic" in2="blurOut3" mode="normal"/></filter></defs><g><!--class JFrame--><rect fill="#FEFECE" filter="url(#flqz5fe)" height="48" style="stroke: #A80036; stroke-width: 1.5;" width="74" x="832.5" y="21"/><ellipse cx="847.5" cy="37" fill="#ADD1B2" rx="11" ry="11" style="stroke: #A80036; stroke-width: 1.0;"/><path d="M849.8438,32.6719 L850.0156,32.75 C850.2344,32.4375 850.4375,32.3438 850.7344,32.3438 C851.0313,32.3438 851.3125,32.4844 851.4688,32.75 C851.5625,32.9063 851.5781,33.0313 851.5781,33.4688 L851.5781,34.8906 C851.5781,35.3125 851.5469,35.5 851.4375,35.6563 C851.2656,35.875 851,36.0156 850.7344,36.0156 C850.5156,36.0156 850.2813,35.9063 850.1406,35.7656 C850,35.6406 849.9688,35.5156 849.9063,35.1094 C849.8125,34.7031 849.6406,34.4844 849.1563,34.2031 C848.6875,33.9531 848.0781,33.7969 847.5,33.7969 C845.7656,33.7969 844.5156,35.1094 844.5156,36.8906 L844.5156,37.9844 C844.5156,39.6875 845.8125,40.7813 847.8594,40.7813 C848.625,40.7813 849.3125,40.6563 849.7344,40.3906 C849.9219,40.2969 849.9219,40.2969 850.375,39.8125 C850.5625,39.625 850.7656,39.5469 850.9844,39.5469 C851.4531,39.5469 851.8438,39.9375 851.8438,40.3906 C851.8438,40.7813 851.5156,41.2344 850.9375,41.6406 C850.1875,42.1875 849.0313,42.4844 847.8125,42.4844 C844.9219,42.4844 842.8125,40.5938 842.8125,38.0156 L842.8125,36.8906 C842.8125,34.1719 844.8125,32.0938 847.4375,32.0938 C848.3125,32.0938 848.9063,32.2344 849.8438,32.6719 Z "/><text fill="#000000" font-family="sans-serif" font-size="12" lengthAdjust="spacingAndGlyphs" textLength="42" x="861.5" y="41.1543">JFrame</text><line style="stroke: #A80036; stroke-width: 1.5;" x1="833.5" x2="905.5" y1="53" y2="53"/><line style="stroke: #A80036; stroke-width: 1.5;" x1="833.5" x2="905.5" y1="61" y2="61"/><!--class ActionListener--><rect fill="#FEFECE" filter="url(#flqz5fe)" height="66.7422" style="stroke: #A80036; stroke-width: 1.5;" width="242" x="941.5" y="11.5"/><ellipse cx="1013.75" cy="30.4688" fill="#B4A7E5" rx="11" ry="11" style="stroke: #A80036; stroke-width: 1.0;"/><path d="M1014.7031,27.25 L1014.7031,33.7656 L1016.4219,33.7656 C1016.875,33.7656 1017.0156,33.7969 1017.1875,33.9219 C1017.4219,34.0938 1017.5313,34.3438 1017.5313,34.625 C1017.5313,35.1875 1017.1719,35.4688 1016.4219,35.4688 L1011.2813,35.4688 C1010.875,35.4688 1010.6719,35.4219 1010.5156,35.2969 C1010.2969,35.1406 1010.1563,34.875 1010.1563,34.625 C1010.1563,34.3281 1010.3125,34.0469 1010.5625,33.8906 C1010.7188,33.7813 1010.8438,33.7656 1011.2813,33.7656 L1013,33.7656 L1013,27.25 L1011.2813,27.25 C1010.8594,27.25 1010.6719,27.2188 1010.5156,27.1094 C1010.2969,26.9375 1010.1563,26.6875 1010.1563,26.4063 C1010.1563,26.125 1010.3125,25.8281 1010.5625,25.6719 C1010.7188,25.5781 1010.8438,25.5625 1011.2813,25.5625 L1016.4219,25.5625 C1016.875,25.5625 1017.0156,25.5938 1017.1875,25.7031 C1017.4219,25.875 1017.5313,26.1406 1017.5313,26.4063 C1017.5313,26.7031 1017.3906,26.9844 1017.125,27.1406 C1017,27.2188 1016.8125,27.25 1016.4219,27.25 Z "/><text fill="#000000" font-family="sans-serif" font-size="12" font-style="italic" lengthAdjust="spacingAndGlyphs" textLength="70" x="1043.75" y="27.6387">«interface»</text><text fill="#000000" font-family="sans-serif" font-size="12" font-style="italic" lengthAdjust="spacingAndGlyphs" textLength="89" x="1034.25" y="41.6074">ActionListener</text><line style="stroke: #A80036; stroke-width: 1.5;" x1="942.5" x2="1182.5" y1="49.4375" y2="49.4375"/><line style="stroke: #A80036; stroke-width: 1.5;" x1="942.5" x2="1182.5" y1="57.4375" y2="57.4375"/><ellipse cx="952.5" cy="69.3398" fill="#84BE84" rx="3" ry="3" style="stroke: #038048; stroke-width: 1.0;"/><text fill="#000000" font-family="sans-serif" font-size="11" font-style="italic" lengthAdjust="spacingAndGlyphs" textLength="216" x="961.5" y="71.6479">actionPerformed(e: ActionEvent): void</text><!--class JScrollPane--><rect fill="#FEFECE" filter="url(#flqz5fe)" height="48" style="stroke: #A80036; stroke-width: 1.5;" width="101" x="681" y="180.5"/><ellipse cx="696" cy="196.5" fill="#ADD1B2" rx="11" ry="11" style="stroke: #A80036; stroke-width: 1.0;"/><path d="M698.3438,192.1719 L698.5156,192.25 C698.7344,191.9375 698.9375,191.8438 699.2344,191.8438 C699.5313,191.8438 699.8125,191.9844 699.9688,192.25 C700.0625,192.4063 700.0781,192.5313 700.0781,192.9688 L700.0781,194.3906 C700.0781,194.8125 700.0469,195 699.9375,195.1563 C699.7656,195.375 699.5,195.5156 699.2344,195.5156 C699.0156,195.5156 698.7813,195.4063 698.6406,195.2656 C698.5,195.1406 698.4688,195.0156 698.4063,194.6094 C698.3125,194.2031 698.1406,193.9844 697.6563,193.7031 C697.1875,193.4531 696.5781,193.2969 696,193.2969 C694.2656,193.2969 693.0156,194.6094 693.0156,196.3906 L693.0156,197.4844 C693.0156,199.1875 694.3125,200.2813 696.3594,200.2813 C697.125,200.2813 697.8125,200.1563 698.2344,199.8906 C698.4219,199.7969 698.4219,199.7969 698.875,199.3125 C699.0625,199.125 699.2656,199.0469 699.4844,199.0469 C699.9531,199.0469 700.3438,199.4375 700.3438,199.8906 C700.3438,200.2813 700.0156,200.7344 699.4375,201.1406 C698.6875,201.6875 697.5313,201.9844 696.3125,201.9844 C693.4219,201.9844 691.3125,200.0938 691.3125,197.5156 L691.3125,196.3906 C691.3125,193.6719 693.3125,191.5938 695.9375,191.5938 C696.8125,191.5938 697.4063,191.7344 698.3438,192.1719 Z "/><text fill="#000000" font-family="sans-serif" font-size="12" lengthAdjust="spacingAndGlyphs" textLength="69" x="710" y="200.6543">JScrollPane</text><line style="stroke: #A80036; stroke-width: 1.5;" x1="682" x2="781" y1="212.5" y2="212.5"/><line style="stroke: #A80036; stroke-width: 1.5;" x1="682" x2="781" y1="220.5" y2="220.5"/><!--class DrawingGUI--><rect fill="#FEFECE" filter="url(#flqz5fe)" height="99.2188" style="stroke: #A80036; stroke-width: 1.5;" width="298" x="817.5" y="155"/><ellipse cx="926.75" cy="171" fill="#ADD1B2" rx="11" ry="11" style="stroke: #A80036; stroke-width: 1.0;"/><path d="M929.0938,166.6719 L929.2656,166.75 C929.4844,166.4375 929.6875,166.3438 929.9844,166.3438 C930.2813,166.3438 930.5625,166.4844 930.7188,166.75 C930.8125,166.9063 930.8281,167.0313 930.8281,167.4688 L930.8281,168.8906 C930.8281,169.3125 930.7969,169.5 930.6875,169.6563 C930.5156,169.875 930.25,170.0156 929.9844,170.0156 C929.7656,170.0156 929.5313,169.9063 929.3906,169.7656 C929.25,169.6406 929.2188,169.5156 929.1563,169.1094 C929.0625,168.7031 928.8906,168.4844 928.4063,168.2031 C927.9375,167.9531 927.3281,167.7969 926.75,167.7969 C925.0156,167.7969 923.7656,169.1094 923.7656,170.8906 L923.7656,171.9844 C923.7656,173.6875 925.0625,174.7813 927.1094,174.7813 C927.875,174.7813 928.5625,174.6563 928.9844,174.3906 C929.1719,174.2969 929.1719,174.2969 929.625,173.8125 C929.8125,173.625 930.0156,173.5469 930.2344,173.5469 C930.7031,173.5469 931.0938,173.9375 931.0938,174.3906 C931.0938,174.7813 930.7656,175.2344 930.1875,175.6406 C929.4375,176.1875 928.2813,176.4844 927.0625,176.4844 C924.1719,176.4844 922.0625,174.5938 922.0625,172.0156 L922.0625,170.8906 C922.0625,168.1719 924.0625,166.0938 926.6875,166.0938 C927.5625,166.0938 928.1563,166.2344 929.0938,166.6719 Z "/><text fill="#000000" font-family="sans-serif" font-size="12" lengthAdjust="spacingAndGlyphs" textLength="71" x="947.25" y="175.1543">DrawingGUI</text><line style="stroke: #A80036; stroke-width: 1.5;" x1="818.5" x2="1114.5" y1="187" y2="187"/><line style="stroke: #A80036; stroke-width: 1.5;" x1="818.5" x2="1114.5" y1="195" y2="195"/><ellipse cx="828.5" cy="206.9023" fill="#84BE84" rx="3" ry="3" style="stroke: #038048; stroke-width: 1.0;"/><text fill="#000000" font-family="sans-serif" font-size="11" lengthAdjust="spacingAndGlyphs" textLength="272" x="837.5" y="209.2104">c DrawingGUI(title: String, dw: AbstractDrawing)</text><ellipse cx="828.5" cy="219.707" fill="#84BE84" rx="3" ry="3" style="stroke: #038048; stroke-width: 1.0;"/><text fill="#000000" font-family="sans-serif" font-size="11" lengthAdjust="spacingAndGlyphs" textLength="213" x="837.5" y="222.0151">actionPerformed(e: ActionEvent): void</text><rect fill="#F24D5C" height="6" style="stroke: #C82930; stroke-width: 1.0;" width="6" x="825.5" y="229.5117"/><text fill="#000000" font-family="sans-serif" font-size="11" lengthAdjust="spacingAndGlyphs" textLength="79" x="837.5" y="234.8198">zoomIn(): void</text><rect fill="#F24D5C" height="6" style="stroke: #C82930; stroke-width: 1.0;" width="6" x="825.5" y="242.3164"/><text fill="#000000" font-family="sans-serif" font-size="11" lengthAdjust="spacingAndGlyphs" textLength="89" x="837.5" y="247.6245">zoomOut(): void</text><!--class JPanel--><rect fill="#FEFECE" filter="url(#flqz5fe)" height="73.6094" style="stroke: #A80036; stroke-width: 1.5;" width="224" x="422.5" y="8"/><ellipse cx="511.25" cy="24" fill="#ADD1B2" rx="11" ry="11" style="stroke: #A80036; stroke-width: 1.0;"/><path d="M513.5938,19.6719 L513.7656,19.75 C513.9844,19.4375 514.1875,19.3438 514.4844,19.3438 C514.7813,19.3438 515.0625,19.4844 515.2188,19.75 C515.3125,19.9063 515.3281,20.0313 515.3281,20.4688 L515.3281,21.8906 C515.3281,22.3125 515.2969,22.5 515.1875,22.6563 C515.0156,22.875 514.75,23.0156 514.4844,23.0156 C514.2656,23.0156 514.0313,22.9063 513.8906,22.7656 C513.75,22.6406 513.7188,22.5156 513.6563,22.1094 C513.5625,21.7031 513.3906,21.4844 512.9063,21.2031 C512.4375,20.9531 511.8281,20.7969 511.25,20.7969 C509.5156,20.7969 508.2656,22.1094 508.2656,23.8906 L508.2656,24.9844 C508.2656,26.6875 509.5625,27.7813 511.6094,27.7813 C512.375,27.7813 513.0625,27.6563 513.4844,27.3906 C513.6719,27.2969 513.6719,27.2969 514.125,26.8125 C514.3125,26.625 514.5156,26.5469 514.7344,26.5469 C515.2031,26.5469 515.5938,26.9375 515.5938,27.3906 C515.5938,27.7813 515.2656,28.2344 514.6875,28.6406 C513.9375,29.1875 512.7813,29.4844 511.5625,29.4844 C508.6719,29.4844 506.5625,27.5938 506.5625,25.0156 L506.5625,23.8906 C506.5625,21.1719 508.5625,19.0938 511.1875,19.0938 C512.0625,19.0938 512.6563,19.2344 513.5938,19.6719 Z "/><text fill="#000000" font-family="sans-serif" font-size="12" lengthAdjust="spacingAndGlyphs" textLength="38" x="531.75" y="28.1543">JPanel</text><line style="stroke: #A80036; stroke-width: 1.5;" x1="423.5" x2="645.5" y1="40" y2="40"/><line style="stroke: #A80036; stroke-width: 1.5;" x1="423.5" x2="645.5" y1="48" y2="48"/><ellipse cx="433.5" cy="59.9023" fill="#84BE84" rx="3" ry="3" style="stroke: #038048; stroke-width: 1.0;"/><text fill="#000000" font-family="sans-serif" font-size="11" lengthAdjust="spacingAndGlyphs" textLength="198" x="442.5" y="62.2104">paintComponent(g: Graphics): void</text><ellipse cx="433.5" cy="72.707" fill="#84BE84" rx="3" ry="3" style="stroke: #038048; stroke-width: 1.0;"/><text fill="#000000" font-family="sans-serif" font-size="11" lengthAdjust="spacingAndGlyphs" textLength="171" x="442.5" y="75.0151">getPreferredSize(): Dimension</text><!--class DrawingPanel--><rect fill="#FEFECE" filter="url(#flqz5fe)" height="112.0234" style="stroke: #A80036; stroke-width: 1.5;" width="259" x="387" y="148.5"/><ellipse cx="469.75" cy="164.5" fill="#ADD1B2" rx="11" ry="11" style="stroke: #A80036; stroke-width: 1.0;"/><path d="M472.0938,160.1719 L472.2656,160.25 C472.4844,159.9375 472.6875,159.8438 472.9844,159.8438 C473.2813,159.8438 473.5625,159.9844 473.7188,160.25 C473.8125,160.4063 473.8281,160.5313 473.8281,160.9688 L473.8281,162.3906 C473.8281,162.8125 473.7969,163 473.6875,163.1563 C473.5156,163.375 473.25,163.5156 472.9844,163.5156 C472.7656,163.5156 472.5313,163.4063 472.3906,163.2656 C472.25,163.1406 472.2188,163.0156 472.1563,162.6094 C472.0625,162.2031 471.8906,161.9844 471.4063,161.7031 C470.9375,161.4531 470.3281,161.2969 469.75,161.2969 C468.0156,161.2969 466.7656,162.6094 466.7656,164.3906 L466.7656,165.4844 C466.7656,167.1875 468.0625,168.2813 470.1094,168.2813 C470.875,168.2813 471.5625,168.1563 471.9844,167.8906 C472.1719,167.7969 472.1719,167.7969 472.625,167.3125 C472.8125,167.125 473.0156,167.0469 473.2344,167.0469 C473.7031,167.0469 474.0938,167.4375 474.0938,167.8906 C474.0938,168.2813 473.7656,168.7344 473.1875,169.1406 C472.4375,169.6875 471.2813,169.9844 470.0625,169.9844 C467.1719,169.9844 465.0625,168.0938 465.0625,165.5156 L465.0625,164.3906 C465.0625,161.6719 467.0625,159.5938 469.6875,159.5938 C470.5625,159.5938 471.1563,159.7344 472.0938,160.1719 Z "/><text fill="#000000" font-family="sans-serif" font-size="12" lengthAdjust="spacingAndGlyphs" textLength="85" x="490.25" y="168.6543">DrawingPanel</text><line style="stroke: #A80036; stroke-width: 1.5;" x1="388" x2="645" y1="180.5" y2="180.5"/><rect fill="none" height="6" style="stroke: #C82930; stroke-width: 1.0;" width="6" x="395" y="189.4023"/><text fill="#000000" font-family="sans-serif" font-size="11" lengthAdjust="spacingAndGlyphs" textLength="117" x="407" y="194.7104">dw: AbstractDrawing</text><line style="stroke: #A80036; stroke-width: 1.5;" x1="388" x2="645" y1="201.3047" y2="201.3047"/><ellipse cx="398" cy="213.207" fill="#84BE84" rx="3" ry="3" style="stroke: #038048; stroke-width: 1.0;"/><text fill="#000000" font-family="sans-serif" font-size="11" lengthAdjust="spacingAndGlyphs" textLength="211" x="407" y="215.5151">setDrawing(d: AbstractDrawing): void</text><ellipse cx="398" cy="226.0117" fill="#84BE84" rx="3" ry="3" style="stroke: #038048; stroke-width: 1.0;"/><text fill="#000000" font-family="sans-serif" font-size="11" lengthAdjust="spacingAndGlyphs" textLength="214" x="407" y="228.3198">@ paintComponent(g: Graphics): void</text><ellipse cx="398" cy="238.8164" fill="#84BE84" rx="3" ry="3" style="stroke: #038048; stroke-width: 1.0;"/><text fill="#000000" font-family="sans-serif" font-size="11" lengthAdjust="spacingAndGlyphs" textLength="187" x="407" y="241.1245">@ getPreferredSize(): Dimension</text><ellipse cx="398" cy="251.6211" fill="#84BE84" rx="3" ry="3" style="stroke: #038048; stroke-width: 1.0;"/><text fill="#000000" font-family="sans-serif" font-size="11" font-weight="bold" lengthAdjust="spacingAndGlyphs" textLength="233" x="407" y="253.9292">setScaleFactor(scaleFactor: double)</text><!--class AbstractDrawing--><rect fill="#FEFECE" filter="url(#flqz5fe)" height="124.8281" style="stroke: #A80036; stroke-width: 1.5;" width="206" x="128.5" y="142"/><ellipse cx="175.75" cy="158" fill="#A9DCDF" rx="11" ry="11" style="stroke: #A80036; stroke-width: 1.0;"/><path d="M177.3281,159.8125 L173.2813,159.8125 L172.8906,160.7969 L173.2813,160.7969 C173.7344,160.7969 173.875,160.8281 174.0469,160.9531 C174.2656,161.125 174.3906,161.375 174.3906,161.6563 C174.3906,161.9375 174.25,162.2344 173.9844,162.375 C173.8594,162.4688 173.6406,162.5 173.2813,162.5 L171.0156,162.5 C170.2656,162.5 169.8906,162.2188 169.8906,161.6563 C169.8906,161.3594 170.0469,161.0781 170.2969,160.9219 C170.4531,160.8125 170.6094,160.7969 171.0313,160.7969 L173.6719,154.2813 L172.5938,154.2813 C172.1563,154.2813 171.9844,154.25 171.8125,154.1406 C171.5938,153.9688 171.4531,153.7188 171.4531,153.4375 C171.4531,153.1563 171.6094,152.875 171.8594,152.7031 C172.0156,152.6094 172.1406,152.5938 172.5938,152.5938 L176.2656,152.5938 L179.6563,160.7969 C180.125,160.7969 180.2813,160.8281 180.4531,160.9688 C180.6719,161.125 180.8125,161.375 180.8125,161.6563 C180.8125,161.9375 180.6563,162.2344 180.4063,162.375 C180.2656,162.4688 180.0469,162.5 179.6875,162.5 L177.3281,162.5 C176.9063,162.5 176.7031,162.4531 176.5625,162.3281 C176.3438,162.1719 176.2031,161.9219 176.2031,161.6563 C176.2031,161.3594 176.3594,161.0781 176.6094,160.9219 C176.7656,160.8125 176.875,160.7969 177.3281,160.7969 L177.7188,160.7969 Z M176.625,158.1094 L175.2969,154.8438 L173.9531,158.1094 Z "/><text fill="#000000" font-family="sans-serif" font-size="12" font-style="italic" lengthAdjust="spacingAndGlyphs" textLength="103" x="196.25" y="162.1543">AbstractDrawing</text><line style="stroke: #A80036; stroke-width: 1.5;" x1="129.5" x2="333.5" y1="174" y2="174"/><polygon fill="none" points="139.5,180.9023,143.5,184.9023,139.5,188.9023,135.5,184.9023" style="stroke: #B38D22; stroke-width: 1.0;"/><text fill="#000000" font-family="sans-serif" font-size="11" lengthAdjust="spacingAndGlyphs" textLength="111" x="148.5" y="188.2104">scaleFactor: double</text><line style="stroke: #A80036; stroke-width: 1.5;" x1="129.5" x2="333.5" y1="194.8047" y2="194.8047"/><ellipse cx="139.5" cy="206.707" fill="#84BE84" rx="3" ry="3" style="stroke: #038048; stroke-width: 1.0;"/><text fill="#000000" font-family="sans-serif" font-size="11" lengthAdjust="spacingAndGlyphs" textLength="180" x="148.5" y="209.0151">setScaleFactor(sf: double): void</text><ellipse cx="139.5" cy="219.5117" fill="#84BE84" rx="3" ry="3" style="stroke: #038048; stroke-width: 1.0;"/><text fill="#000000" font-family="sans-serif" font-size="11" font-style="italic" lengthAdjust="spacingAndGlyphs" textLength="133" x="148.5" y="221.8198">draw(g: Graphics): void</text><ellipse cx="139.5" cy="232.3164" fill="#84BE84" rx="3" ry="3" style="stroke: #038048; stroke-width: 1.0;"/><text fill="#000000" font-family="sans-serif" font-size="11" font-style="italic" lengthAdjust="spacingAndGlyphs" textLength="126" x="148.5" y="234.6245">getDrawingWidth(): int</text><ellipse cx="139.5" cy="245.1211" fill="#84BE84" rx="3" ry="3" style="stroke: #038048; stroke-width: 1.0;"/><text fill="#000000" font-family="sans-serif" font-size="11" font-style="italic" lengthAdjust="spacingAndGlyphs" textLength="130" x="148.5" y="247.4292">getDrawingHeight(): int</text><polygon fill="#FFFF44" points="139.5,252.9258,143.5,256.9258,139.5,260.9258,135.5,256.9258" style="stroke: #B38D22; stroke-width: 1.0;"/><text fill="#000000" font-family="sans-serif" font-size="11" font-style="italic" lengthAdjust="spacingAndGlyphs" textLength="127" x="148.5" y="260.2339">rescaleDrawing(): void</text><!--class ConcreteDrawing--><rect fill="#FEFECE" filter="url(#flqz5fe)" height="99.2188" style="stroke: #A80036; stroke-width: 1.5;" width="175" x="144" y="624"/><ellipse cx="175.2" cy="640" fill="#ADD1B2" rx="11" ry="11" style="stroke: #A80036; stroke-width: 1.0;"/><path d="M177.5438,635.6719 L177.7156,635.75 C177.9344,635.4375 178.1375,635.3438 178.4344,635.3438 C178.7313,635.3438 179.0125,635.4844 179.1688,635.75 C179.2625,635.9063 179.2781,636.0313 179.2781,636.4688 L179.2781,637.8906 C179.2781,638.3125 179.2469,638.5 179.1375,638.6563 C178.9656,638.875 178.7,639.0156 178.4344,639.0156 C178.2156,639.0156 177.9813,638.9063 177.8406,638.7656 C177.7,638.6406 177.6688,638.5156 177.6063,638.1094 C177.5125,637.7031 177.3406,637.4844 176.8563,637.2031 C176.3875,636.9531 175.7781,636.7969 175.2,636.7969 C173.4656,636.7969 172.2156,638.1094 172.2156,639.8906 L172.2156,640.9844 C172.2156,642.6875 173.5125,643.7813 175.5594,643.7813 C176.325,643.7813 177.0125,643.6563 177.4344,643.3906 C177.6219,643.2969 177.6219,643.2969 178.075,642.8125 C178.2625,642.625 178.4656,642.5469 178.6844,642.5469 C179.1531,642.5469 179.5438,642.9375 179.5438,643.3906 C179.5438,643.7813 179.2156,644.2344 178.6375,644.6406 C177.8875,645.1875 176.7313,645.4844 175.5125,645.4844 C172.6219,645.4844 170.5125,643.5938 170.5125,641.0156 L170.5125,639.8906 C170.5125,637.1719 172.5125,635.0938 175.1375,635.0938 C176.0125,635.0938 176.6063,635.2344 177.5438,635.6719 Z "/><text fill="#000000" font-family="sans-serif" font-size="12" lengthAdjust="spacingAndGlyphs" textLength="107" x="192.8" y="644.1543">ConcreteDrawing</text><line style="stroke: #A80036; stroke-width: 1.5;" x1="145" x2="318" y1="656" y2="656"/><line style="stroke: #A80036; stroke-width: 1.5;" x1="145" x2="318" y1="664" y2="664"/><ellipse cx="155" cy="675.9023" fill="#84BE84" rx="3" ry="3" style="stroke: #038048; stroke-width: 1.0;"/><text fill="#000000" font-family="sans-serif" font-size="11" lengthAdjust="spacingAndGlyphs" textLength="149" x="164" y="678.2104">@ draw(g: Graphics): void</text><ellipse cx="155" cy="688.707" fill="#84BE84" rx="3" ry="3" style="stroke: #038048; stroke-width: 1.0;"/><text fill="#000000" font-family="sans-serif" font-size="11" lengthAdjust="spacingAndGlyphs" textLength="140" x="164" y="691.0151">@ getDrawingWidth(): int</text><ellipse cx="155" cy="701.5117" fill="#84BE84" rx="3" ry="3" style="stroke: #038048; stroke-width: 1.0;"/><text fill="#000000" font-family="sans-serif" font-size="11" lengthAdjust="spacingAndGlyphs" textLength="146" x="164" y="703.8198">@ getDrawingHeight(): int</text><polygon fill="#FFFF44" points="155,709.3164,159,713.3164,155,717.3164,151,713.3164" style="stroke: #B38D22; stroke-width: 1.0;"/><text fill="#000000" font-family="sans-serif" font-size="11" lengthAdjust="spacingAndGlyphs" textLength="143" x="164" y="716.6245">@ rescaleDrawing(): void</text><polygon fill="#FFA500" filter="url(#flqz5fe)" points="327.5,418,327.5,473.3984,705.5,473.3984,705.5,428,695.5,418,327.5,418" style="stroke: #A80036; stroke-width: 1.0;"/><polygon fill="#FFA500" points="327.5,418,327.5,473.3984,705.5,473.3984,705.5,428,695.5,418,520.5,418,516.5,260.632,512.5,418,327.5,418" style="stroke: #A80036; stroke-width: 1.0;"/><line style="stroke: #A80036; stroke-width: 1.0;" x1="695.5" x2="695.5" y1="418" y2="428"/><line style="stroke: #A80036; stroke-width: 1.0;" x1="705.5" x2="695.5" y1="428" y2="428"/><text fill="#000000" font-family="sans-serif" font-size="13" font-weight="bold" lengthAdjust="spacingAndGlyphs" textLength="345" x="333.5" y="435.0669">public void setScaleFactor(double scalefactor)</text><text fill="#000000" font-family="sans-serif" font-size="13" lengthAdjust="spacingAndGlyphs" textLength="8" x="682.5" y="435.0669">{</text><text fill="#000000" font-family="sans-serif" font-size="13" lengthAdjust="spacingAndGlyphs" textLength="203" x="341.5" y="450.1997">dw.setScaleFactor(scaleFactor);</text><text fill="#000000" font-family="sans-serif" font-size="13" lengthAdjust="spacingAndGlyphs" textLength="8" x="333.5" y="465.3325">}</text><polygon fill="#FFA500" filter="url(#flqz5fe)" points="6,9.5,6,80.0313,387,80.0313,387,19.5,377,9.5,6,9.5" style="stroke: #A80036; stroke-width: 1.0;"/><polygon fill="#FFA500" points="6,9.5,6,80.0313,200.181,80.0313,217.773,141.73,208.181,80.0313,387,80.0313,387,19.5,377,9.5,6,9.5" style="stroke: #A80036; stroke-width: 1.0;"/><line style="stroke: #A80036; stroke-width: 1.0;" x1="377" x2="377" y1="9.5" y2="19.5"/><line style="stroke: #A80036; stroke-width: 1.0;" x1="387" x2="377" y1="19.5" y2="19.5"/><text fill="#000000" font-family="sans-serif" font-size="13" font-weight="bold" lengthAdjust="spacingAndGlyphs" textLength="348" x="12" y="26.5669">public void setScaleFactor(double scaleFactor)</text><text fill="#000000" font-family="sans-serif" font-size="13" lengthAdjust="spacingAndGlyphs" textLength="8" x="364" y="26.5669">{</text><text fill="#000000" font-family="sans-serif" font-size="13" lengthAdjust="spacingAndGlyphs" textLength="196" x="20" y="41.6997">this.scaleFactor = scaleFactor;</text><text fill="#000000" font-family="sans-serif" font-size="13" lengthAdjust="spacingAndGlyphs" textLength="111" x="20" y="56.8325">rescaleDrawing();</text><text fill="#000000" font-family="sans-serif" font-size="13" lengthAdjust="spacingAndGlyphs" textLength="8" x="12" y="71.9653">}</text><polygon fill="#FFA500" filter="url(#flqz5fe)" points="354,646,354,701.3984,627,701.3984,627,656,617,646,354,646" style="stroke: #A80036; stroke-width: 1.0;"/><polygon fill="#FFA500" points="354,646,354,669.5,319.014,673.5,354,677.5,354,701.3984,627,701.3984,627,656,617,646,354,646" style="stroke: #A80036; stroke-width: 1.0;"/><line style="stroke: #A80036; stroke-width: 1.0;" x1="617" x2="617" y1="646" y2="656"/><line style="stroke: #A80036; stroke-width: 1.0;" x1="627" x2="617" y1="656" y2="656"/><text fill="#000000" font-family="sans-serif" font-size="13" font-weight="bold" lengthAdjust="spacingAndGlyphs" textLength="240" x="360" y="663.0669">protected void rescaleDrawing()</text><text fill="#000000" font-family="sans-serif" font-size="13" lengthAdjust="spacingAndGlyphs" textLength="8" x="604" y="663.0669">{</text><text fill="#000000" font-family="sans-serif" font-size="13" lengthAdjust="spacingAndGlyphs" textLength="0" x="368" y="678.1997"/><text fill="#000000" font-family="sans-serif" font-size="13" font-style="italic" lengthAdjust="spacingAndGlyphs" textLength="212" x="368" y="678.1997">//update the drawing coordinates</text><text fill="#000000" font-family="sans-serif" font-size="13" lengthAdjust="spacingAndGlyphs" textLength="8" x="360" y="693.3325">}</text><polygon fill="#FFA500" filter="url(#flqz5fe)" points="750,327,750,563.9922,1183,563.9922,1183,337,1173,327,750,327" style="stroke: #A80036; stroke-width: 1.0;"/><polygon fill="#FFA500" points="750,327,750,563.9922,1183,563.9922,1183,337,1173,327,970.5,327,966.5,254.153,962.5,327,750,327" style="stroke: #A80036; stroke-width: 1.0;"/><line style="stroke: #A80036; stroke-width: 1.0;" x1="1173" x2="1173" y1="327" y2="337"/><line style="stroke: #A80036; stroke-width: 1.0;" x1="1183" x2="1173" y1="337" y2="337"/><text fill="#000000" font-family="sans-serif" font-size="13" font-weight="bold" lengthAdjust="spacingAndGlyphs" textLength="323" x="756" y="344.0669">public void actionPerformed(ActionEvent e)</text><text fill="#000000" font-family="sans-serif" font-size="13" lengthAdjust="spacingAndGlyphs" textLength="8" x="1083" y="344.0669">{</text><text fill="#000000" font-family="sans-serif" font-size="13" lengthAdjust="spacingAndGlyphs" textLength="243" x="764" y="359.1997">String cmd = e.getActionCommand();</text><text fill="#000000" font-family="sans-serif" font-size="13" lengthAdjust="spacingAndGlyphs" textLength="12" x="764" y="374.3325">...</text><text fill="#000000" font-family="sans-serif" font-size="13" lengthAdjust="spacingAndGlyphs" textLength="0" x="764" y="389.4653"/><text fill="#000000" font-family="sans-serif" font-size="13" font-style="italic" lengthAdjust="spacingAndGlyphs" textLength="134" x="764" y="389.4653">//Handle each button</text><text fill="#000000" font-family="sans-serif" font-size="13" lengthAdjust="spacingAndGlyphs" textLength="178" x="764" y="404.5981">if (ZOOM_IN.equals(cmd)) {</text><text fill="#000000" font-family="sans-serif" font-size="13" font-style="italic" lengthAdjust="spacingAndGlyphs" textLength="168" x="946" y="404.5981">// "zoom in" button clicked</text><text fill="#000000" font-family="sans-serif" font-size="13" lengthAdjust="spacingAndGlyphs" textLength="61" x="772" y="419.731">zoomIn();</text><text fill="#000000" font-family="sans-serif" font-size="13" lengthAdjust="spacingAndGlyphs" textLength="146" x="772" y="434.8638">drawPanel.revalidate();</text><text fill="#000000" font-family="sans-serif" font-size="13" lengthAdjust="spacingAndGlyphs" textLength="128" x="772" y="449.9966">drawPanel.repaint();</text><text fill="#000000" font-family="sans-serif" font-size="13" lengthAdjust="spacingAndGlyphs" textLength="8" x="764" y="465.1294">}</text><text fill="#000000" font-family="sans-serif" font-size="13" lengthAdjust="spacingAndGlyphs" textLength="222" x="764" y="480.2622">else if (ZOOM_OUT.equals(cmd)) {</text><text fill="#000000" font-family="sans-serif" font-size="13" font-style="italic" lengthAdjust="spacingAndGlyphs" textLength="178" x="990" y="480.2622">// "zoom out" button clicked</text><text fill="#000000" font-family="sans-serif" font-size="13" lengthAdjust="spacingAndGlyphs" textLength="73" x="772" y="495.395">zoomOut();</text><text fill="#000000" font-family="sans-serif" font-size="13" lengthAdjust="spacingAndGlyphs" textLength="146" x="772" y="510.5278">drawPanel.revalidate();</text><text fill="#000000" font-family="sans-serif" font-size="13" lengthAdjust="spacingAndGlyphs" textLength="128" x="772" y="525.6606">drawPanel.repaint();</text><text fill="#000000" font-family="sans-serif" font-size="13" lengthAdjust="spacingAndGlyphs" textLength="8" x="764" y="540.7935">}</text><text fill="#000000" font-family="sans-serif" font-size="13" lengthAdjust="spacingAndGlyphs" textLength="8" x="756" y="555.9263">}</text><path d="M894.419,86.461 C907.25,107.295 922.99,132.853 936.485,154.765 " fill="none" style="stroke: #A80036; stroke-width: 1.0;"/><polygon fill="none" points="888.34,89.94,883.813,69.24,900.261,82.598,888.34,89.94" style="stroke: #A80036; stroke-width: 1.0;"/><path d="M1032.18,95.739 C1020.7,114.582 1007.64,136.001 996.213,154.751 " fill="none" style="stroke: #A80036; stroke-width: 1.0; stroke-dasharray: 7.0,7.0;"/><polygon fill="none" points="1026.22,92.069,1042.61,78.634,1038.18,99.355,1026.22,92.069" style="stroke: #A80036; stroke-width: 1.0;"/><path d="M528.097,102.025 C526.376,117.089 524.515,133.366 522.799,148.38 " fill="none" style="stroke: #A80036; stroke-width: 1.0;"/><polygon fill="none" points="521.145,101.209,530.37,82.134,535.054,102.799,521.145,101.209" style="stroke: #A80036; stroke-width: 1.0;"/><path d="M231.5,287.116 C231.5,384.518 231.5,544.206 231.5,623.9748 " fill="none" style="stroke: #A80036; stroke-width: 1.0;"/><polygon fill="none" points="224.5,287.032,231.5,267.032,238.5,287.032,224.5,287.032" style="stroke: #A80036; stroke-width: 1.0;"/><path d="M340.056,204.5 C355.683,204.5 371.31,204.5 386.937,204.5 " fill="none" style="stroke: #A80036; stroke-width: 1.0;"/><polygon fill="#A80036" points="334.757,204.5,343.757,208.5,339.757,204.5,343.757,200.5,334.757,204.5" style="stroke: #A80036; stroke-width: 1.0;"/><path d="M651.396,204.5 C661.226,204.5 671.056,204.5 680.886,204.5 " fill="none" style="stroke: #A80036; stroke-width: 1.0;"/><polygon fill="#A80036" points="646.256,204.5,655.256,208.5,651.256,204.5,655.256,200.5,646.256,204.5" style="stroke: #A80036; stroke-width: 1.0;"/><path d="M787.623,204.5 C797.521,204.5 807.419,204.5 817.317,204.5 " fill="none" style="stroke: #A80036; stroke-width: 1.0;"/><polygon fill="#A80036" points="782.447,204.5,791.447,208.5,787.447,204.5,791.447,200.5,782.447,204.5" style="stroke: #A80036; stroke-width: 1.0;"/></g></svg>