<?xml version="1.0" encoding="UTF-8" standalone="no"?><svg xmlns="http://www.w3.org/2000/svg" xmlns:xlink="http://www.w3.org/1999/xlink" contentScriptType="application/ecmascript" contentStyleType="text/css" height="485px" preserveAspectRatio="none" style="width:790px;height:485px;" version="1.1" viewBox="0 0 790 485" width="790px" zoomAndPan="magnify"><defs><filter height="300%" id="fr751nj" width="300%" x="-1" y="-1"><feGaussianBlur result="blurOut" stdDeviation="2.0"/><feColorMatrix in="blurOut" result="blurOut2" type="matrix" values="0 0 0 0 0 0 0 0 0 0 0 0 0 0 0 0 0 0 .4 0"/><feOffset dx="4.0" dy="4.0" in="blurOut2" result="blurOut3"/><feBlend in="SourceGraphic" in2="blurOut3" mode="normal"/></filter></defs><g><!--class JFrame--><rect fill="#FEFECE" filter="url(#fr751nj)" height="48" style="stroke: #A80036; stroke-width: 1.5;" width="74" x="595.5" y="14.5"/><ellipse cx="610.5" cy="30.5" fill="#ADD1B2" rx="11" ry="11" style="stroke: #A80036; stroke-width: 1.0;"/><path d="M612.8438,26.1719 L613.0156,26.25 C613.2344,25.9375 613.4375,25.8438 613.7344,25.8438 C614.0313,25.8438 614.3125,25.9844 614.4688,26.25 C614.5625,26.4063 614.5781,26.5313 614.5781,26.9688 L614.5781,28.3906 C614.5781,28.8125 614.5469,29 614.4375,29.1563 C614.2656,29.375 614,29.5156 613.7344,29.5156 C613.5156,29.5156 613.2813,29.4063 613.1406,29.2656 C613,29.1406 612.9688,29.0156 612.9063,28.6094 C612.8125,28.2031 612.6406,27.9844 612.1563,27.7031 C611.6875,27.4531 611.0781,27.2969 610.5,27.2969 C608.7656,27.2969 607.5156,28.6094 607.5156,30.3906 L607.5156,31.4844 C607.5156,33.1875 608.8125,34.2813 610.8594,34.2813 C611.625,34.2813 612.3125,34.1563 612.7344,33.8906 C612.9219,33.7969 612.9219,33.7969 613.375,33.3125 C613.5625,33.125 613.7656,33.0469 613.9844,33.0469 C614.4531,33.0469 614.8438,33.4375 614.8438,33.8906 C614.8438,34.2813 614.5156,34.7344 613.9375,35.1406 C613.1875,35.6875 612.0313,35.9844 610.8125,35.9844 C607.9219,35.9844 605.8125,34.0938 605.8125,31.5156 L605.8125,30.3906 C605.8125,27.6719 607.8125,25.5938 610.4375,25.5938 C611.3125,25.5938 611.9063,25.7344 612.8438,26.1719 Z "/><text fill="#000000" font-family="sans-serif" font-size="12" lengthAdjust="spacingAndGlyphs" textLength="42" x="624.5" y="34.6543">JFrame</text><line style="stroke: #A80036; stroke-width: 1.5;" x1="596.5" x2="668.5" y1="46.5" y2="46.5"/><line style="stroke: #A80036; stroke-width: 1.5;" x1="596.5" x2="668.5" y1="54.5" y2="54.5"/><!--class DrawingGUI--><rect fill="#FEFECE" filter="url(#fr751nj)" height="60.8047" style="stroke: #A80036; stroke-width: 1.5;" width="298" x="483.5" y="141.5"/><ellipse cx="592.75" cy="157.5" fill="#ADD1B2" rx="11" ry="11" style="stroke: #A80036; stroke-width: 1.0;"/><path d="M595.0938,153.1719 L595.2656,153.25 C595.4844,152.9375 595.6875,152.8438 595.9844,152.8438 C596.2813,152.8438 596.5625,152.9844 596.7188,153.25 C596.8125,153.4063 596.8281,153.5313 596.8281,153.9688 L596.8281,155.3906 C596.8281,155.8125 596.7969,156 596.6875,156.1563 C596.5156,156.375 596.25,156.5156 595.9844,156.5156 C595.7656,156.5156 595.5313,156.4063 595.3906,156.2656 C595.25,156.1406 595.2188,156.0156 595.1563,155.6094 C595.0625,155.2031 594.8906,154.9844 594.4063,154.7031 C593.9375,154.4531 593.3281,154.2969 592.75,154.2969 C591.0156,154.2969 589.7656,155.6094 589.7656,157.3906 L589.7656,158.4844 C589.7656,160.1875 591.0625,161.2813 593.1094,161.2813 C593.875,161.2813 594.5625,161.1563 594.9844,160.8906 C595.1719,160.7969 595.1719,160.7969 595.625,160.3125 C595.8125,160.125 596.0156,160.0469 596.2344,160.0469 C596.7031,160.0469 597.0938,160.4375 597.0938,160.8906 C597.0938,161.2813 596.7656,161.7344 596.1875,162.1406 C595.4375,162.6875 594.2813,162.9844 593.0625,162.9844 C590.1719,162.9844 588.0625,161.0938 588.0625,158.5156 L588.0625,157.3906 C588.0625,154.6719 590.0625,152.5938 592.6875,152.5938 C593.5625,152.5938 594.1563,152.7344 595.0938,153.1719 Z "/><text fill="#000000" font-family="sans-serif" font-size="12" lengthAdjust="spacingAndGlyphs" textLength="71" x="613.25" y="161.6543">DrawingGUI</text><line style="stroke: #A80036; stroke-width: 1.5;" x1="484.5" x2="780.5" y1="173.5" y2="173.5"/><line style="stroke: #A80036; stroke-width: 1.5;" x1="484.5" x2="780.5" y1="181.5" y2="181.5"/><ellipse cx="494.5" cy="193.4023" fill="#84BE84" rx="3" ry="3" style="stroke: #038048; stroke-width: 1.0;"/><text fill="#000000" font-family="sans-serif" font-size="11" lengthAdjust="spacingAndGlyphs" textLength="272" x="503.5" y="195.7104">c DrawingGUI(title: String, dw: AbstractDrawing)</text><!--class JPanel--><rect fill="#FEFECE" filter="url(#fr751nj)" height="60.8047" style="stroke: #A80036; stroke-width: 1.5;" width="224" x="216.5" y="8"/><ellipse cx="305.25" cy="24" fill="#ADD1B2" rx="11" ry="11" style="stroke: #A80036; stroke-width: 1.0;"/><path d="M307.5938,19.6719 L307.7656,19.75 C307.9844,19.4375 308.1875,19.3438 308.4844,19.3438 C308.7813,19.3438 309.0625,19.4844 309.2188,19.75 C309.3125,19.9063 309.3281,20.0313 309.3281,20.4688 L309.3281,21.8906 C309.3281,22.3125 309.2969,22.5 309.1875,22.6563 C309.0156,22.875 308.75,23.0156 308.4844,23.0156 C308.2656,23.0156 308.0313,22.9063 307.8906,22.7656 C307.75,22.6406 307.7188,22.5156 307.6563,22.1094 C307.5625,21.7031 307.3906,21.4844 306.9063,21.2031 C306.4375,20.9531 305.8281,20.7969 305.25,20.7969 C303.5156,20.7969 302.2656,22.1094 302.2656,23.8906 L302.2656,24.9844 C302.2656,26.6875 303.5625,27.7813 305.6094,27.7813 C306.375,27.7813 307.0625,27.6563 307.4844,27.3906 C307.6719,27.2969 307.6719,27.2969 308.125,26.8125 C308.3125,26.625 308.5156,26.5469 308.7344,26.5469 C309.2031,26.5469 309.5938,26.9375 309.5938,27.3906 C309.5938,27.7813 309.2656,28.2344 308.6875,28.6406 C307.9375,29.1875 306.7813,29.4844 305.5625,29.4844 C302.6719,29.4844 300.5625,27.5938 300.5625,25.0156 L300.5625,23.8906 C300.5625,21.1719 302.5625,19.0938 305.1875,19.0938 C306.0625,19.0938 306.6563,19.2344 307.5938,19.6719 Z "/><text fill="#000000" font-family="sans-serif" font-size="12" lengthAdjust="spacingAndGlyphs" textLength="38" x="325.75" y="28.1543">JPanel</text><line style="stroke: #A80036; stroke-width: 1.5;" x1="217.5" x2="439.5" y1="40" y2="40"/><line style="stroke: #A80036; stroke-width: 1.5;" x1="217.5" x2="439.5" y1="48" y2="48"/><ellipse cx="227.5" cy="59.9023" fill="#84BE84" rx="3" ry="3" style="stroke: #038048; stroke-width: 1.0;"/><text fill="#000000" font-family="sans-serif" font-size="11" lengthAdjust="spacingAndGlyphs" textLength="198" x="236.5" y="62.2104">paintComponent(g: Graphics): void</text><!--class DrawingPanel--><rect fill="#FEFECE" filter="url(#fr751nj)" height="86.4141" style="stroke: #A80036; stroke-width: 1.5;" width="240" x="208.5" y="129"/><ellipse cx="281.75" cy="145" fill="#ADD1B2" rx="11" ry="11" style="stroke: #A80036; stroke-width: 1.0;"/><path d="M284.0938,140.6719 L284.2656,140.75 C284.4844,140.4375 284.6875,140.3438 284.9844,140.3438 C285.2813,140.3438 285.5625,140.4844 285.7188,140.75 C285.8125,140.9063 285.8281,141.0313 285.8281,141.4688 L285.8281,142.8906 C285.8281,143.3125 285.7969,143.5 285.6875,143.6563 C285.5156,143.875 285.25,144.0156 284.9844,144.0156 C284.7656,144.0156 284.5313,143.9063 284.3906,143.7656 C284.25,143.6406 284.2188,143.5156 284.1563,143.1094 C284.0625,142.7031 283.8906,142.4844 283.4063,142.2031 C282.9375,141.9531 282.3281,141.7969 281.75,141.7969 C280.0156,141.7969 278.7656,143.1094 278.7656,144.8906 L278.7656,145.9844 C278.7656,147.6875 280.0625,148.7813 282.1094,148.7813 C282.875,148.7813 283.5625,148.6563 283.9844,148.3906 C284.1719,148.2969 284.1719,148.2969 284.625,147.8125 C284.8125,147.625 285.0156,147.5469 285.2344,147.5469 C285.7031,147.5469 286.0938,147.9375 286.0938,148.3906 C286.0938,148.7813 285.7656,149.2344 285.1875,149.6406 C284.4375,150.1875 283.2813,150.4844 282.0625,150.4844 C279.1719,150.4844 277.0625,148.5938 277.0625,146.0156 L277.0625,144.8906 C277.0625,142.1719 279.0625,140.0938 281.6875,140.0938 C282.5625,140.0938 283.1563,140.2344 284.0938,140.6719 Z "/><text fill="#000000" font-family="sans-serif" font-size="12" lengthAdjust="spacingAndGlyphs" textLength="85" x="302.25" y="149.1543">DrawingPanel</text><line style="stroke: #A80036; stroke-width: 1.5;" x1="209.5" x2="447.5" y1="161" y2="161"/><rect fill="none" height="6" style="stroke: #C82930; stroke-width: 1.0;" width="6" x="216.5" y="169.9023"/><text fill="#000000" font-family="sans-serif" font-size="11" lengthAdjust="spacingAndGlyphs" textLength="117" x="228.5" y="175.2104">dw: AbstractDrawing</text><line style="stroke: #A80036; stroke-width: 1.5;" x1="209.5" x2="447.5" y1="181.8047" y2="181.8047"/><ellipse cx="219.5" cy="193.707" fill="#84BE84" rx="3" ry="3" style="stroke: #038048; stroke-width: 1.0;"/><text fill="#000000" font-family="sans-serif" font-size="11" lengthAdjust="spacingAndGlyphs" textLength="211" x="228.5" y="196.0151">setDrawing(d: AbstractDrawing): void</text><ellipse cx="219.5" cy="206.5117" fill="#84BE84" rx="3" ry="3" style="stroke: #038048; stroke-width: 1.0;"/><text fill="#000000" font-family="sans-serif" font-size="11" lengthAdjust="spacingAndGlyphs" textLength="214" x="228.5" y="208.8198">@ paintComponent(g: Graphics): void</text><!--class AbstractDrawing--><rect fill="#FEFECE" filter="url(#fr751nj)" height="60.8047" style="stroke: #A80036; stroke-width: 1.5;" width="159" x="14" y="141.5"/><ellipse cx="39.8" cy="157.5" fill="#A9DCDF" rx="11" ry="11" style="stroke: #A80036; stroke-width: 1.0;"/><path d="M41.3781,159.3125 L37.3313,159.3125 L36.9406,160.2969 L37.3313,160.2969 C37.7844,160.2969 37.925,160.3281 38.0969,160.4531 C38.3156,160.625 38.4406,160.875 38.4406,161.1563 C38.4406,161.4375 38.3,161.7344 38.0344,161.875 C37.9094,161.9688 37.6906,162 37.3313,162 L35.0656,162 C34.3156,162 33.9406,161.7188 33.9406,161.1563 C33.9406,160.8594 34.0969,160.5781 34.3469,160.4219 C34.5031,160.3125 34.6594,160.2969 35.0813,160.2969 L37.7219,153.7813 L36.6438,153.7813 C36.2063,153.7813 36.0344,153.75 35.8625,153.6406 C35.6438,153.4688 35.5031,153.2188 35.5031,152.9375 C35.5031,152.6563 35.6594,152.375 35.9094,152.2031 C36.0656,152.1094 36.1906,152.0938 36.6438,152.0938 L40.3156,152.0938 L43.7063,160.2969 C44.175,160.2969 44.3313,160.3281 44.5031,160.4688 C44.7219,160.625 44.8625,160.875 44.8625,161.1563 C44.8625,161.4375 44.7063,161.7344 44.4563,161.875 C44.3156,161.9688 44.0969,162 43.7375,162 L41.3781,162 C40.9563,162 40.7531,161.9531 40.6125,161.8281 C40.3938,161.6719 40.2531,161.4219 40.2531,161.1563 C40.2531,160.8594 40.4094,160.5781 40.6594,160.4219 C40.8156,160.3125 40.925,160.2969 41.3781,160.2969 L41.7688,160.2969 Z M40.675,157.6094 L39.3469,154.3438 L38.0031,157.6094 Z "/><text fill="#000000" font-family="sans-serif" font-size="12" font-style="italic" lengthAdjust="spacingAndGlyphs" textLength="103" x="56.2" y="161.6543">AbstractDrawing</text><line style="stroke: #A80036; stroke-width: 1.5;" x1="15" x2="172" y1="173.5" y2="173.5"/><line style="stroke: #A80036; stroke-width: 1.5;" x1="15" x2="172" y1="181.5" y2="181.5"/><ellipse cx="25" cy="193.4023" fill="#84BE84" rx="3" ry="3" style="stroke: #038048; stroke-width: 1.0;"/><text fill="#000000" font-family="sans-serif" font-size="11" font-style="italic" lengthAdjust="spacingAndGlyphs" textLength="133" x="34" y="195.7104">draw(g: Graphics): void</text><!--class ConcreteDrawing--><rect fill="#FEFECE" filter="url(#fr751nj)" height="60.8047" style="stroke: #A80036; stroke-width: 1.5;" width="175" x="6" y="411"/><ellipse cx="37.2" cy="427" fill="#ADD1B2" rx="11" ry="11" style="stroke: #A80036; stroke-width: 1.0;"/><path d="M39.5438,422.6719 L39.7156,422.75 C39.9344,422.4375 40.1375,422.3438 40.4344,422.3438 C40.7313,422.3438 41.0125,422.4844 41.1688,422.75 C41.2625,422.9063 41.2781,423.0313 41.2781,423.4688 L41.2781,424.8906 C41.2781,425.3125 41.2469,425.5 41.1375,425.6563 C40.9656,425.875 40.7,426.0156 40.4344,426.0156 C40.2156,426.0156 39.9813,425.9063 39.8406,425.7656 C39.7,425.6406 39.6688,425.5156 39.6063,425.1094 C39.5125,424.7031 39.3406,424.4844 38.8563,424.2031 C38.3875,423.9531 37.7781,423.7969 37.2,423.7969 C35.4656,423.7969 34.2156,425.1094 34.2156,426.8906 L34.2156,427.9844 C34.2156,429.6875 35.5125,430.7813 37.5594,430.7813 C38.325,430.7813 39.0125,430.6563 39.4344,430.3906 C39.6219,430.2969 39.6219,430.2969 40.075,429.8125 C40.2625,429.625 40.4656,429.5469 40.6844,429.5469 C41.1531,429.5469 41.5438,429.9375 41.5438,430.3906 C41.5438,430.7813 41.2156,431.2344 40.6375,431.6406 C39.8875,432.1875 38.7313,432.4844 37.5125,432.4844 C34.6219,432.4844 32.5125,430.5938 32.5125,428.0156 L32.5125,426.8906 C32.5125,424.1719 34.5125,422.0938 37.1375,422.0938 C38.0125,422.0938 38.6063,422.2344 39.5438,422.6719 Z "/><text fill="#000000" font-family="sans-serif" font-size="12" lengthAdjust="spacingAndGlyphs" textLength="107" x="54.8" y="431.1543">ConcreteDrawing</text><line style="stroke: #A80036; stroke-width: 1.5;" x1="7" x2="180" y1="443" y2="443"/><line style="stroke: #A80036; stroke-width: 1.5;" x1="7" x2="180" y1="451" y2="451"/><ellipse cx="17" cy="462.9023" fill="#84BE84" rx="3" ry="3" style="stroke: #038048; stroke-width: 1.0;"/><text fill="#000000" font-family="sans-serif" font-size="11" lengthAdjust="spacingAndGlyphs" textLength="149" x="26" y="465.2104">@ draw(g: Graphics): void</text><polygon fill="#FFA500" filter="url(#fr751nj)" points="184,275,184,345.5313,473,345.5313,473,285,463,275,184,275" style="stroke: #A80036; stroke-width: 1.0;"/><polygon fill="#FFA500" points="184,275,184,345.5313,473,345.5313,473,285,463,275,332.5,275,328.5,215.068,324.5,275,184,275" style="stroke: #A80036; stroke-width: 1.0;"/><line style="stroke: #A80036; stroke-width: 1.0;" x1="463" x2="463" y1="275" y2="285"/><line style="stroke: #A80036; stroke-width: 1.0;" x1="473" x2="463" y1="285" y2="285"/><text fill="#000000" font-family="sans-serif" font-size="13" lengthAdjust="spacingAndGlyphs" textLength="268" x="190" y="292.0669">public void paintComponent(Graphics g) {</text><text fill="#000000" font-family="sans-serif" font-size="13" lengthAdjust="spacingAndGlyphs" textLength="169" x="198" y="307.1997">super.paintComponent(g);</text><text fill="#000000" font-family="sans-serif" font-size="13" lengthAdjust="spacingAndGlyphs" textLength="0" x="198" y="322.3325"/><text fill="#000000" font-family="sans-serif" font-size="13" font-weight="bold" lengthAdjust="spacingAndGlyphs" textLength="91" x="198" y="322.3325">dw.draw(g);</text><text fill="#000000" font-family="sans-serif" font-size="13" lengthAdjust="spacingAndGlyphs" textLength="8" x="190" y="337.4653">}</text><polygon fill="#FFA500" filter="url(#fr751nj)" points="216,406,216,476.5313,515,476.5313,515,416,505,406,216,406" style="stroke: #A80036; stroke-width: 1.0;"/><polygon fill="#FFA500" points="216,406,216,437.5,181.156,441.5,216,445.5,216,476.5313,515,476.5313,515,416,505,406,216,406" style="stroke: #A80036; stroke-width: 1.0;"/><line style="stroke: #A80036; stroke-width: 1.0;" x1="505" x2="505" y1="406" y2="416"/><line style="stroke: #A80036; stroke-width: 1.0;" x1="515" x2="505" y1="416" y2="416"/><text fill="#000000" font-family="sans-serif" font-size="13" lengthAdjust="spacingAndGlyphs" textLength="191" x="222" y="423.0669">public void draw(Graphics g) {</text><text fill="#000000" font-family="sans-serif" font-size="13" lengthAdjust="spacingAndGlyphs" textLength="213" x="230" y="438.1997">Graphics2D g2d = (Graphics2D)g</text><text fill="#000000" font-family="sans-serif" font-size="13" lengthAdjust="spacingAndGlyphs" textLength="0" x="230" y="453.3325"/><text fill="#000000" font-family="sans-serif" font-size="13" font-style="italic" lengthAdjust="spacingAndGlyphs" textLength="270" x="230" y="453.3325">//add instructions for your specific drawing</text><text fill="#000000" font-family="sans-serif" font-size="13" lengthAdjust="spacingAndGlyphs" textLength="8" x="222" y="468.4653">}</text><path d="M632.5,82.969 C632.5,102.024 632.5,123.911 632.5,141.094 " fill="none" style="stroke: #A80036; stroke-width: 1.0;"/><polygon fill="none" points="625.5,82.707,632.5,62.707,639.5,82.707,625.5,82.707" style="stroke: #A80036; stroke-width: 1.0;"/><path d="M328.5,89.138 C328.5,102.225 328.5,116.22 328.5,128.869 " fill="none" style="stroke: #A80036; stroke-width: 1.0;"/><polygon fill="none" points="321.5,89.011,328.5,69.011,335.5,89.011,321.5,89.011" style="stroke: #A80036; stroke-width: 1.0;"/><path d="M93.5,222.767 C93.5,277.974 93.5,365.243 93.5,410.718 " fill="none" style="stroke: #A80036; stroke-width: 1.0;"/><polygon fill="none" points="86.5001,222.649,93.5,202.649,100.5001,222.649,86.5001,222.649" style="stroke: #A80036; stroke-width: 1.0;"/><path d="M178.536,172 C188.427,172 198.317,172 208.208,172 " fill="none" style="stroke: #A80036; stroke-width: 1.0;"/><polygon fill="#A80036" points="173.363,172,182.363,176,178.363,172,182.363,168,173.363,172" style="stroke: #A80036; stroke-width: 1.0;"/><path d="M453.849,172 C463.629,172 473.41,172 483.19,172 " fill="none" style="stroke: #A80036; stroke-width: 1.0;"/><polygon fill="#A80036" points="448.734,172,457.734,176,453.734,172,457.734,168,448.734,172" style="stroke: #A80036; stroke-width: 1.0;"/></g></svg>