<?xml version="1.0" encoding="UTF-8" standalone="no"?><svg xmlns="http://www.w3.org/2000/svg" xmlns:xlink="http://www.w3.org/1999/xlink" contentScriptType="application/ecmascript" contentStyleType="text/css" height="757px" preserveAspectRatio="none" style="width:1192px;height:757px;" version="1.1" viewBox="0 0 1192 757" width="1192px" zoomAndPan="magnify"><defs><filter height="300%" id="f8gpq8q" width="300%" x="-1" y="-1"><feGaussianBlur result="blurOut" stdDeviation="2.0"/><feColorMatrix in="blurOut" result="blurOut2" type="matrix" values="0 0 0 0 0 0 0 0 0 0 0 0 0 0 0 0 0 0 .4 0"/><feOffset dx="4.0" dy="4.0" in="blurOut2" result="blurOut3"/><feBlend in="SourceGraphic" in2="blurOut3" mode="normal"/></filter></defs><g><!--class JFrame--><rect fill="#FEFECE" filter="url(#f8gpq8q)" height="48" style="stroke: #A80036; stroke-width: 1.5;" width="74" x="832.5" y="27"/><ellipse cx="847.5" cy="43" fill="#ADD1B2" rx="11" ry="11" style="stroke: #A80036; stroke-width: 1.0;"/><path d="M849.8438,38.6719 L850.0156,38.75 C850.2344,38.4375 850.4375,38.3438 850.7344,38.3438 C851.0313,38.3438 851.3125,38.4844 851.4688,38.75 C851.5625,38.9063 851.5781,39.0313 851.5781,39.4688 L851.5781,40.8906 C851.5781,41.3125 851.5469,41.5 851.4375,41.6563 C851.2656,41.875 851,42.0156 850.7344,42.0156 C850.5156,42.0156 850.2813,41.9063 850.1406,41.7656 C850,41.6406 849.9688,41.5156 849.9063,41.1094 C849.8125,40.7031 849.6406,40.4844 849.1563,40.2031 C848.6875,39.9531 848.0781,39.7969 847.5,39.7969 C845.7656,39.7969 844.5156,41.1094 844.5156,42.8906 L844.5156,43.9844 C844.5156,45.6875 845.8125,46.7813 847.8594,46.7813 C848.625,46.7813 849.3125,46.6563 849.7344,46.3906 C849.9219,46.2969 849.9219,46.2969 850.375,45.8125 C850.5625,45.625 850.7656,45.5469 850.9844,45.5469 C851.4531,45.5469 851.8438,45.9375 851.8438,46.3906 C851.8438,46.7813 851.5156,47.2344 850.9375,47.6406 C850.1875,48.1875 849.0313,48.4844 847.8125,48.4844 C844.9219,48.4844 842.8125,46.5938 842.8125,44.0156 L842.8125,42.8906 C842.8125,40.1719 844.8125,38.0938 847.4375,38.0938 C848.3125,38.0938 848.9063,38.2344 849.8438,38.6719 Z "/><text fill="#000000" font-family="sans-serif" font-size="12" lengthAdjust="spacingAndGlyphs" textLength="42" x="861.5" y="47.1543">JFrame</text><line style="stroke: #A80036; stroke-width: 1.5;" x1="833.5" x2="905.5" y1="59" y2="59"/><line style="stroke: #A80036; stroke-width: 1.5;" x1="833.5" x2="905.5" y1="67" y2="67"/><!--class ActionListener--><rect fill="#FEFECE" filter="url(#f8gpq8q)" height="66.7422" style="stroke: #A80036; stroke-width: 1.5;" width="242" x="941.5" y="17.5"/><ellipse cx="1013.75" cy="36.4688" fill="#B4A7E5" rx="11" ry="11" style="stroke: #A80036; stroke-width: 1.0;"/><path d="M1014.7031,33.25 L1014.7031,39.7656 L1016.4219,39.7656 C1016.875,39.7656 1017.0156,39.7969 1017.1875,39.9219 C1017.4219,40.0938 1017.5313,40.3438 1017.5313,40.625 C1017.5313,41.1875 1017.1719,41.4688 1016.4219,41.4688 L1011.2813,41.4688 C1010.875,41.4688 1010.6719,41.4219 1010.5156,41.2969 C1010.2969,41.1406 1010.1563,40.875 1010.1563,40.625 C1010.1563,40.3281 1010.3125,40.0469 1010.5625,39.8906 C1010.7188,39.7813 1010.8438,39.7656 1011.2813,39.7656 L1013,39.7656 L1013,33.25 L1011.2813,33.25 C1010.8594,33.25 1010.6719,33.2188 1010.5156,33.1094 C1010.2969,32.9375 1010.1563,32.6875 1010.1563,32.4063 C1010.1563,32.125 1010.3125,31.8281 1010.5625,31.6719 C1010.7188,31.5781 1010.8438,31.5625 1011.2813,31.5625 L1016.4219,31.5625 C1016.875,31.5625 1017.0156,31.5938 1017.1875,31.7031 C1017.4219,31.875 1017.5313,32.1406 1017.5313,32.4063 C1017.5313,32.7031 1017.3906,32.9844 1017.125,33.1406 C1017,33.2188 1016.8125,33.25 1016.4219,33.25 Z "/><text fill="#000000" font-family="sans-serif" font-size="12" font-style="italic" lengthAdjust="spacingAndGlyphs" textLength="70" x="1043.75" y="33.6387">«interface»</text><text fill="#000000" font-family="sans-serif" font-size="12" font-style="italic" lengthAdjust="spacingAndGlyphs" textLength="89" x="1034.25" y="47.6074">ActionListener</text><line style="stroke: #A80036; stroke-width: 1.5;" x1="942.5" x2="1182.5" y1="55.4375" y2="55.4375"/><line style="stroke: #A80036; stroke-width: 1.5;" x1="942.5" x2="1182.5" y1="63.4375" y2="63.4375"/><ellipse cx="952.5" cy="75.3398" fill="#84BE84" rx="3" ry="3" style="stroke: #038048; stroke-width: 1.0;"/><text fill="#000000" font-family="sans-serif" font-size="11" font-style="italic" lengthAdjust="spacingAndGlyphs" textLength="216" x="961.5" y="77.6479">actionPerformed(e: ActionEvent): void</text><!--class JScrollPane--><rect fill="#FEFECE" filter="url(#f8gpq8q)" height="48" style="stroke: #A80036; stroke-width: 1.5;" width="101" x="681" y="199"/><ellipse cx="696" cy="215" fill="#ADD1B2" rx="11" ry="11" style="stroke: #A80036; stroke-width: 1.0;"/><path d="M698.3438,210.6719 L698.5156,210.75 C698.7344,210.4375 698.9375,210.3438 699.2344,210.3438 C699.5313,210.3438 699.8125,210.4844 699.9688,210.75 C700.0625,210.9063 700.0781,211.0313 700.0781,211.4688 L700.0781,212.8906 C700.0781,213.3125 700.0469,213.5 699.9375,213.6563 C699.7656,213.875 699.5,214.0156 699.2344,214.0156 C699.0156,214.0156 698.7813,213.9063 698.6406,213.7656 C698.5,213.6406 698.4688,213.5156 698.4063,213.1094 C698.3125,212.7031 698.1406,212.4844 697.6563,212.2031 C697.1875,211.9531 696.5781,211.7969 696,211.7969 C694.2656,211.7969 693.0156,213.1094 693.0156,214.8906 L693.0156,215.9844 C693.0156,217.6875 694.3125,218.7813 696.3594,218.7813 C697.125,218.7813 697.8125,218.6563 698.2344,218.3906 C698.4219,218.2969 698.4219,218.2969 698.875,217.8125 C699.0625,217.625 699.2656,217.5469 699.4844,217.5469 C699.9531,217.5469 700.3438,217.9375 700.3438,218.3906 C700.3438,218.7813 700.0156,219.2344 699.4375,219.6406 C698.6875,220.1875 697.5313,220.4844 696.3125,220.4844 C693.4219,220.4844 691.3125,218.5938 691.3125,216.0156 L691.3125,214.8906 C691.3125,212.1719 693.3125,210.0938 695.9375,210.0938 C696.8125,210.0938 697.4063,210.2344 698.3438,210.6719 Z "/><text fill="#000000" font-family="sans-serif" font-size="12" lengthAdjust="spacingAndGlyphs" textLength="69" x="710" y="219.1543">JScrollPane</text><line style="stroke: #A80036; stroke-width: 1.5;" x1="682" x2="781" y1="231" y2="231"/><line style="stroke: #A80036; stroke-width: 1.5;" x1="682" x2="781" y1="239" y2="239"/><!--class DrawingGUI--><rect fill="#FEFECE" filter="url(#f8gpq8q)" height="99.2188" style="stroke: #A80036; stroke-width: 1.5;" width="298" x="817.5" y="173.5"/><ellipse cx="926.75" cy="189.5" fill="#ADD1B2" rx="11" ry="11" style="stroke: #A80036; stroke-width: 1.0;"/><path d="M929.0938,185.1719 L929.2656,185.25 C929.4844,184.9375 929.6875,184.8438 929.9844,184.8438 C930.2813,184.8438 930.5625,184.9844 930.7188,185.25 C930.8125,185.4063 930.8281,185.5313 930.8281,185.9688 L930.8281,187.3906 C930.8281,187.8125 930.7969,188 930.6875,188.1563 C930.5156,188.375 930.25,188.5156 929.9844,188.5156 C929.7656,188.5156 929.5313,188.4063 929.3906,188.2656 C929.25,188.1406 929.2188,188.0156 929.1563,187.6094 C929.0625,187.2031 928.8906,186.9844 928.4063,186.7031 C927.9375,186.4531 927.3281,186.2969 926.75,186.2969 C925.0156,186.2969 923.7656,187.6094 923.7656,189.3906 L923.7656,190.4844 C923.7656,192.1875 925.0625,193.2813 927.1094,193.2813 C927.875,193.2813 928.5625,193.1563 928.9844,192.8906 C929.1719,192.7969 929.1719,192.7969 929.625,192.3125 C929.8125,192.125 930.0156,192.0469 930.2344,192.0469 C930.7031,192.0469 931.0938,192.4375 931.0938,192.8906 C931.0938,193.2813 930.7656,193.7344 930.1875,194.1406 C929.4375,194.6875 928.2813,194.9844 927.0625,194.9844 C924.1719,194.9844 922.0625,193.0938 922.0625,190.5156 L922.0625,189.3906 C922.0625,186.6719 924.0625,184.5938 926.6875,184.5938 C927.5625,184.5938 928.1563,184.7344 929.0938,185.1719 Z "/><text fill="#000000" font-family="sans-serif" font-size="12" lengthAdjust="spacingAndGlyphs" textLength="71" x="947.25" y="193.6543">DrawingGUI</text><line style="stroke: #A80036; stroke-width: 1.5;" x1="818.5" x2="1114.5" y1="205.5" y2="205.5"/><line style="stroke: #A80036; stroke-width: 1.5;" x1="818.5" x2="1114.5" y1="213.5" y2="213.5"/><ellipse cx="828.5" cy="225.4023" fill="#84BE84" rx="3" ry="3" style="stroke: #038048; stroke-width: 1.0;"/><text fill="#000000" font-family="sans-serif" font-size="11" lengthAdjust="spacingAndGlyphs" textLength="272" x="837.5" y="227.7104">c DrawingGUI(title: String, dw: AbstractDrawing)</text><ellipse cx="828.5" cy="238.207" fill="#84BE84" rx="3" ry="3" style="stroke: #038048; stroke-width: 1.0;"/><text fill="#000000" font-family="sans-serif" font-size="11" lengthAdjust="spacingAndGlyphs" textLength="213" x="837.5" y="240.5151">actionPerformed(e: ActionEvent): void</text><rect fill="#F24D5C" height="6" style="stroke: #C82930; stroke-width: 1.0;" width="6" x="825.5" y="248.0117"/><text fill="#000000" font-family="sans-serif" font-size="11" lengthAdjust="spacingAndGlyphs" textLength="79" x="837.5" y="253.3198">zoomIn(): void</text><rect fill="#F24D5C" height="6" style="stroke: #C82930; stroke-width: 1.0;" width="6" x="825.5" y="260.8164"/><text fill="#000000" font-family="sans-serif" font-size="11" lengthAdjust="spacingAndGlyphs" textLength="89" x="837.5" y="266.1245">zoomOut(): void</text><!--class JPanel--><rect fill="#FEFECE" filter="url(#f8gpq8q)" height="73.6094" style="stroke: #A80036; stroke-width: 1.5;" width="224" x="422.5" y="14"/><ellipse cx="511.25" cy="30" fill="#ADD1B2" rx="11" ry="11" style="stroke: #A80036; stroke-width: 1.0;"/><path d="M513.5938,25.6719 L513.7656,25.75 C513.9844,25.4375 514.1875,25.3438 514.4844,25.3438 C514.7813,25.3438 515.0625,25.4844 515.2188,25.75 C515.3125,25.9063 515.3281,26.0313 515.3281,26.4688 L515.3281,27.8906 C515.3281,28.3125 515.2969,28.5 515.1875,28.6563 C515.0156,28.875 514.75,29.0156 514.4844,29.0156 C514.2656,29.0156 514.0313,28.9063 513.8906,28.7656 C513.75,28.6406 513.7188,28.5156 513.6563,28.1094 C513.5625,27.7031 513.3906,27.4844 512.9063,27.2031 C512.4375,26.9531 511.8281,26.7969 511.25,26.7969 C509.5156,26.7969 508.2656,28.1094 508.2656,29.8906 L508.2656,30.9844 C508.2656,32.6875 509.5625,33.7813 511.6094,33.7813 C512.375,33.7813 513.0625,33.6563 513.4844,33.3906 C513.6719,33.2969 513.6719,33.2969 514.125,32.8125 C514.3125,32.625 514.5156,32.5469 514.7344,32.5469 C515.2031,32.5469 515.5938,32.9375 515.5938,33.3906 C515.5938,33.7813 515.2656,34.2344 514.6875,34.6406 C513.9375,35.1875 512.7813,35.4844 511.5625,35.4844 C508.6719,35.4844 506.5625,33.5938 506.5625,31.0156 L506.5625,29.8906 C506.5625,27.1719 508.5625,25.0938 511.1875,25.0938 C512.0625,25.0938 512.6563,25.2344 513.5938,25.6719 Z "/><text fill="#000000" font-family="sans-serif" font-size="12" lengthAdjust="spacingAndGlyphs" textLength="38" x="531.75" y="34.1543">JPanel</text><line style="stroke: #A80036; stroke-width: 1.5;" x1="423.5" x2="645.5" y1="46" y2="46"/><line style="stroke: #A80036; stroke-width: 1.5;" x1="423.5" x2="645.5" y1="54" y2="54"/><ellipse cx="433.5" cy="65.9023" fill="#84BE84" rx="3" ry="3" style="stroke: #038048; stroke-width: 1.0;"/><text fill="#000000" font-family="sans-serif" font-size="11" lengthAdjust="spacingAndGlyphs" textLength="198" x="442.5" y="68.2104">paintComponent(g: Graphics): void</text><ellipse cx="433.5" cy="78.707" fill="#84BE84" rx="3" ry="3" style="stroke: #038048; stroke-width: 1.0;"/><text fill="#000000" font-family="sans-serif" font-size="11" lengthAdjust="spacingAndGlyphs" textLength="171" x="442.5" y="81.0151">getPreferredSize(): Dimension</text><!--class DrawingPanel--><rect fill="#FEFECE" filter="url(#f8gpq8q)" height="112.0234" style="stroke: #A80036; stroke-width: 1.5;" width="259" x="387" y="167"/><ellipse cx="469.75" cy="183" fill="#ADD1B2" rx="11" ry="11" style="stroke: #A80036; stroke-width: 1.0;"/><path d="M472.0938,178.6719 L472.2656,178.75 C472.4844,178.4375 472.6875,178.3438 472.9844,178.3438 C473.2813,178.3438 473.5625,178.4844 473.7188,178.75 C473.8125,178.9063 473.8281,179.0313 473.8281,179.4688 L473.8281,180.8906 C473.8281,181.3125 473.7969,181.5 473.6875,181.6563 C473.5156,181.875 473.25,182.0156 472.9844,182.0156 C472.7656,182.0156 472.5313,181.9063 472.3906,181.7656 C472.25,181.6406 472.2188,181.5156 472.1563,181.1094 C472.0625,180.7031 471.8906,180.4844 471.4063,180.2031 C470.9375,179.9531 470.3281,179.7969 469.75,179.7969 C468.0156,179.7969 466.7656,181.1094 466.7656,182.8906 L466.7656,183.9844 C466.7656,185.6875 468.0625,186.7813 470.1094,186.7813 C470.875,186.7813 471.5625,186.6563 471.9844,186.3906 C472.1719,186.2969 472.1719,186.2969 472.625,185.8125 C472.8125,185.625 473.0156,185.5469 473.2344,185.5469 C473.7031,185.5469 474.0938,185.9375 474.0938,186.3906 C474.0938,186.7813 473.7656,187.2344 473.1875,187.6406 C472.4375,188.1875 471.2813,188.4844 470.0625,188.4844 C467.1719,188.4844 465.0625,186.5938 465.0625,184.0156 L465.0625,182.8906 C465.0625,180.1719 467.0625,178.0938 469.6875,178.0938 C470.5625,178.0938 471.1563,178.2344 472.0938,178.6719 Z "/><text fill="#000000" font-family="sans-serif" font-size="12" lengthAdjust="spacingAndGlyphs" textLength="85" x="490.25" y="187.1543">DrawingPanel</text><line style="stroke: #A80036; stroke-width: 1.5;" x1="388" x2="645" y1="199" y2="199"/><rect fill="none" height="6" style="stroke: #C82930; stroke-width: 1.0;" width="6" x="395" y="207.9023"/><text fill="#000000" font-family="sans-serif" font-size="11" lengthAdjust="spacingAndGlyphs" textLength="117" x="407" y="213.2104">dw: AbstractDrawing</text><line style="stroke: #A80036; stroke-width: 1.5;" x1="388" x2="645" y1="219.8047" y2="219.8047"/><ellipse cx="398" cy="231.707" fill="#84BE84" rx="3" ry="3" style="stroke: #038048; stroke-width: 1.0;"/><text fill="#000000" font-family="sans-serif" font-size="11" lengthAdjust="spacingAndGlyphs" textLength="211" x="407" y="234.0151">setDrawing(d: AbstractDrawing): void</text><ellipse cx="398" cy="244.5117" fill="#84BE84" rx="3" ry="3" style="stroke: #038048; stroke-width: 1.0;"/><text fill="#000000" font-family="sans-serif" font-size="11" lengthAdjust="spacingAndGlyphs" textLength="214" x="407" y="246.8198">@ paintComponent(g: Graphics): void</text><ellipse cx="398" cy="257.3164" fill="#84BE84" rx="3" ry="3" style="stroke: #038048; stroke-width: 1.0;"/><text fill="#000000" font-family="sans-serif" font-size="11" lengthAdjust="spacingAndGlyphs" textLength="187" x="407" y="259.6245">@ getPreferredSize(): Dimension</text><ellipse cx="398" cy="270.1211" fill="#84BE84" rx="3" ry="3" style="stroke: #038048; stroke-width: 1.0;"/><text fill="#000000" font-family="sans-serif" font-size="11" font-weight="bold" lengthAdjust="spacingAndGlyphs" textLength="233" x="407" y="272.4292">setScaleFactor(scaleFactor: double)</text><!--class AbstractDrawing--><rect fill="#FEFECE" filter="url(#f8gpq8q)" height="137.6328" style="stroke: #A80036; stroke-width: 1.5;" width="206" x="128.5" y="154"/><ellipse cx="175.75" cy="170" fill="#A9DCDF" rx="11" ry="11" style="stroke: #A80036; stroke-width: 1.0;"/><path d="M177.3281,171.8125 L173.2813,171.8125 L172.8906,172.7969 L173.2813,172.7969 C173.7344,172.7969 173.875,172.8281 174.0469,172.9531 C174.2656,173.125 174.3906,173.375 174.3906,173.6563 C174.3906,173.9375 174.25,174.2344 173.9844,174.375 C173.8594,174.4688 173.6406,174.5 173.2813,174.5 L171.0156,174.5 C170.2656,174.5 169.8906,174.2188 169.8906,173.6563 C169.8906,173.3594 170.0469,173.0781 170.2969,172.9219 C170.4531,172.8125 170.6094,172.7969 171.0313,172.7969 L173.6719,166.2813 L172.5938,166.2813 C172.1563,166.2813 171.9844,166.25 171.8125,166.1406 C171.5938,165.9688 171.4531,165.7188 171.4531,165.4375 C171.4531,165.1563 171.6094,164.875 171.8594,164.7031 C172.0156,164.6094 172.1406,164.5938 172.5938,164.5938 L176.2656,164.5938 L179.6563,172.7969 C180.125,172.7969 180.2813,172.8281 180.4531,172.9688 C180.6719,173.125 180.8125,173.375 180.8125,173.6563 C180.8125,173.9375 180.6563,174.2344 180.4063,174.375 C180.2656,174.4688 180.0469,174.5 179.6875,174.5 L177.3281,174.5 C176.9063,174.5 176.7031,174.4531 176.5625,174.3281 C176.3438,174.1719 176.2031,173.9219 176.2031,173.6563 C176.2031,173.3594 176.3594,173.0781 176.6094,172.9219 C176.7656,172.8125 176.875,172.7969 177.3281,172.7969 L177.7188,172.7969 Z M176.625,170.1094 L175.2969,166.8438 L173.9531,170.1094 Z "/><text fill="#000000" font-family="sans-serif" font-size="12" font-style="italic" lengthAdjust="spacingAndGlyphs" textLength="103" x="196.25" y="174.1543">AbstractDrawing</text><line style="stroke: #A80036; stroke-width: 1.5;" x1="129.5" x2="333.5" y1="186" y2="186"/><polygon fill="none" points="139.5,192.9023,143.5,196.9023,139.5,200.9023,135.5,196.9023" style="stroke: #B38D22; stroke-width: 1.0;"/><text fill="#000000" font-family="sans-serif" font-size="11" lengthAdjust="spacingAndGlyphs" textLength="111" x="148.5" y="200.2104">scaleFactor: double</text><polygon fill="none" points="139.5,205.707,143.5,209.707,139.5,213.707,135.5,209.707" style="stroke: #B38D22; stroke-width: 1.0;"/><text fill="#000000" font-family="sans-serif" font-size="11" lengthAdjust="spacingAndGlyphs" textLength="161" x="148.5" y="213.0151">previousScaleFactor: double</text><line style="stroke: #A80036; stroke-width: 1.5;" x1="129.5" x2="333.5" y1="219.6094" y2="219.6094"/><ellipse cx="139.5" cy="231.5117" fill="#84BE84" rx="3" ry="3" style="stroke: #038048; stroke-width: 1.0;"/><text fill="#000000" font-family="sans-serif" font-size="11" lengthAdjust="spacingAndGlyphs" textLength="180" x="148.5" y="233.8198">setScaleFactor(sf: double): void</text><ellipse cx="139.5" cy="244.3164" fill="#84BE84" rx="3" ry="3" style="stroke: #038048; stroke-width: 1.0;"/><text fill="#000000" font-family="sans-serif" font-size="11" font-style="italic" lengthAdjust="spacingAndGlyphs" textLength="133" x="148.5" y="246.6245">draw(g: Graphics): void</text><ellipse cx="139.5" cy="257.1211" fill="#84BE84" rx="3" ry="3" style="stroke: #038048; stroke-width: 1.0;"/><text fill="#000000" font-family="sans-serif" font-size="11" font-style="italic" lengthAdjust="spacingAndGlyphs" textLength="126" x="148.5" y="259.4292">getDrawingWidth(): int</text><ellipse cx="139.5" cy="269.9258" fill="#84BE84" rx="3" ry="3" style="stroke: #038048; stroke-width: 1.0;"/><text fill="#000000" font-family="sans-serif" font-size="11" font-style="italic" lengthAdjust="spacingAndGlyphs" textLength="130" x="148.5" y="272.2339">getDrawingHeight(): int</text><polygon fill="#FFFF44" points="139.5,277.7305,143.5,281.7305,139.5,285.7305,135.5,281.7305" style="stroke: #B38D22; stroke-width: 1.0;"/><text fill="#000000" font-family="sans-serif" font-size="11" font-style="italic" lengthAdjust="spacingAndGlyphs" textLength="127" x="148.5" y="285.0386">rescaleDrawing(): void</text><!--class ConcreteDrawing--><rect fill="#FEFECE" filter="url(#f8gpq8q)" height="99.2188" style="stroke: #A80036; stroke-width: 1.5;" width="175" x="144" y="649"/><ellipse cx="175.2" cy="665" fill="#ADD1B2" rx="11" ry="11" style="stroke: #A80036; stroke-width: 1.0;"/><path d="M177.5438,660.6719 L177.7156,660.75 C177.9344,660.4375 178.1375,660.3438 178.4344,660.3438 C178.7313,660.3438 179.0125,660.4844 179.1688,660.75 C179.2625,660.9063 179.2781,661.0313 179.2781,661.4688 L179.2781,662.8906 C179.2781,663.3125 179.2469,663.5 179.1375,663.6563 C178.9656,663.875 178.7,664.0156 178.4344,664.0156 C178.2156,664.0156 177.9813,663.9063 177.8406,663.7656 C177.7,663.6406 177.6688,663.5156 177.6063,663.1094 C177.5125,662.7031 177.3406,662.4844 176.8563,662.2031 C176.3875,661.9531 175.7781,661.7969 175.2,661.7969 C173.4656,661.7969 172.2156,663.1094 172.2156,664.8906 L172.2156,665.9844 C172.2156,667.6875 173.5125,668.7813 175.5594,668.7813 C176.325,668.7813 177.0125,668.6563 177.4344,668.3906 C177.6219,668.2969 177.6219,668.2969 178.075,667.8125 C178.2625,667.625 178.4656,667.5469 178.6844,667.5469 C179.1531,667.5469 179.5438,667.9375 179.5438,668.3906 C179.5438,668.7813 179.2156,669.2344 178.6375,669.6406 C177.8875,670.1875 176.7313,670.4844 175.5125,670.4844 C172.6219,670.4844 170.5125,668.5938 170.5125,666.0156 L170.5125,664.8906 C170.5125,662.1719 172.5125,660.0938 175.1375,660.0938 C176.0125,660.0938 176.6063,660.2344 177.5438,660.6719 Z "/><text fill="#000000" font-family="sans-serif" font-size="12" lengthAdjust="spacingAndGlyphs" textLength="107" x="192.8" y="669.1543">ConcreteDrawing</text><line style="stroke: #A80036; stroke-width: 1.5;" x1="145" x2="318" y1="681" y2="681"/><line style="stroke: #A80036; stroke-width: 1.5;" x1="145" x2="318" y1="689" y2="689"/><ellipse cx="155" cy="700.9023" fill="#84BE84" rx="3" ry="3" style="stroke: #038048; stroke-width: 1.0;"/><text fill="#000000" font-family="sans-serif" font-size="11" lengthAdjust="spacingAndGlyphs" textLength="149" x="164" y="703.2104">@ draw(g: Graphics): void</text><ellipse cx="155" cy="713.707" fill="#84BE84" rx="3" ry="3" style="stroke: #038048; stroke-width: 1.0;"/><text fill="#000000" font-family="sans-serif" font-size="11" lengthAdjust="spacingAndGlyphs" textLength="140" x="164" y="716.0151">@ getDrawingWidth(): int</text><ellipse cx="155" cy="726.5117" fill="#84BE84" rx="3" ry="3" style="stroke: #038048; stroke-width: 1.0;"/><text fill="#000000" font-family="sans-serif" font-size="11" lengthAdjust="spacingAndGlyphs" textLength="146" x="164" y="728.8198">@ getDrawingHeight(): int</text><polygon fill="#FFFF44" points="155,734.3164,159,738.3164,155,742.3164,151,738.3164" style="stroke: #B38D22; stroke-width: 1.0;"/><text fill="#000000" font-family="sans-serif" font-size="11" lengthAdjust="spacingAndGlyphs" textLength="143" x="164" y="741.6245">@ rescaleDrawing(): void</text><polygon fill="#FFA500" filter="url(#f8gpq8q)" points="327.5,443,327.5,498.3984,705.5,498.3984,705.5,453,695.5,443,327.5,443" style="stroke: #A80036; stroke-width: 1.0;"/><polygon fill="#FFA500" points="327.5,443,327.5,498.3984,705.5,498.3984,705.5,453,695.5,443,520.5,443,516.5,279.095,512.5,443,327.5,443" style="stroke: #A80036; stroke-width: 1.0;"/><line style="stroke: #A80036; stroke-width: 1.0;" x1="695.5" x2="695.5" y1="443" y2="453"/><line style="stroke: #A80036; stroke-width: 1.0;" x1="705.5" x2="695.5" y1="453" y2="453"/><text fill="#000000" font-family="sans-serif" font-size="13" font-weight="bold" lengthAdjust="spacingAndGlyphs" textLength="345" x="333.5" y="460.0669">public void setScaleFactor(double scalefactor)</text><text fill="#000000" font-family="sans-serif" font-size="13" lengthAdjust="spacingAndGlyphs" textLength="8" x="682.5" y="460.0669">{</text><text fill="#000000" font-family="sans-serif" font-size="13" lengthAdjust="spacingAndGlyphs" textLength="203" x="341.5" y="475.1997">dw.setScaleFactor(scaleFactor);</text><text fill="#000000" font-family="sans-serif" font-size="13" lengthAdjust="spacingAndGlyphs" textLength="8" x="333.5" y="490.3325">}</text><polygon fill="#FFA500" filter="url(#f8gpq8q)" points="6,8,6,93.6641,387,93.6641,387,18,377,8,6,8" style="stroke: #A80036; stroke-width: 1.0;"/><polygon fill="#FFA500" points="6,8,6,93.6641,201.152,93.6641,217.432,153.672,209.152,93.6641,387,93.6641,387,18,377,8,6,8" style="stroke: #A80036; stroke-width: 1.0;"/><line style="stroke: #A80036; stroke-width: 1.0;" x1="377" x2="377" y1="8" y2="18"/><line style="stroke: #A80036; stroke-width: 1.0;" x1="387" x2="377" y1="18" y2="18"/><text fill="#000000" font-family="sans-serif" font-size="13" font-weight="bold" lengthAdjust="spacingAndGlyphs" textLength="348" x="12" y="25.0669">public void setScaleFactor(double scaleFactor)</text><text fill="#000000" font-family="sans-serif" font-size="13" lengthAdjust="spacingAndGlyphs" textLength="8" x="364" y="25.0669">{</text><text fill="#000000" font-family="sans-serif" font-size="13" lengthAdjust="spacingAndGlyphs" textLength="252" x="20" y="40.1997">this.previousScaleFactor = scaleFactor;</text><text fill="#000000" font-family="sans-serif" font-size="13" lengthAdjust="spacingAndGlyphs" textLength="196" x="20" y="55.3325">this.scaleFactor = scaleFactor;</text><text fill="#000000" font-family="sans-serif" font-size="13" lengthAdjust="spacingAndGlyphs" textLength="111" x="20" y="70.4653">rescaleDrawing();</text><text fill="#000000" font-family="sans-serif" font-size="13" lengthAdjust="spacingAndGlyphs" textLength="8" x="12" y="85.5981">}</text><polygon fill="#FFA500" filter="url(#f8gpq8q)" points="354,671,354,726.3984,627,726.3984,627,681,617,671,354,671" style="stroke: #A80036; stroke-width: 1.0;"/><polygon fill="#FFA500" points="354,671,354,694.5,319.014,698.5,354,702.5,354,726.3984,627,726.3984,627,681,617,671,354,671" style="stroke: #A80036; stroke-width: 1.0;"/><line style="stroke: #A80036; stroke-width: 1.0;" x1="617" x2="617" y1="671" y2="681"/><line style="stroke: #A80036; stroke-width: 1.0;" x1="627" x2="617" y1="681" y2="681"/><text fill="#000000" font-family="sans-serif" font-size="13" font-weight="bold" lengthAdjust="spacingAndGlyphs" textLength="240" x="360" y="688.0669">protected void rescaleDrawing()</text><text fill="#000000" font-family="sans-serif" font-size="13" lengthAdjust="spacingAndGlyphs" textLength="8" x="604" y="688.0669">{</text><text fill="#000000" font-family="sans-serif" font-size="13" lengthAdjust="spacingAndGlyphs" textLength="0" x="368" y="703.1997"/><text fill="#000000" font-family="sans-serif" font-size="13" font-style="italic" lengthAdjust="spacingAndGlyphs" textLength="212" x="368" y="703.1997">//update the drawing coordinates</text><text fill="#000000" font-family="sans-serif" font-size="13" lengthAdjust="spacingAndGlyphs" textLength="8" x="360" y="718.3325">}</text><polygon fill="#FFA500" filter="url(#f8gpq8q)" points="750,352,750,588.9922,1183,588.9922,1183,362,1173,352,750,352" style="stroke: #A80036; stroke-width: 1.0;"/><polygon fill="#FFA500" points="750,352,750,588.9922,1183,588.9922,1183,362,1173,352,970.5,352,966.5,272.503,962.5,352,750,352" style="stroke: #A80036; stroke-width: 1.0;"/><line style="stroke: #A80036; stroke-width: 1.0;" x1="1173" x2="1173" y1="352" y2="362"/><line style="stroke: #A80036; stroke-width: 1.0;" x1="1183" x2="1173" y1="362" y2="362"/><text fill="#000000" font-family="sans-serif" font-size="13" font-weight="bold" lengthAdjust="spacingAndGlyphs" textLength="323" x="756" y="369.0669">public void actionPerformed(ActionEvent e)</text><text fill="#000000" font-family="sans-serif" font-size="13" lengthAdjust="spacingAndGlyphs" textLength="8" x="1083" y="369.0669">{</text><text fill="#000000" font-family="sans-serif" font-size="13" lengthAdjust="spacingAndGlyphs" textLength="243" x="764" y="384.1997">String cmd = e.getActionCommand();</text><text fill="#000000" font-family="sans-serif" font-size="13" lengthAdjust="spacingAndGlyphs" textLength="12" x="764" y="399.3325">...</text><text fill="#000000" font-family="sans-serif" font-size="13" lengthAdjust="spacingAndGlyphs" textLength="0" x="764" y="414.4653"/><text fill="#000000" font-family="sans-serif" font-size="13" font-style="italic" lengthAdjust="spacingAndGlyphs" textLength="134" x="764" y="414.4653">//Handle each button</text><text fill="#000000" font-family="sans-serif" font-size="13" lengthAdjust="spacingAndGlyphs" textLength="178" x="764" y="429.5981">if (ZOOM_IN.equals(cmd)) {</text><text fill="#000000" font-family="sans-serif" font-size="13" font-style="italic" lengthAdjust="spacingAndGlyphs" textLength="168" x="946" y="429.5981">// "zoom in" button clicked</text><text fill="#000000" font-family="sans-serif" font-size="13" lengthAdjust="spacingAndGlyphs" textLength="61" x="772" y="444.731">zoomIn();</text><text fill="#000000" font-family="sans-serif" font-size="13" lengthAdjust="spacingAndGlyphs" textLength="146" x="772" y="459.8638">drawPanel.revalidate();</text><text fill="#000000" font-family="sans-serif" font-size="13" lengthAdjust="spacingAndGlyphs" textLength="128" x="772" y="474.9966">drawPanel.repaint();</text><text fill="#000000" font-family="sans-serif" font-size="13" lengthAdjust="spacingAndGlyphs" textLength="8" x="764" y="490.1294">}</text><text fill="#000000" font-family="sans-serif" font-size="13" lengthAdjust="spacingAndGlyphs" textLength="222" x="764" y="505.2622">else if (ZOOM_OUT.equals(cmd)) {</text><text fill="#000000" font-family="sans-serif" font-size="13" font-style="italic" lengthAdjust="spacingAndGlyphs" textLength="178" x="990" y="505.2622">// "zoom out" button clicked</text><text fill="#000000" font-family="sans-serif" font-size="13" lengthAdjust="spacingAndGlyphs" textLength="73" x="772" y="520.395">zoomOut();</text><text fill="#000000" font-family="sans-serif" font-size="13" lengthAdjust="spacingAndGlyphs" textLength="146" x="772" y="535.5278">drawPanel.revalidate();</text><text fill="#000000" font-family="sans-serif" font-size="13" lengthAdjust="spacingAndGlyphs" textLength="128" x="772" y="550.6606">drawPanel.repaint();</text><text fill="#000000" font-family="sans-serif" font-size="13" lengthAdjust="spacingAndGlyphs" textLength="8" x="764" y="565.7935">}</text><text fill="#000000" font-family="sans-serif" font-size="13" lengthAdjust="spacingAndGlyphs" textLength="8" x="756" y="580.9263">}</text><path d="M892.699,92.659 C906.506,116.856 924.112,147.712 938.665,173.217 " fill="none" style="stroke: #A80036; stroke-width: 1.0;"/><polygon fill="none" points="886.616,96.122,882.784,75.281,898.776,89.183,886.616,96.122" style="stroke: #A80036; stroke-width: 1.0;"/><path d="M1033.99,102.49 C1021.36,124.857 1006.56,151.064 994.042,173.228 " fill="none" style="stroke: #A80036; stroke-width: 1.0; stroke-dasharray: 7.0,7.0;"/><polygon fill="none" points="1028.06,98.751,1043.99,84.778,1040.25,105.635,1028.06,98.751" style="stroke: #A80036; stroke-width: 1.0;"/><path d="M528.547,108.221 C526.548,127.1 524.322,148.126 522.332,166.916 " fill="none" style="stroke: #A80036; stroke-width: 1.0;"/><polygon fill="none" points="521.616,107.204,530.683,88.053,535.538,108.679,521.616,107.204" style="stroke: #A80036; stroke-width: 1.0;"/><path d="M231.5,312.377 C231.5,411.827 231.5,569.791 231.5,648.9427 " fill="none" style="stroke: #A80036; stroke-width: 1.0;"/><polygon fill="none" points="224.5,312.093,231.5,292.093,238.5,312.093,224.5,312.093" style="stroke: #A80036; stroke-width: 1.0;"/><path d="M340.056,223 C355.683,223 371.31,223 386.937,223 " fill="none" style="stroke: #A80036; stroke-width: 1.0;"/><polygon fill="#A80036" points="334.757,223,343.757,227,339.757,223,343.757,219,334.757,223" style="stroke: #A80036; stroke-width: 1.0;"/><path d="M651.396,223 C661.226,223 671.056,223 680.886,223 " fill="none" style="stroke: #A80036; stroke-width: 1.0;"/><polygon fill="#A80036" points="646.256,223,655.256,227,651.256,223,655.256,219,646.256,223" style="stroke: #A80036; stroke-width: 1.0;"/><path d="M787.623,223 C797.521,223 807.419,223 817.317,223 " fill="none" style="stroke: #A80036; stroke-width: 1.0;"/><polygon fill="#A80036" points="782.447,223,791.447,227,787.447,223,791.447,219,782.447,223" style="stroke: #A80036; stroke-width: 1.0;"/></g></svg>