<?xml version="1.0" encoding="UTF-8" standalone="no"?><svg xmlns="http://www.w3.org/2000/svg" xmlns:xlink="http://www.w3.org/1999/xlink" contentScriptType="application/ecmascript" contentStyleType="text/css" height="846px" preserveAspectRatio="none" style="width:927px;height:846px;" version="1.1" viewBox="0 0 927 846" width="927px" zoomAndPan="magnify"><defs><filter height="300%" id="fsh9m91" width="300%" x="-1" y="-1"><feGaussianBlur result="blurOut" stdDeviation="2.0"/><feColorMatrix in="blurOut" result="blurOut2" type="matrix" values="0 0 0 0 0 0 0 0 0 0 0 0 0 0 0 0 0 0 .4 0"/><feOffset dx="4.0" dy="4.0" in="blurOut2" result="blurOut3"/><feBlend in="SourceGraphic" in2="blurOut3" mode="normal"/></filter></defs><g><!--class JFrame--><rect fill="#FEFECE" filter="url(#fsh9m91)" height="48" style="stroke: #A80036; stroke-width: 1.5;" width="74" x="732.5" y="14.5"/><ellipse cx="747.5" cy="30.5" fill="#ADD1B2" rx="11" ry="11" style="stroke: #A80036; stroke-width: 1.0;"/><path d="M749.8438,26.1719 L750.0156,26.25 C750.2344,25.9375 750.4375,25.8438 750.7344,25.8438 C751.0313,25.8438 751.3125,25.9844 751.4688,26.25 C751.5625,26.4063 751.5781,26.5313 751.5781,26.9688 L751.5781,28.3906 C751.5781,28.8125 751.5469,29 751.4375,29.1563 C751.2656,29.375 751,29.5156 750.7344,29.5156 C750.5156,29.5156 750.2813,29.4063 750.1406,29.2656 C750,29.1406 749.9688,29.0156 749.9063,28.6094 C749.8125,28.2031 749.6406,27.9844 749.1563,27.7031 C748.6875,27.4531 748.0781,27.2969 747.5,27.2969 C745.7656,27.2969 744.5156,28.6094 744.5156,30.3906 L744.5156,31.4844 C744.5156,33.1875 745.8125,34.2813 747.8594,34.2813 C748.625,34.2813 749.3125,34.1563 749.7344,33.8906 C749.9219,33.7969 749.9219,33.7969 750.375,33.3125 C750.5625,33.125 750.7656,33.0469 750.9844,33.0469 C751.4531,33.0469 751.8438,33.4375 751.8438,33.8906 C751.8438,34.2813 751.5156,34.7344 750.9375,35.1406 C750.1875,35.6875 749.0313,35.9844 747.8125,35.9844 C744.9219,35.9844 742.8125,34.0938 742.8125,31.5156 L742.8125,30.3906 C742.8125,27.6719 744.8125,25.5938 747.4375,25.5938 C748.3125,25.5938 748.9063,25.7344 749.8438,26.1719 Z "/><text fill="#000000" font-family="sans-serif" font-size="12" lengthAdjust="spacingAndGlyphs" textLength="42" x="761.5" y="34.6543">JFrame</text><line style="stroke: #A80036; stroke-width: 1.5;" x1="733.5" x2="805.5" y1="46.5" y2="46.5"/><line style="stroke: #A80036; stroke-width: 1.5;" x1="733.5" x2="805.5" y1="54.5" y2="54.5"/><!--class JScrollPane--><rect fill="#FEFECE" filter="url(#fsh9m91)" height="48" style="stroke: #A80036; stroke-width: 1.5;" width="101" x="484" y="154.5"/><ellipse cx="499" cy="170.5" fill="#ADD1B2" rx="11" ry="11" style="stroke: #A80036; stroke-width: 1.0;"/><path d="M501.3438,166.1719 L501.5156,166.25 C501.7344,165.9375 501.9375,165.8438 502.2344,165.8438 C502.5313,165.8438 502.8125,165.9844 502.9688,166.25 C503.0625,166.4063 503.0781,166.5313 503.0781,166.9688 L503.0781,168.3906 C503.0781,168.8125 503.0469,169 502.9375,169.1563 C502.7656,169.375 502.5,169.5156 502.2344,169.5156 C502.0156,169.5156 501.7813,169.4063 501.6406,169.2656 C501.5,169.1406 501.4688,169.0156 501.4063,168.6094 C501.3125,168.2031 501.1406,167.9844 500.6563,167.7031 C500.1875,167.4531 499.5781,167.2969 499,167.2969 C497.2656,167.2969 496.0156,168.6094 496.0156,170.3906 L496.0156,171.4844 C496.0156,173.1875 497.3125,174.2813 499.3594,174.2813 C500.125,174.2813 500.8125,174.1563 501.2344,173.8906 C501.4219,173.7969 501.4219,173.7969 501.875,173.3125 C502.0625,173.125 502.2656,173.0469 502.4844,173.0469 C502.9531,173.0469 503.3438,173.4375 503.3438,173.8906 C503.3438,174.2813 503.0156,174.7344 502.4375,175.1406 C501.6875,175.6875 500.5313,175.9844 499.3125,175.9844 C496.4219,175.9844 494.3125,174.0938 494.3125,171.5156 L494.3125,170.3906 C494.3125,167.6719 496.3125,165.5938 498.9375,165.5938 C499.8125,165.5938 500.4063,165.7344 501.3438,166.1719 Z "/><text fill="#000000" font-family="sans-serif" font-size="12" lengthAdjust="spacingAndGlyphs" textLength="69" x="513" y="174.6543">JScrollPane</text><line style="stroke: #A80036; stroke-width: 1.5;" x1="485" x2="584" y1="186.5" y2="186.5"/><line style="stroke: #A80036; stroke-width: 1.5;" x1="485" x2="584" y1="194.5" y2="194.5"/><!--class DrawingGUI--><rect fill="#FEFECE" filter="url(#fsh9m91)" height="60.8047" style="stroke: #A80036; stroke-width: 1.5;" width="298" x="620.5" y="148"/><ellipse cx="729.75" cy="164" fill="#ADD1B2" rx="11" ry="11" style="stroke: #A80036; stroke-width: 1.0;"/><path d="M732.0938,159.6719 L732.2656,159.75 C732.4844,159.4375 732.6875,159.3438 732.9844,159.3438 C733.2813,159.3438 733.5625,159.4844 733.7188,159.75 C733.8125,159.9063 733.8281,160.0313 733.8281,160.4688 L733.8281,161.8906 C733.8281,162.3125 733.7969,162.5 733.6875,162.6563 C733.5156,162.875 733.25,163.0156 732.9844,163.0156 C732.7656,163.0156 732.5313,162.9063 732.3906,162.7656 C732.25,162.6406 732.2188,162.5156 732.1563,162.1094 C732.0625,161.7031 731.8906,161.4844 731.4063,161.2031 C730.9375,160.9531 730.3281,160.7969 729.75,160.7969 C728.0156,160.7969 726.7656,162.1094 726.7656,163.8906 L726.7656,164.9844 C726.7656,166.6875 728.0625,167.7813 730.1094,167.7813 C730.875,167.7813 731.5625,167.6563 731.9844,167.3906 C732.1719,167.2969 732.1719,167.2969 732.625,166.8125 C732.8125,166.625 733.0156,166.5469 733.2344,166.5469 C733.7031,166.5469 734.0938,166.9375 734.0938,167.3906 C734.0938,167.7813 733.7656,168.2344 733.1875,168.6406 C732.4375,169.1875 731.2813,169.4844 730.0625,169.4844 C727.1719,169.4844 725.0625,167.5938 725.0625,165.0156 L725.0625,163.8906 C725.0625,161.1719 727.0625,159.0938 729.6875,159.0938 C730.5625,159.0938 731.1563,159.2344 732.0938,159.6719 Z "/><text fill="#000000" font-family="sans-serif" font-size="12" lengthAdjust="spacingAndGlyphs" textLength="71" x="750.25" y="168.1543">DrawingGUI</text><line style="stroke: #A80036; stroke-width: 1.5;" x1="621.5" x2="917.5" y1="180" y2="180"/><line style="stroke: #A80036; stroke-width: 1.5;" x1="621.5" x2="917.5" y1="188" y2="188"/><ellipse cx="631.5" cy="199.9023" fill="#84BE84" rx="3" ry="3" style="stroke: #038048; stroke-width: 1.0;"/><text fill="#000000" font-family="sans-serif" font-size="11" lengthAdjust="spacingAndGlyphs" textLength="272" x="640.5" y="202.2104">c DrawingGUI(title: String, dw: AbstractDrawing)</text><!--class JPanel--><rect fill="#FEFECE" filter="url(#fsh9m91)" height="60.8047" style="stroke: #A80036; stroke-width: 1.5;" width="224" x="216.5" y="8"/><ellipse cx="305.25" cy="24" fill="#ADD1B2" rx="11" ry="11" style="stroke: #A80036; stroke-width: 1.0;"/><path d="M307.5938,19.6719 L307.7656,19.75 C307.9844,19.4375 308.1875,19.3438 308.4844,19.3438 C308.7813,19.3438 309.0625,19.4844 309.2188,19.75 C309.3125,19.9063 309.3281,20.0313 309.3281,20.4688 L309.3281,21.8906 C309.3281,22.3125 309.2969,22.5 309.1875,22.6563 C309.0156,22.875 308.75,23.0156 308.4844,23.0156 C308.2656,23.0156 308.0313,22.9063 307.8906,22.7656 C307.75,22.6406 307.7188,22.5156 307.6563,22.1094 C307.5625,21.7031 307.3906,21.4844 306.9063,21.2031 C306.4375,20.9531 305.8281,20.7969 305.25,20.7969 C303.5156,20.7969 302.2656,22.1094 302.2656,23.8906 L302.2656,24.9844 C302.2656,26.6875 303.5625,27.7813 305.6094,27.7813 C306.375,27.7813 307.0625,27.6563 307.4844,27.3906 C307.6719,27.2969 307.6719,27.2969 308.125,26.8125 C308.3125,26.625 308.5156,26.5469 308.7344,26.5469 C309.2031,26.5469 309.5938,26.9375 309.5938,27.3906 C309.5938,27.7813 309.2656,28.2344 308.6875,28.6406 C307.9375,29.1875 306.7813,29.4844 305.5625,29.4844 C302.6719,29.4844 300.5625,27.5938 300.5625,25.0156 L300.5625,23.8906 C300.5625,21.1719 302.5625,19.0938 305.1875,19.0938 C306.0625,19.0938 306.6563,19.2344 307.5938,19.6719 Z "/><text fill="#000000" font-family="sans-serif" font-size="12" lengthAdjust="spacingAndGlyphs" textLength="38" x="325.75" y="28.1543">JPanel</text><line style="stroke: #A80036; stroke-width: 1.5;" x1="217.5" x2="439.5" y1="40" y2="40"/><line style="stroke: #A80036; stroke-width: 1.5;" x1="217.5" x2="439.5" y1="48" y2="48"/><ellipse cx="227.5" cy="59.9023" fill="#84BE84" rx="3" ry="3" style="stroke: #038048; stroke-width: 1.0;"/><text fill="#000000" font-family="sans-serif" font-size="11" lengthAdjust="spacingAndGlyphs" textLength="198" x="236.5" y="62.2104">paintComponent(g: Graphics): void</text><!--class DrawingPanel--><rect fill="#FEFECE" filter="url(#fsh9m91)" height="99.2188" style="stroke: #A80036; stroke-width: 1.5;" width="240" x="208.5" y="129"/><ellipse cx="281.75" cy="145" fill="#ADD1B2" rx="11" ry="11" style="stroke: #A80036; stroke-width: 1.0;"/><path d="M284.0938,140.6719 L284.2656,140.75 C284.4844,140.4375 284.6875,140.3438 284.9844,140.3438 C285.2813,140.3438 285.5625,140.4844 285.7188,140.75 C285.8125,140.9063 285.8281,141.0313 285.8281,141.4688 L285.8281,142.8906 C285.8281,143.3125 285.7969,143.5 285.6875,143.6563 C285.5156,143.875 285.25,144.0156 284.9844,144.0156 C284.7656,144.0156 284.5313,143.9063 284.3906,143.7656 C284.25,143.6406 284.2188,143.5156 284.1563,143.1094 C284.0625,142.7031 283.8906,142.4844 283.4063,142.2031 C282.9375,141.9531 282.3281,141.7969 281.75,141.7969 C280.0156,141.7969 278.7656,143.1094 278.7656,144.8906 L278.7656,145.9844 C278.7656,147.6875 280.0625,148.7813 282.1094,148.7813 C282.875,148.7813 283.5625,148.6563 283.9844,148.3906 C284.1719,148.2969 284.1719,148.2969 284.625,147.8125 C284.8125,147.625 285.0156,147.5469 285.2344,147.5469 C285.7031,147.5469 286.0938,147.9375 286.0938,148.3906 C286.0938,148.7813 285.7656,149.2344 285.1875,149.6406 C284.4375,150.1875 283.2813,150.4844 282.0625,150.4844 C279.1719,150.4844 277.0625,148.5938 277.0625,146.0156 L277.0625,144.8906 C277.0625,142.1719 279.0625,140.0938 281.6875,140.0938 C282.5625,140.0938 283.1563,140.2344 284.0938,140.6719 Z "/><text fill="#000000" font-family="sans-serif" font-size="12" lengthAdjust="spacingAndGlyphs" textLength="85" x="302.25" y="149.1543">DrawingPanel</text><line style="stroke: #A80036; stroke-width: 1.5;" x1="209.5" x2="447.5" y1="161" y2="161"/><rect fill="none" height="6" style="stroke: #C82930; stroke-width: 1.0;" width="6" x="216.5" y="169.9023"/><text fill="#000000" font-family="sans-serif" font-size="11" lengthAdjust="spacingAndGlyphs" textLength="117" x="228.5" y="175.2104">dw: AbstractDrawing</text><line style="stroke: #A80036; stroke-width: 1.5;" x1="209.5" x2="447.5" y1="181.8047" y2="181.8047"/><ellipse cx="219.5" cy="193.707" fill="#84BE84" rx="3" ry="3" style="stroke: #038048; stroke-width: 1.0;"/><text fill="#000000" font-family="sans-serif" font-size="11" lengthAdjust="spacingAndGlyphs" textLength="211" x="228.5" y="196.0151">setDrawing(d: AbstractDrawing): void</text><ellipse cx="219.5" cy="206.5117" fill="#84BE84" rx="3" ry="3" style="stroke: #038048; stroke-width: 1.0;"/><text fill="#000000" font-family="sans-serif" font-size="11" lengthAdjust="spacingAndGlyphs" textLength="214" x="228.5" y="208.8198">@ paintComponent(g: Graphics): void</text><rect fill="#F24D5C" height="6" style="stroke: #C82930; stroke-width: 1.0;" width="6" x="216.5" y="216.3164"/><text fill="#000000" font-family="sans-serif" font-size="11" font-weight="bold" lengthAdjust="spacingAndGlyphs" textLength="213" x="228.5" y="221.6245">updatePanelPreferredSize(): void</text><!--class AbstractDrawing--><rect fill="#FEFECE" filter="url(#fsh9m91)" height="86.4141" style="stroke: #A80036; stroke-width: 1.5;" width="159" x="14" y="135.5"/><ellipse cx="39.8" cy="151.5" fill="#A9DCDF" rx="11" ry="11" style="stroke: #A80036; stroke-width: 1.0;"/><path d="M41.3781,153.3125 L37.3313,153.3125 L36.9406,154.2969 L37.3313,154.2969 C37.7844,154.2969 37.925,154.3281 38.0969,154.4531 C38.3156,154.625 38.4406,154.875 38.4406,155.1563 C38.4406,155.4375 38.3,155.7344 38.0344,155.875 C37.9094,155.9688 37.6906,156 37.3313,156 L35.0656,156 C34.3156,156 33.9406,155.7188 33.9406,155.1563 C33.9406,154.8594 34.0969,154.5781 34.3469,154.4219 C34.5031,154.3125 34.6594,154.2969 35.0813,154.2969 L37.7219,147.7813 L36.6438,147.7813 C36.2063,147.7813 36.0344,147.75 35.8625,147.6406 C35.6438,147.4688 35.5031,147.2188 35.5031,146.9375 C35.5031,146.6563 35.6594,146.375 35.9094,146.2031 C36.0656,146.1094 36.1906,146.0938 36.6438,146.0938 L40.3156,146.0938 L43.7063,154.2969 C44.175,154.2969 44.3313,154.3281 44.5031,154.4688 C44.7219,154.625 44.8625,154.875 44.8625,155.1563 C44.8625,155.4375 44.7063,155.7344 44.4563,155.875 C44.3156,155.9688 44.0969,156 43.7375,156 L41.3781,156 C40.9563,156 40.7531,155.9531 40.6125,155.8281 C40.3938,155.6719 40.2531,155.4219 40.2531,155.1563 C40.2531,154.8594 40.4094,154.5781 40.6594,154.4219 C40.8156,154.3125 40.925,154.2969 41.3781,154.2969 L41.7688,154.2969 Z M40.675,151.6094 L39.3469,148.3438 L38.0031,151.6094 Z "/><text fill="#000000" font-family="sans-serif" font-size="12" font-style="italic" lengthAdjust="spacingAndGlyphs" textLength="103" x="56.2" y="155.6543">AbstractDrawing</text><line style="stroke: #A80036; stroke-width: 1.5;" x1="15" x2="172" y1="167.5" y2="167.5"/><line style="stroke: #A80036; stroke-width: 1.5;" x1="15" x2="172" y1="175.5" y2="175.5"/><ellipse cx="25" cy="187.4023" fill="#84BE84" rx="3" ry="3" style="stroke: #038048; stroke-width: 1.0;"/><text fill="#000000" font-family="sans-serif" font-size="11" font-style="italic" lengthAdjust="spacingAndGlyphs" textLength="133" x="34" y="189.7104">draw(g: Graphics): void</text><ellipse cx="25" cy="200.207" fill="#84BE84" rx="3" ry="3" style="stroke: #038048; stroke-width: 1.0;"/><text fill="#000000" font-family="sans-serif" font-size="11" font-style="italic" lengthAdjust="spacingAndGlyphs" textLength="126" x="34" y="202.5151">getDrawingWidth(): int</text><ellipse cx="25" cy="213.0117" fill="#84BE84" rx="3" ry="3" style="stroke: #038048; stroke-width: 1.0;"/><text fill="#000000" font-family="sans-serif" font-size="11" font-style="italic" lengthAdjust="spacingAndGlyphs" textLength="130" x="34" y="215.3198">getDrawingHeight(): int</text><!--class ConcreteDrawing--><rect fill="#FEFECE" filter="url(#fsh9m91)" height="86.4141" style="stroke: #A80036; stroke-width: 1.5;" width="175" x="6" y="713.5"/><ellipse cx="37.2" cy="729.5" fill="#ADD1B2" rx="11" ry="11" style="stroke: #A80036; stroke-width: 1.0;"/><path d="M39.5438,725.1719 L39.7156,725.25 C39.9344,724.9375 40.1375,724.8438 40.4344,724.8438 C40.7313,724.8438 41.0125,724.9844 41.1688,725.25 C41.2625,725.4063 41.2781,725.5313 41.2781,725.9688 L41.2781,727.3906 C41.2781,727.8125 41.2469,728 41.1375,728.1563 C40.9656,728.375 40.7,728.5156 40.4344,728.5156 C40.2156,728.5156 39.9813,728.4063 39.8406,728.2656 C39.7,728.1406 39.6688,728.0156 39.6063,727.6094 C39.5125,727.2031 39.3406,726.9844 38.8563,726.7031 C38.3875,726.4531 37.7781,726.2969 37.2,726.2969 C35.4656,726.2969 34.2156,727.6094 34.2156,729.3906 L34.2156,730.4844 C34.2156,732.1875 35.5125,733.2813 37.5594,733.2813 C38.325,733.2813 39.0125,733.1563 39.4344,732.8906 C39.6219,732.7969 39.6219,732.7969 40.075,732.3125 C40.2625,732.125 40.4656,732.0469 40.6844,732.0469 C41.1531,732.0469 41.5438,732.4375 41.5438,732.8906 C41.5438,733.2813 41.2156,733.7344 40.6375,734.1406 C39.8875,734.6875 38.7313,734.9844 37.5125,734.9844 C34.6219,734.9844 32.5125,733.0938 32.5125,730.5156 L32.5125,729.3906 C32.5125,726.6719 34.5125,724.5938 37.1375,724.5938 C38.0125,724.5938 38.6063,724.7344 39.5438,725.1719 Z "/><text fill="#000000" font-family="sans-serif" font-size="12" lengthAdjust="spacingAndGlyphs" textLength="107" x="54.8" y="733.6543">ConcreteDrawing</text><line style="stroke: #A80036; stroke-width: 1.5;" x1="7" x2="180" y1="745.5" y2="745.5"/><line style="stroke: #A80036; stroke-width: 1.5;" x1="7" x2="180" y1="753.5" y2="753.5"/><ellipse cx="17" cy="765.4023" fill="#84BE84" rx="3" ry="3" style="stroke: #038048; stroke-width: 1.0;"/><text fill="#000000" font-family="sans-serif" font-size="11" lengthAdjust="spacingAndGlyphs" textLength="149" x="26" y="767.7104">@ draw(g: Graphics): void</text><ellipse cx="17" cy="778.207" fill="#84BE84" rx="3" ry="3" style="stroke: #038048; stroke-width: 1.0;"/><text fill="#000000" font-family="sans-serif" font-size="11" lengthAdjust="spacingAndGlyphs" textLength="140" x="26" y="780.5151">@ getDrawingWidth(): int</text><ellipse cx="17" cy="791.0117" fill="#84BE84" rx="3" ry="3" style="stroke: #038048; stroke-width: 1.0;"/><text fill="#000000" font-family="sans-serif" font-size="11" lengthAdjust="spacingAndGlyphs" textLength="146" x="26" y="793.3198">@ getDrawingHeight(): int</text><polygon fill="#FFA500" filter="url(#fsh9m91)" points="162,288,162,615.7891,495,615.7891,495,298,485,288,162,288" style="stroke: #A80036; stroke-width: 1.0;"/><polygon fill="#FFA500" points="162,288,162,615.7891,495,615.7891,495,298,485,288,332.5,288,328.5,228.039,324.5,288,162,288" style="stroke: #A80036; stroke-width: 1.0;"/><line style="stroke: #A80036; stroke-width: 1.0;" x1="485" x2="485" y1="288" y2="298"/><line style="stroke: #A80036; stroke-width: 1.0;" x1="495" x2="485" y1="298" y2="298"/><text fill="#000000" font-family="sans-serif" font-size="13" lengthAdjust="spacingAndGlyphs" textLength="275" x="168" y="305.0669">public DrawingPanel(AbstractDrawing dw) {</text><text fill="#000000" font-family="sans-serif" font-size="13" lengthAdjust="spacingAndGlyphs" textLength="50" x="176" y="320.1997">super();</text><text fill="#000000" font-family="sans-serif" font-size="13" lengthAdjust="spacingAndGlyphs" textLength="84" x="176" y="335.3325">this.dw = dw;</text><text fill="#000000" font-family="sans-serif" font-size="13" lengthAdjust="spacingAndGlyphs" textLength="0" x="176" y="350.4653"/><text fill="#000000" font-family="sans-serif" font-size="13" font-weight="bold" lengthAdjust="spacingAndGlyphs" textLength="212" x="176" y="350.4653">updatePanelPreferredSize();</text><text fill="#000000" font-family="sans-serif" font-size="13" lengthAdjust="spacingAndGlyphs" textLength="8" x="168" y="365.5981">}</text><text fill="#000000" font-family="sans-serif" font-size="13" lengthAdjust="spacingAndGlyphs" textLength="0" x="172" y="380.731"/><text fill="#000000" font-family="sans-serif" font-size="13" lengthAdjust="spacingAndGlyphs" textLength="290" x="168" y="395.8638">public void setDrawing(AbstractDrawing dw) {</text><text fill="#000000" font-family="sans-serif" font-size="13" lengthAdjust="spacingAndGlyphs" textLength="84" x="176" y="410.9966">this.dw = dw;</text><text fill="#000000" font-family="sans-serif" font-size="13" lengthAdjust="spacingAndGlyphs" textLength="0" x="176" y="426.1294"/><text fill="#000000" font-family="sans-serif" font-size="13" font-weight="bold" lengthAdjust="spacingAndGlyphs" textLength="212" x="176" y="426.1294">updatePanelPreferredSize();</text><text fill="#000000" font-family="sans-serif" font-size="13" lengthAdjust="spacingAndGlyphs" textLength="8" x="168" y="441.2622">}</text><text fill="#000000" font-family="sans-serif" font-size="13" lengthAdjust="spacingAndGlyphs" textLength="0" x="172" y="456.395"/><text fill="#000000" font-family="sans-serif" font-size="13" lengthAdjust="spacingAndGlyphs" textLength="268" x="168" y="471.5278">public void paintComponent(Graphics g) {</text><text fill="#000000" font-family="sans-serif" font-size="13" lengthAdjust="spacingAndGlyphs" textLength="169" x="176" y="486.6606">super.paintComponent(g);</text><text fill="#000000" font-family="sans-serif" font-size="13" lengthAdjust="spacingAndGlyphs" textLength="73" x="176" y="501.7935">dw.draw(g);</text><text fill="#000000" font-family="sans-serif" font-size="13" lengthAdjust="spacingAndGlyphs" textLength="8" x="168" y="516.9263">}</text><text fill="#000000" font-family="sans-serif" font-size="13" lengthAdjust="spacingAndGlyphs" textLength="0" x="172" y="532.0591"/><text fill="#000000" font-family="sans-serif" font-size="13" font-weight="bold" lengthAdjust="spacingAndGlyphs" textLength="300" x="168" y="547.1919">private void updatePanelPreferredSize()</text><text fill="#000000" font-family="sans-serif" font-size="13" lengthAdjust="spacingAndGlyphs" textLength="8" x="472" y="547.1919">{</text><text fill="#000000" font-family="sans-serif" font-size="13" lengthAdjust="spacingAndGlyphs" textLength="213" x="176" y="562.3247">setPreferredSize(new Dimension(</text><text fill="#000000" font-family="sans-serif" font-size="13" lengthAdjust="spacingAndGlyphs" textLength="279" x="184" y="577.4575">dw.getDrawingWidth() + HORIZONTAL_GAP,</text><text fill="#000000" font-family="sans-serif" font-size="13" lengthAdjust="spacingAndGlyphs" textLength="272" x="184" y="592.5903">dw.getDrawingHeight() + VERTICAL_GAP));</text><text fill="#000000" font-family="sans-serif" font-size="13" lengthAdjust="spacingAndGlyphs" textLength="8" x="168" y="607.7231">}</text><polygon fill="#FFA500" filter="url(#fsh9m91)" points="216,676,216,837.3281,515,837.3281,515,686,505,676,216,676" style="stroke: #A80036; stroke-width: 1.0;"/><polygon fill="#FFA500" points="216,676,216,752.5,181.156,756.5,216,760.5,216,837.3281,515,837.3281,515,686,505,676,216,676" style="stroke: #A80036; stroke-width: 1.0;"/><line style="stroke: #A80036; stroke-width: 1.0;" x1="505" x2="505" y1="676" y2="686"/><line style="stroke: #A80036; stroke-width: 1.0;" x1="515" x2="505" y1="686" y2="686"/><text fill="#000000" font-family="sans-serif" font-size="13" lengthAdjust="spacingAndGlyphs" textLength="191" x="222" y="693.0669">public void draw(Graphics g) {</text><text fill="#000000" font-family="sans-serif" font-size="13" lengthAdjust="spacingAndGlyphs" textLength="213" x="230" y="708.1997">Graphics2D g2d = (Graphics2D)g</text><text fill="#000000" font-family="sans-serif" font-size="13" lengthAdjust="spacingAndGlyphs" textLength="0" x="230" y="723.3325"/><text fill="#000000" font-family="sans-serif" font-size="13" font-style="italic" lengthAdjust="spacingAndGlyphs" textLength="270" x="230" y="723.3325">//add instructions for your specific drawing</text><text fill="#000000" font-family="sans-serif" font-size="13" lengthAdjust="spacingAndGlyphs" textLength="8" x="222" y="738.4653">}</text><text fill="#000000" font-family="sans-serif" font-size="13" font-weight="bold" lengthAdjust="spacingAndGlyphs" textLength="215" x="222" y="753.5981">public int getDrawingWidth()</text><text fill="#000000" font-family="sans-serif" font-size="13" lengthAdjust="spacingAndGlyphs" textLength="8" x="441" y="753.5981">{</text><text fill="#000000" font-family="sans-serif" font-size="13" lengthAdjust="spacingAndGlyphs" textLength="0" x="230" y="768.731"/><text fill="#000000" font-family="sans-serif" font-size="13" font-style="italic" lengthAdjust="spacingAndGlyphs" textLength="255" x="230" y="768.731">//compute and return the drawing width</text><text fill="#000000" font-family="sans-serif" font-size="13" lengthAdjust="spacingAndGlyphs" textLength="8" x="222" y="783.8638">}</text><text fill="#000000" font-family="sans-serif" font-size="13" font-weight="bold" lengthAdjust="spacingAndGlyphs" textLength="221" x="222" y="798.9966">public int getDrawingHeight()</text><text fill="#000000" font-family="sans-serif" font-size="13" lengthAdjust="spacingAndGlyphs" textLength="8" x="447" y="798.9966">{</text><text fill="#000000" font-family="sans-serif" font-size="13" lengthAdjust="spacingAndGlyphs" textLength="0" x="230" y="814.1294"/><text fill="#000000" font-family="sans-serif" font-size="13" font-style="italic" lengthAdjust="spacingAndGlyphs" textLength="260" x="230" y="814.1294">//compute and return the drawing height</text><text fill="#000000" font-family="sans-serif" font-size="13" lengthAdjust="spacingAndGlyphs" textLength="8" x="222" y="829.2622">}</text><path d="M769.5,82.791 C769.5,103.849 769.5,128.634 769.5,147.567 " fill="none" style="stroke: #A80036; stroke-width: 1.0;"/><polygon fill="none" points="762.5,82.598,769.5,62.598,776.5,82.598,762.5,82.598" style="stroke: #A80036; stroke-width: 1.0;"/><path d="M328.5,89.491 C328.5,102.349 328.5,116.163 328.5,128.946 " fill="none" style="stroke: #A80036; stroke-width: 1.0;"/><polygon fill="none" points="321.5,89.104,328.5,69.104,335.5,89.104,321.5,89.104" style="stroke: #A80036; stroke-width: 1.0;"/><path d="M93.5,241.937 C93.5,360.045 93.5,613.3 93.5,713.472 " fill="none" style="stroke: #A80036; stroke-width: 1.0;"/><polygon fill="none" points="86.5001,241.855,93.5,221.855,100.5001,241.855,86.5001,241.855" style="stroke: #A80036; stroke-width: 1.0;"/><path d="M178.536,178.5 C188.427,178.5 198.317,178.5 208.208,178.5 " fill="none" style="stroke: #A80036; stroke-width: 1.0;"/><polygon fill="#A80036" points="173.363,178.5,182.363,182.5,178.363,178.5,182.363,174.5,173.363,178.5" style="stroke: #A80036; stroke-width: 1.0;"/><path d="M454.018,178.5 C463.996,178.5 473.973,178.5 483.951,178.5 " fill="none" style="stroke: #A80036; stroke-width: 1.0;"/><polygon fill="#A80036" points="448.801,178.5,457.801,182.5,453.801,178.5,457.801,174.5,448.801,178.5" style="stroke: #A80036; stroke-width: 1.0;"/><path d="M590.623,178.5 C600.521,178.5 610.419,178.5 620.317,178.5 " fill="none" style="stroke: #A80036; stroke-width: 1.0;"/><polygon fill="#A80036" points="585.447,178.5,594.447,182.5,590.447,178.5,594.447,174.5,585.447,178.5" style="stroke: #A80036; stroke-width: 1.0;"/></g></svg>