<?xml version="1.0" encoding="UTF-8" standalone="no"?><svg xmlns="http://www.w3.org/2000/svg" xmlns:xlink="http://www.w3.org/1999/xlink" contentScriptType="application/ecmascript" contentStyleType="text/css" height="449px" preserveAspectRatio="none" style="width:599px;height:449px;" version="1.1" viewBox="0 0 599 449" width="599px" zoomAndPan="magnify"><defs><filter height="300%" id="fwplzur" width="300%" x="-1" y="-1"><feGaussianBlur result="blurOut" stdDeviation="2.0"/><feColorMatrix in="blurOut" result="blurOut2" type="matrix" values="0 0 0 0 0 0 0 0 0 0 0 0 0 0 0 0 0 0 .4 0"/><feOffset dx="4.0" dy="4.0" in="blurOut2" result="blurOut3"/><feBlend in="SourceGraphic" in2="blurOut3" mode="normal"/></filter></defs><g><!--class InputStream--><rect fill="#FEFECE" filter="url(#fwplzur)" height="163.2422" style="stroke: #A80036; stroke-width: 1.5;" width="221" x="15" y="8"/><ellipse cx="82.25" cy="24" fill="#A9DCDF" rx="11" ry="11" style="stroke: #A80036; stroke-width: 1.0;"/><path d="M83.8281,25.8125 L79.7813,25.8125 L79.3906,26.7969 L79.7813,26.7969 C80.2344,26.7969 80.375,26.8281 80.5469,26.9531 C80.7656,27.125 80.8906,27.375 80.8906,27.6563 C80.8906,27.9375 80.75,28.2344 80.4844,28.375 C80.3594,28.4688 80.1406,28.5 79.7813,28.5 L77.5156,28.5 C76.7656,28.5 76.3906,28.2188 76.3906,27.6563 C76.3906,27.3594 76.5469,27.0781 76.7969,26.9219 C76.9531,26.8125 77.1094,26.7969 77.5313,26.7969 L80.1719,20.2813 L79.0938,20.2813 C78.6563,20.2813 78.4844,20.25 78.3125,20.1406 C78.0938,19.9688 77.9531,19.7188 77.9531,19.4375 C77.9531,19.1563 78.1094,18.875 78.3594,18.7031 C78.5156,18.6094 78.6406,18.5938 79.0938,18.5938 L82.7656,18.5938 L86.1563,26.7969 C86.625,26.7969 86.7813,26.8281 86.9531,26.9688 C87.1719,27.125 87.3125,27.375 87.3125,27.6563 C87.3125,27.9375 87.1563,28.2344 86.9063,28.375 C86.7656,28.4688 86.5469,28.5 86.1875,28.5 L83.8281,28.5 C83.4063,28.5 83.2031,28.4531 83.0625,28.3281 C82.8438,28.1719 82.7031,27.9219 82.7031,27.6563 C82.7031,27.3594 82.8594,27.0781 83.1094,26.9219 C83.2656,26.8125 83.375,26.7969 83.8281,26.7969 L84.2188,26.7969 Z M83.125,24.1094 L81.7969,20.8438 L80.4531,24.1094 Z "/><text fill="#000000" font-family="sans-serif" font-size="12" font-style="italic" lengthAdjust="spacingAndGlyphs" textLength="78" x="102.75" y="28.1543">InputStream</text><line style="stroke: #A80036; stroke-width: 1.5;" x1="16" x2="235" y1="40" y2="40"/><line style="stroke: #A80036; stroke-width: 1.5;" x1="16" x2="235" y1="48" y2="48"/><ellipse cx="26" cy="59.9023" fill="#84BE84" rx="3" ry="3" style="stroke: #038048; stroke-width: 1.0;"/><text fill="#000000" font-family="sans-serif" font-size="11" lengthAdjust="spacingAndGlyphs" textLength="80" x="35" y="62.2104">available(): int</text><ellipse cx="26" cy="72.707" fill="#84BE84" rx="3" ry="3" style="stroke: #038048; stroke-width: 1.0;"/><text fill="#000000" font-family="sans-serif" font-size="11" lengthAdjust="spacingAndGlyphs" textLength="69" x="35" y="75.0151">close(): void</text><ellipse cx="26" cy="85.5117" fill="#84BE84" rx="3" ry="3" style="stroke: #038048; stroke-width: 1.0;"/><text fill="#000000" font-family="sans-serif" font-size="11" lengthAdjust="spacingAndGlyphs" textLength="140" x="35" y="87.8198">mark(readlimit: int): void</text><ellipse cx="26" cy="98.3164" fill="#84BE84" rx="3" ry="3" style="stroke: #038048; stroke-width: 1.0;"/><text fill="#000000" font-family="sans-serif" font-size="11" lengthAdjust="spacingAndGlyphs" textLength="149" x="35" y="100.6245">markSupported(): boolean</text><ellipse cx="26" cy="111.1211" fill="#84BE84" rx="3" ry="3" style="stroke: #038048; stroke-width: 1.0;"/><text fill="#000000" font-family="sans-serif" font-size="11" font-style="italic" font-weight="bold" lengthAdjust="spacingAndGlyphs" textLength="62" x="35" y="113.4292">read(): int</text><ellipse cx="26" cy="123.9258" fill="#84BE84" rx="3" ry="3" style="stroke: #038048; stroke-width: 1.0;"/><text fill="#000000" font-family="sans-serif" font-size="11" lengthAdjust="spacingAndGlyphs" textLength="103" x="35" y="126.2339">read(b: byte[]): int</text><ellipse cx="26" cy="136.7305" fill="#84BE84" rx="3" ry="3" style="stroke: #038048; stroke-width: 1.0;"/><text fill="#000000" font-family="sans-serif" font-size="11" lengthAdjust="spacingAndGlyphs" textLength="195" x="35" y="139.0386">read(b: byte[], off: int, len: int): int</text><ellipse cx="26" cy="149.5352" fill="#84BE84" rx="3" ry="3" style="stroke: #038048; stroke-width: 1.0;"/><text fill="#000000" font-family="sans-serif" font-size="11" lengthAdjust="spacingAndGlyphs" textLength="69" x="35" y="151.8433">reset(): void</text><ellipse cx="26" cy="162.3398" fill="#84BE84" rx="3" ry="3" style="stroke: #038048; stroke-width: 1.0;"/><text fill="#000000" font-family="sans-serif" font-size="11" lengthAdjust="spacingAndGlyphs" textLength="102" x="35" y="164.6479">skip(n: long): long</text><!--class OutputStream--><rect fill="#FEFECE" filter="url(#fwplzur)" height="112.0234" style="stroke: #A80036; stroke-width: 1.5;" width="232" x="319.5" y="33.5"/><ellipse cx="387.75" cy="49.5" fill="#A9DCDF" rx="11" ry="11" style="stroke: #A80036; stroke-width: 1.0;"/><path d="M389.3281,51.3125 L385.2813,51.3125 L384.8906,52.2969 L385.2813,52.2969 C385.7344,52.2969 385.875,52.3281 386.0469,52.4531 C386.2656,52.625 386.3906,52.875 386.3906,53.1563 C386.3906,53.4375 386.25,53.7344 385.9844,53.875 C385.8594,53.9688 385.6406,54 385.2813,54 L383.0156,54 C382.2656,54 381.8906,53.7188 381.8906,53.1563 C381.8906,52.8594 382.0469,52.5781 382.2969,52.4219 C382.4531,52.3125 382.6094,52.2969 383.0313,52.2969 L385.6719,45.7813 L384.5938,45.7813 C384.1563,45.7813 383.9844,45.75 383.8125,45.6406 C383.5938,45.4688 383.4531,45.2188 383.4531,44.9375 C383.4531,44.6563 383.6094,44.375 383.8594,44.2031 C384.0156,44.1094 384.1406,44.0938 384.5938,44.0938 L388.2656,44.0938 L391.6563,52.2969 C392.125,52.2969 392.2813,52.3281 392.4531,52.4688 C392.6719,52.625 392.8125,52.875 392.8125,53.1563 C392.8125,53.4375 392.6563,53.7344 392.4063,53.875 C392.2656,53.9688 392.0469,54 391.6875,54 L389.3281,54 C388.9063,54 388.7031,53.9531 388.5625,53.8281 C388.3438,53.6719 388.2031,53.4219 388.2031,53.1563 C388.2031,52.8594 388.3594,52.5781 388.6094,52.4219 C388.7656,52.3125 388.875,52.2969 389.3281,52.2969 L389.7188,52.2969 Z M388.625,49.6094 L387.2969,46.3438 L385.9531,49.6094 Z "/><text fill="#000000" font-family="sans-serif" font-size="12" font-style="italic" lengthAdjust="spacingAndGlyphs" textLength="87" x="408.25" y="53.6543">OutputStream</text><line style="stroke: #A80036; stroke-width: 1.5;" x1="320.5" x2="550.5" y1="65.5" y2="65.5"/><line style="stroke: #A80036; stroke-width: 1.5;" x1="320.5" x2="550.5" y1="73.5" y2="73.5"/><ellipse cx="330.5" cy="85.4023" fill="#84BE84" rx="3" ry="3" style="stroke: #038048; stroke-width: 1.0;"/><text fill="#000000" font-family="sans-serif" font-size="11" lengthAdjust="spacingAndGlyphs" textLength="69" x="339.5" y="87.7104">close(): void</text><ellipse cx="330.5" cy="98.207" fill="#84BE84" rx="3" ry="3" style="stroke: #038048; stroke-width: 1.0;"/><text fill="#000000" font-family="sans-serif" font-size="11" lengthAdjust="spacingAndGlyphs" textLength="67" x="339.5" y="100.5151">flush(): void</text><ellipse cx="330.5" cy="111.0117" fill="#84BE84" rx="3" ry="3" style="stroke: #038048; stroke-width: 1.0;"/><text fill="#000000" font-family="sans-serif" font-size="11" font-style="italic" font-weight="bold" lengthAdjust="spacingAndGlyphs" textLength="109" x="339.5" y="113.3198">write(b: int): void</text><ellipse cx="330.5" cy="123.8164" fill="#84BE84" rx="3" ry="3" style="stroke: #038048; stroke-width: 1.0;"/><text fill="#000000" font-family="sans-serif" font-size="11" lengthAdjust="spacingAndGlyphs" textLength="114" x="339.5" y="126.1245">write(b: byte[]): void</text><ellipse cx="330.5" cy="136.6211" fill="#84BE84" rx="3" ry="3" style="stroke: #038048; stroke-width: 1.0;"/><text fill="#000000" font-family="sans-serif" font-size="11" lengthAdjust="spacingAndGlyphs" textLength="206" x="339.5" y="138.9292">write(b: byte[], off: int, len: int): void</text><!--class FileInputStream--><rect fill="#FEFECE" filter="url(#fwplzur)" height="209.6563" style="stroke: #A80036; stroke-width: 1.5;" width="239" x="6" y="231"/><ellipse cx="72.25" cy="247" fill="#ADD1B2" rx="11" ry="11" style="stroke: #A80036; stroke-width: 1.0;"/><path d="M74.5938,242.6719 L74.7656,242.75 C74.9844,242.4375 75.1875,242.3438 75.4844,242.3438 C75.7813,242.3438 76.0625,242.4844 76.2188,242.75 C76.3125,242.9063 76.3281,243.0313 76.3281,243.4688 L76.3281,244.8906 C76.3281,245.3125 76.2969,245.5 76.1875,245.6563 C76.0156,245.875 75.75,246.0156 75.4844,246.0156 C75.2656,246.0156 75.0313,245.9063 74.8906,245.7656 C74.75,245.6406 74.7188,245.5156 74.6563,245.1094 C74.5625,244.7031 74.3906,244.4844 73.9063,244.2031 C73.4375,243.9531 72.8281,243.7969 72.25,243.7969 C70.5156,243.7969 69.2656,245.1094 69.2656,246.8906 L69.2656,247.9844 C69.2656,249.6875 70.5625,250.7813 72.6094,250.7813 C73.375,250.7813 74.0625,250.6563 74.4844,250.3906 C74.6719,250.2969 74.6719,250.2969 75.125,249.8125 C75.3125,249.625 75.5156,249.5469 75.7344,249.5469 C76.2031,249.5469 76.5938,249.9375 76.5938,250.3906 C76.5938,250.7813 76.2656,251.2344 75.6875,251.6406 C74.9375,252.1875 73.7813,252.4844 72.5625,252.4844 C69.6719,252.4844 67.5625,250.5938 67.5625,248.0156 L67.5625,246.8906 C67.5625,244.1719 69.5625,242.0938 72.1875,242.0938 C73.0625,242.0938 73.6563,242.2344 74.5938,242.6719 Z "/><text fill="#000000" font-family="sans-serif" font-size="12" lengthAdjust="spacingAndGlyphs" textLength="98" x="92.75" y="251.1543">FileInputStream</text><line style="stroke: #A80036; stroke-width: 1.5;" x1="7" x2="244" y1="263" y2="263"/><line style="stroke: #A80036; stroke-width: 1.0;" x1="7" x2="244" y1="271" y2="271"/><ellipse cx="17" cy="282.9023" fill="#84BE84" rx="3" ry="3" style="stroke: #038048; stroke-width: 1.0;"/><text fill="#000000" font-family="sans-serif" font-size="11" lengthAdjust="spacingAndGlyphs" textLength="141" x="26" y="285.2104">FileInputStream(file: File)</text><ellipse cx="17" cy="295.707" fill="#84BE84" rx="3" ry="3" style="stroke: #038048; stroke-width: 1.0;"/><text fill="#000000" font-family="sans-serif" font-size="11" lengthAdjust="spacingAndGlyphs" textLength="213" x="26" y="298.0151">FileInputStream(fdObj: FileDescriptor)</text><ellipse cx="17" cy="308.5117" fill="#84BE84" rx="3" ry="3" style="stroke: #038048; stroke-width: 1.0;"/><text fill="#000000" font-family="sans-serif" font-size="11" lengthAdjust="spacingAndGlyphs" textLength="171" x="26" y="310.8198">FileInputStream(name: String)</text><line style="stroke: #A80036; stroke-width: 1.0; stroke-dasharray: 1.0,2.0;" x1="7" x2="244" y1="317.4141" y2="317.4141"/><ellipse cx="17" cy="329.3164" fill="#84BE84" rx="3" ry="3" style="stroke: #038048; stroke-width: 1.0;"/><text fill="#000000" font-family="sans-serif" font-size="11" lengthAdjust="spacingAndGlyphs" textLength="92" x="26" y="331.6245">@available(): int</text><ellipse cx="17" cy="342.1211" fill="#84BE84" rx="3" ry="3" style="stroke: #038048; stroke-width: 1.0;"/><text fill="#000000" font-family="sans-serif" font-size="11" lengthAdjust="spacingAndGlyphs" textLength="81" x="26" y="344.4292">@close(): void</text><polygon fill="#FFFF44" points="17,349.9258,21,353.9258,17,357.9258,13,353.9258" style="stroke: #B38D22; stroke-width: 1.0;"/><text fill="#000000" font-family="sans-serif" font-size="11" lengthAdjust="spacingAndGlyphs" textLength="78" x="26" y="357.2339">finalize(): void</text><ellipse cx="17" cy="367.7305" fill="#84BE84" rx="3" ry="3" style="stroke: #038048; stroke-width: 1.0;"/><text fill="#000000" font-family="sans-serif" font-size="11" lengthAdjust="spacingAndGlyphs" textLength="145" x="26" y="370.0386">getChannel(): FileChannel</text><ellipse cx="17" cy="380.5352" fill="#84BE84" rx="3" ry="3" style="stroke: #038048; stroke-width: 1.0;"/><text fill="#000000" font-family="sans-serif" font-size="11" lengthAdjust="spacingAndGlyphs" textLength="130" x="26" y="382.8433">getFD():  FileDescriptor</text><ellipse cx="17" cy="393.3398" fill="#84BE84" rx="3" ry="3" style="stroke: #038048; stroke-width: 1.0;"/><text fill="#000000" font-family="sans-serif" font-size="11" lengthAdjust="spacingAndGlyphs" textLength="12" x="26" y="395.6479">@</text><text fill="#000000" font-family="sans-serif" font-size="11" font-weight="bold" lengthAdjust="spacingAndGlyphs" textLength="64" x="38" y="395.6479">read(): int</text><ellipse cx="17" cy="406.1445" fill="#84BE84" rx="3" ry="3" style="stroke: #038048; stroke-width: 1.0;"/><text fill="#000000" font-family="sans-serif" font-size="11" lengthAdjust="spacingAndGlyphs" textLength="115" x="26" y="408.4526">@read(b: byte[]): int</text><ellipse cx="17" cy="418.9492" fill="#84BE84" rx="3" ry="3" style="stroke: #038048; stroke-width: 1.0;"/><text fill="#000000" font-family="sans-serif" font-size="11" lengthAdjust="spacingAndGlyphs" textLength="207" x="26" y="421.2573">@read(b: byte[], off: int, len: int): int</text><ellipse cx="17" cy="431.7539" fill="#84BE84" rx="3" ry="3" style="stroke: #038048; stroke-width: 1.0;"/><text fill="#000000" font-family="sans-serif" font-size="11" lengthAdjust="spacingAndGlyphs" textLength="114" x="26" y="434.062">@skip(n: long): long</text><!--class FileOutputStream--><rect fill="#FEFECE" filter="url(#fwplzur)" height="209.6563" style="stroke: #A80036; stroke-width: 1.5;" width="310" x="280.5" y="231"/><ellipse cx="376.75" cy="247" fill="#ADD1B2" rx="11" ry="11" style="stroke: #A80036; stroke-width: 1.0;"/><path d="M379.0938,242.6719 L379.2656,242.75 C379.4844,242.4375 379.6875,242.3438 379.9844,242.3438 C380.2813,242.3438 380.5625,242.4844 380.7188,242.75 C380.8125,242.9063 380.8281,243.0313 380.8281,243.4688 L380.8281,244.8906 C380.8281,245.3125 380.7969,245.5 380.6875,245.6563 C380.5156,245.875 380.25,246.0156 379.9844,246.0156 C379.7656,246.0156 379.5313,245.9063 379.3906,245.7656 C379.25,245.6406 379.2188,245.5156 379.1563,245.1094 C379.0625,244.7031 378.8906,244.4844 378.4063,244.2031 C377.9375,243.9531 377.3281,243.7969 376.75,243.7969 C375.0156,243.7969 373.7656,245.1094 373.7656,246.8906 L373.7656,247.9844 C373.7656,249.6875 375.0625,250.7813 377.1094,250.7813 C377.875,250.7813 378.5625,250.6563 378.9844,250.3906 C379.1719,250.2969 379.1719,250.2969 379.625,249.8125 C379.8125,249.625 380.0156,249.5469 380.2344,249.5469 C380.7031,249.5469 381.0938,249.9375 381.0938,250.3906 C381.0938,250.7813 380.7656,251.2344 380.1875,251.6406 C379.4375,252.1875 378.2813,252.4844 377.0625,252.4844 C374.1719,252.4844 372.0625,250.5938 372.0625,248.0156 L372.0625,246.8906 C372.0625,244.1719 374.0625,242.0938 376.6875,242.0938 C377.5625,242.0938 378.1563,242.2344 379.0938,242.6719 Z "/><text fill="#000000" font-family="sans-serif" font-size="12" lengthAdjust="spacingAndGlyphs" textLength="109" x="397.25" y="251.1543">FileOutputStream</text><line style="stroke: #A80036; stroke-width: 1.5;" x1="281.5" x2="589.5" y1="263" y2="263"/><line style="stroke: #A80036; stroke-width: 1.0;" x1="281.5" x2="589.5" y1="271" y2="271"/><ellipse cx="291.5" cy="282.9023" fill="#84BE84" rx="3" ry="3" style="stroke: #038048; stroke-width: 1.0;"/><text fill="#000000" font-family="sans-serif" font-size="11" lengthAdjust="spacingAndGlyphs" textLength="151" x="300.5" y="285.2104">FileOutputStream(file: File)</text><ellipse cx="291.5" cy="295.707" fill="#84BE84" rx="3" ry="3" style="stroke: #038048; stroke-width: 1.0;"/><text fill="#000000" font-family="sans-serif" font-size="11" lengthAdjust="spacingAndGlyphs" textLength="254" x="300.5" y="298.0151">FileOutputStream(file: File, append: boolean)</text><ellipse cx="291.5" cy="308.5117" fill="#84BE84" rx="3" ry="3" style="stroke: #038048; stroke-width: 1.0;"/><text fill="#000000" font-family="sans-serif" font-size="11" lengthAdjust="spacingAndGlyphs" textLength="223" x="300.5" y="310.8198">FileOutputStream(fdObj: FileDescriptor)</text><ellipse cx="291.5" cy="321.3164" fill="#84BE84" rx="3" ry="3" style="stroke: #038048; stroke-width: 1.0;"/><text fill="#000000" font-family="sans-serif" font-size="11" lengthAdjust="spacingAndGlyphs" textLength="181" x="300.5" y="323.6245">FileOutputStream(name: String)</text><ellipse cx="291.5" cy="334.1211" fill="#84BE84" rx="3" ry="3" style="stroke: #038048; stroke-width: 1.0;"/><text fill="#000000" font-family="sans-serif" font-size="11" lengthAdjust="spacingAndGlyphs" textLength="284" x="300.5" y="336.4292">FileOutputStream(name: String, append: boolean)</text><line style="stroke: #A80036; stroke-width: 1.0; stroke-dasharray: 1.0,2.0;" x1="281.5" x2="589.5" y1="343.0234" y2="343.0234"/><ellipse cx="291.5" cy="354.9258" fill="#84BE84" rx="3" ry="3" style="stroke: #038048; stroke-width: 1.0;"/><text fill="#000000" font-family="sans-serif" font-size="11" lengthAdjust="spacingAndGlyphs" textLength="81" x="300.5" y="357.2339">@close(): void</text><polygon fill="#FFFF44" points="291.5,362.7305,295.5,366.7305,291.5,370.7305,287.5,366.7305" style="stroke: #B38D22; stroke-width: 1.0;"/><text fill="#000000" font-family="sans-serif" font-size="11" lengthAdjust="spacingAndGlyphs" textLength="78" x="300.5" y="370.0386">finalize(): void</text><ellipse cx="291.5" cy="380.5352" fill="#84BE84" rx="3" ry="3" style="stroke: #038048; stroke-width: 1.0;"/><text fill="#000000" font-family="sans-serif" font-size="11" lengthAdjust="spacingAndGlyphs" textLength="145" x="300.5" y="382.8433">getChannel(): FileChannel</text><ellipse cx="291.5" cy="393.3398" fill="#84BE84" rx="3" ry="3" style="stroke: #038048; stroke-width: 1.0;"/><text fill="#000000" font-family="sans-serif" font-size="11" lengthAdjust="spacingAndGlyphs" textLength="130" x="300.5" y="395.6479">getFD():  FileDescriptor</text><ellipse cx="291.5" cy="406.1445" fill="#84BE84" rx="3" ry="3" style="stroke: #038048; stroke-width: 1.0;"/><text fill="#000000" font-family="sans-serif" font-size="11" lengthAdjust="spacingAndGlyphs" textLength="12" x="300.5" y="408.4526">@</text><text fill="#000000" font-family="sans-serif" font-size="11" font-weight="bold" lengthAdjust="spacingAndGlyphs" textLength="111" x="312.5" y="408.4526">write(b: int): void</text><ellipse cx="291.5" cy="418.9492" fill="#84BE84" rx="3" ry="3" style="stroke: #038048; stroke-width: 1.0;"/><text fill="#000000" font-family="sans-serif" font-size="11" lengthAdjust="spacingAndGlyphs" textLength="126" x="300.5" y="421.2573">@write(b: byte[]): void</text><ellipse cx="291.5" cy="431.7539" fill="#84BE84" rx="3" ry="3" style="stroke: #038048; stroke-width: 1.0;"/><text fill="#000000" font-family="sans-serif" font-size="11" lengthAdjust="spacingAndGlyphs" textLength="218" x="300.5" y="434.062">@write(b: byte[], off: int, len: int): void</text><path d="M125.5,191.341 C125.5,204.366 125.5,217.726 125.5,230.804 " fill="none" style="stroke: #A80036; stroke-width: 1.0;"/><polygon fill="none" points="118.5,191.236,125.5,171.236,132.5,191.236,118.5,191.236" style="stroke: #A80036; stroke-width: 1.0;"/><path d="M435.5,165.832 C435.5,186.397 435.5,209.05 435.5,230.91 " fill="none" style="stroke: #A80036; stroke-width: 1.0;"/><polygon fill="none" points="428.5,165.675,435.5,145.675,442.5,165.675,428.5,165.675" style="stroke: #A80036; stroke-width: 1.0;"/></g></svg>