<?xml version="1.0" encoding="UTF-8" standalone="no"?>
<svg xmlns="http://www.w3.org/2000/svg" xmlns:xlink="http://www.w3.org/1999/xlink" contentScriptType="application/ecmascript" contentStyleType="text/css" height="483px" preserveAspectRatio="none" style="width:815px;height:483px;" version="1.1" viewBox="0 0 815 483" width="815px" zoomAndPan="magnify"><defs><filter height="300%" id="fh76i03" width="300%" x="-1" y="-1"><feGaussianBlur result="blurOut" stdDeviation="2.0"/><feColorMatrix in="blurOut" result="blurOut2" type="matrix" values="0 0 0 0 0 0 0 0 0 0 0 0 0 0 0 0 0 0 .4 0"/><feOffset dx="4.0" dy="4.0" in="blurOut2" result="blurOut3"/><feBlend in="SourceGraphic" in2="blurOut3" mode="normal"/></filter></defs><g><!--class Reader--><rect fill="#FEFECE" filter="url(#fh76i03)" height="222.4609" style="stroke: #A80036; stroke-width: 1.5;" width="249" x="67.5" y="8"/><ellipse cx="165.25" cy="24" fill="#A9DCDF" rx="11" ry="11" style="stroke: #A80036; stroke-width: 1.0;"/><path d="M166.8281,25.8125 L162.7813,25.8125 L162.3906,26.7969 L162.7813,26.7969 C163.2344,26.7969 163.375,26.8281 163.5469,26.9531 C163.7656,27.125 163.8906,27.375 163.8906,27.6563 C163.8906,27.9375 163.75,28.2344 163.4844,28.375 C163.3594,28.4688 163.1406,28.5 162.7813,28.5 L160.5156,28.5 C159.7656,28.5 159.3906,28.2188 159.3906,27.6563 C159.3906,27.3594 159.5469,27.0781 159.7969,26.9219 C159.9531,26.8125 160.1094,26.7969 160.5313,26.7969 L163.1719,20.2813 L162.0938,20.2813 C161.6563,20.2813 161.4844,20.25 161.3125,20.1406 C161.0938,19.9688 160.9531,19.7188 160.9531,19.4375 C160.9531,19.1563 161.1094,18.875 161.3594,18.7031 C161.5156,18.6094 161.6406,18.5938 162.0938,18.5938 L165.7656,18.5938 L169.1563,26.7969 C169.625,26.7969 169.7813,26.8281 169.9531,26.9688 C170.1719,27.125 170.3125,27.375 170.3125,27.6563 C170.3125,27.9375 170.1563,28.2344 169.9063,28.375 C169.7656,28.4688 169.5469,28.5 169.1875,28.5 L166.8281,28.5 C166.4063,28.5 166.2031,28.4531 166.0625,28.3281 C165.8438,28.1719 165.7031,27.9219 165.7031,27.6563 C165.7031,27.3594 165.8594,27.0781 166.1094,26.9219 C166.2656,26.8125 166.375,26.7969 166.8281,26.7969 L167.2188,26.7969 Z M166.125,24.1094 L164.7969,20.8438 L163.4531,24.1094 Z "/><text fill="#000000" font-family="sans-serif" font-size="12" font-style="italic" lengthAdjust="spacingAndGlyphs" textLength="45" x="185.75" y="28.1543">Reader</text><line style="stroke: #A80036; stroke-width: 1.5;" x1="68.5" x2="315.5" y1="40" y2="40"/><polygon fill="none" points="78.5,46.9023,82.5,50.9023,78.5,54.9023,74.5,50.9023" style="stroke: #B38D22; stroke-width: 1.0;"/><text fill="#000000" font-family="sans-serif" font-size="11" lengthAdjust="spacingAndGlyphs" textLength="66" x="87.5" y="54.2104">lock: Object</text><line style="stroke: #A80036; stroke-width: 1.0;" x1="68.5" x2="315.5" y1="60.8047" y2="60.8047"/><polygon fill="#FFFF44" points="78.5,67.707,82.5,71.707,78.5,75.707,74.5,71.707" style="stroke: #B38D22; stroke-width: 1.0;"/><text fill="#000000" font-family="sans-serif" font-size="11" lengthAdjust="spacingAndGlyphs" textLength="48" x="87.5" y="75.0151">Reader()</text><polygon fill="#FFFF44" points="78.5,80.5117,82.5,84.5117,78.5,88.5117,74.5,84.5117" style="stroke: #B38D22; stroke-width: 1.0;"/><text fill="#000000" font-family="sans-serif" font-size="11" lengthAdjust="spacingAndGlyphs" textLength="114" x="87.5" y="87.8198">Reader(lock: Object)</text><line style="stroke: #A80036; stroke-width: 1.0; stroke-dasharray: 1.0,2.0;" x1="68.5" x2="315.5" y1="94.4141" y2="94.4141"/><ellipse cx="78.5" cy="106.3164" fill="#84BE84" rx="3" ry="3" style="stroke: #038048; stroke-width: 1.0;"/><text fill="#000000" font-family="sans-serif" font-size="11" font-style="italic" lengthAdjust="spacingAndGlyphs" textLength="69" x="87.5" y="108.6245">close(): void</text><ellipse cx="78.5" cy="119.1211" fill="#84BE84" rx="3" ry="3" style="stroke: #038048; stroke-width: 1.0;"/><text fill="#000000" font-family="sans-serif" font-size="11" lengthAdjust="spacingAndGlyphs" textLength="178" x="87.5" y="121.4292">mark(readAheadLimit: int): void</text><ellipse cx="78.5" cy="131.9258" fill="#84BE84" rx="3" ry="3" style="stroke: #038048; stroke-width: 1.0;"/><text fill="#000000" font-family="sans-serif" font-size="11" lengthAdjust="spacingAndGlyphs" textLength="149" x="87.5" y="134.2339">markSupported(): boolean</text><ellipse cx="78.5" cy="144.7305" fill="#84BE84" rx="3" ry="3" style="stroke: #038048; stroke-width: 1.0;"/><text fill="#000000" font-family="sans-serif" font-size="11" lengthAdjust="spacingAndGlyphs" textLength="56" x="87.5" y="147.0386">read(): int</text><ellipse cx="78.5" cy="157.5352" fill="#84BE84" rx="3" ry="3" style="stroke: #038048; stroke-width: 1.0;"/><text fill="#000000" font-family="sans-serif" font-size="11" lengthAdjust="spacingAndGlyphs" textLength="121" x="87.5" y="159.8433">read(cbuf: char[]): int</text><ellipse cx="78.5" cy="170.3398" fill="#84BE84" rx="3" ry="3" style="stroke: #038048; stroke-width: 1.0;"/><text fill="#000000" font-family="sans-serif" font-size="11" font-style="italic" lengthAdjust="spacingAndGlyphs" textLength="223" x="87.5" y="172.6479">read(cbuf: char[], off: int, len: int): void</text><ellipse cx="78.5" cy="183.1445" fill="#84BE84" rx="3" ry="3" style="stroke: #038048; stroke-width: 1.0;"/><text fill="#000000" font-family="sans-serif" font-size="11" lengthAdjust="spacingAndGlyphs" textLength="160" x="87.5" y="185.4526">read(target: CharBuffer): int</text><ellipse cx="78.5" cy="195.9492" fill="#84BE84" rx="3" ry="3" style="stroke: #038048; stroke-width: 1.0;"/><text fill="#000000" font-family="sans-serif" font-size="11" lengthAdjust="spacingAndGlyphs" textLength="93" x="87.5" y="198.2573">ready(): boolean</text><ellipse cx="78.5" cy="208.7539" fill="#84BE84" rx="3" ry="3" style="stroke: #038048; stroke-width: 1.0;"/><text fill="#000000" font-family="sans-serif" font-size="11" lengthAdjust="spacingAndGlyphs" textLength="69" x="87.5" y="211.062">reset(): void</text><ellipse cx="78.5" cy="221.5586" fill="#84BE84" rx="3" ry="3" style="stroke: #038048; stroke-width: 1.0;"/><text fill="#000000" font-family="sans-serif" font-size="11" lengthAdjust="spacingAndGlyphs" textLength="102" x="87.5" y="223.8667">skip(n: long): long</text><!--class Writer--><rect fill="#FEFECE" filter="url(#fh76i03)" height="222.4609" style="stroke: #A80036; stroke-width: 1.5;" width="336" x="442" y="8"/><ellipse cx="586.75" cy="24" fill="#A9DCDF" rx="11" ry="11" style="stroke: #A80036; stroke-width: 1.0;"/><path d="M588.3281,25.8125 L584.2813,25.8125 L583.8906,26.7969 L584.2813,26.7969 C584.7344,26.7969 584.875,26.8281 585.0469,26.9531 C585.2656,27.125 585.3906,27.375 585.3906,27.6563 C585.3906,27.9375 585.25,28.2344 584.9844,28.375 C584.8594,28.4688 584.6406,28.5 584.2813,28.5 L582.0156,28.5 C581.2656,28.5 580.8906,28.2188 580.8906,27.6563 C580.8906,27.3594 581.0469,27.0781 581.2969,26.9219 C581.4531,26.8125 581.6094,26.7969 582.0313,26.7969 L584.6719,20.2813 L583.5938,20.2813 C583.1563,20.2813 582.9844,20.25 582.8125,20.1406 C582.5938,19.9688 582.4531,19.7188 582.4531,19.4375 C582.4531,19.1563 582.6094,18.875 582.8594,18.7031 C583.0156,18.6094 583.1406,18.5938 583.5938,18.5938 L587.2656,18.5938 L590.6563,26.7969 C591.125,26.7969 591.2813,26.8281 591.4531,26.9688 C591.6719,27.125 591.8125,27.375 591.8125,27.6563 C591.8125,27.9375 591.6563,28.2344 591.4063,28.375 C591.2656,28.4688 591.0469,28.5 590.6875,28.5 L588.3281,28.5 C587.9063,28.5 587.7031,28.4531 587.5625,28.3281 C587.3438,28.1719 587.2031,27.9219 587.2031,27.6563 C587.2031,27.3594 587.3594,27.0781 587.6094,26.9219 C587.7656,26.8125 587.875,26.7969 588.3281,26.7969 L588.7188,26.7969 Z M587.625,24.1094 L586.2969,20.8438 L584.9531,24.1094 Z "/><text fill="#000000" font-family="sans-serif" font-size="12" font-style="italic" lengthAdjust="spacingAndGlyphs" textLength="38" x="607.25" y="28.1543">Writer</text><line style="stroke: #A80036; stroke-width: 1.5;" x1="443" x2="777" y1="40" y2="40"/><polygon fill="none" points="453,46.9023,457,50.9023,453,54.9023,449,50.9023" style="stroke: #B38D22; stroke-width: 1.0;"/><text fill="#000000" font-family="sans-serif" font-size="11" lengthAdjust="spacingAndGlyphs" textLength="66" x="462" y="54.2104">lock: Object</text><line style="stroke: #A80036; stroke-width: 1.0;" x1="443" x2="777" y1="60.8047" y2="60.8047"/><polygon fill="#FFFF44" points="453,67.707,457,71.707,453,75.707,449,71.707" style="stroke: #B38D22; stroke-width: 1.0;"/><text fill="#000000" font-family="sans-serif" font-size="11" lengthAdjust="spacingAndGlyphs" textLength="41" x="462" y="75.0151">Writer()</text><polygon fill="#FFFF44" points="453,80.5117,457,84.5117,453,88.5117,449,84.5117" style="stroke: #B38D22; stroke-width: 1.0;"/><text fill="#000000" font-family="sans-serif" font-size="11" lengthAdjust="spacingAndGlyphs" textLength="107" x="462" y="87.8198">Writer(lock: Object)</text><line style="stroke: #A80036; stroke-width: 1.0; stroke-dasharray: 1.0,2.0;" x1="443" x2="777" y1="94.4141" y2="94.4141"/><ellipse cx="453" cy="106.3164" fill="#84BE84" rx="3" ry="3" style="stroke: #038048; stroke-width: 1.0;"/><text fill="#000000" font-family="sans-serif" font-size="11" lengthAdjust="spacingAndGlyphs" textLength="130" x="462" y="108.6245">append(c: char): Writer</text><ellipse cx="453" cy="119.1211" fill="#84BE84" rx="3" ry="3" style="stroke: #038048; stroke-width: 1.0;"/><text fill="#000000" font-family="sans-serif" font-size="11" lengthAdjust="spacingAndGlyphs" textLength="202" x="462" y="121.4292">append(csq: CharSequence): Writer</text><ellipse cx="453" cy="131.9258" fill="#84BE84" rx="3" ry="3" style="stroke: #038048; stroke-width: 1.0;"/><text fill="#000000" font-family="sans-serif" font-size="11" lengthAdjust="spacingAndGlyphs" textLength="310" x="462" y="134.2339">append(csq: CharSequence, start: int, end: int): Writer</text><ellipse cx="453" cy="144.7305" fill="#84BE84" rx="3" ry="3" style="stroke: #038048; stroke-width: 1.0;"/><text fill="#000000" font-family="sans-serif" font-size="11" font-style="italic" lengthAdjust="spacingAndGlyphs" textLength="69" x="462" y="147.0386">close(): void</text><ellipse cx="453" cy="157.5352" fill="#84BE84" rx="3" ry="3" style="stroke: #038048; stroke-width: 1.0;"/><text fill="#000000" font-family="sans-serif" font-size="11" font-style="italic" lengthAdjust="spacingAndGlyphs" textLength="67" x="462" y="159.8433">flush(): void</text><ellipse cx="453" cy="170.3398" fill="#84BE84" rx="3" ry="3" style="stroke: #038048; stroke-width: 1.0;"/><text fill="#000000" font-family="sans-serif" font-size="11" lengthAdjust="spacingAndGlyphs" textLength="132" x="462" y="172.6479">write(cbuf: char[]): void</text><ellipse cx="453" cy="183.1445" fill="#84BE84" rx="3" ry="3" style="stroke: #038048; stroke-width: 1.0;"/><text fill="#000000" font-family="sans-serif" font-size="11" font-style="italic" lengthAdjust="spacingAndGlyphs" textLength="225" x="462" y="185.4526">write(cbuf: char[], off: int, len: int): void</text><ellipse cx="453" cy="195.9492" fill="#84BE84" rx="3" ry="3" style="stroke: #038048; stroke-width: 1.0;"/><text fill="#000000" font-family="sans-serif" font-size="11" lengthAdjust="spacingAndGlyphs" textLength="95" x="462" y="198.2573">write(c: int): void</text><ellipse cx="453" cy="208.7539" fill="#84BE84" rx="3" ry="3" style="stroke: #038048; stroke-width: 1.0;"/><text fill="#000000" font-family="sans-serif" font-size="11" lengthAdjust="spacingAndGlyphs" textLength="125" x="462" y="211.062">write(str: String): void</text><ellipse cx="453" cy="221.5586" fill="#84BE84" rx="3" ry="3" style="stroke: #038048; stroke-width: 1.0;"/><text fill="#000000" font-family="sans-serif" font-size="11" lengthAdjust="spacingAndGlyphs" textLength="217" x="462" y="223.8667">write(str: String, off: int, len: int): void</text><!--class InputStreamReader--><rect fill="#FEFECE" filter="url(#fh76i03)" height="171.2422" style="stroke: #A80036; stroke-width: 1.5;" width="372" x="6" y="296.5"/><ellipse cx="126.75" cy="312.5" fill="#ADD1B2" rx="11" ry="11" style="stroke: #A80036; stroke-width: 1.0;"/><path d="M129.0938,308.1719 L129.2656,308.25 C129.4844,307.9375 129.6875,307.8438 129.9844,307.8438 C130.2813,307.8438 130.5625,307.9844 130.7188,308.25 C130.8125,308.4063 130.8281,308.5313 130.8281,308.9688 L130.8281,310.3906 C130.8281,310.8125 130.7969,311 130.6875,311.1563 C130.5156,311.375 130.25,311.5156 129.9844,311.5156 C129.7656,311.5156 129.5313,311.4063 129.3906,311.2656 C129.25,311.1406 129.2188,311.0156 129.1563,310.6094 C129.0625,310.2031 128.8906,309.9844 128.4063,309.7031 C127.9375,309.4531 127.3281,309.2969 126.75,309.2969 C125.0156,309.2969 123.7656,310.6094 123.7656,312.3906 L123.7656,313.4844 C123.7656,315.1875 125.0625,316.2813 127.1094,316.2813 C127.875,316.2813 128.5625,316.1563 128.9844,315.8906 C129.1719,315.7969 129.1719,315.7969 129.625,315.3125 C129.8125,315.125 130.0156,315.0469 130.2344,315.0469 C130.7031,315.0469 131.0938,315.4375 131.0938,315.8906 C131.0938,316.2813 130.7656,316.7344 130.1875,317.1406 C129.4375,317.6875 128.2813,317.9844 127.0625,317.9844 C124.1719,317.9844 122.0625,316.0938 122.0625,313.5156 L122.0625,312.3906 C122.0625,309.6719 124.0625,307.5938 126.6875,307.5938 C127.5625,307.5938 128.1563,307.7344 129.0938,308.1719 Z "/><text fill="#000000" font-family="sans-serif" font-size="12" lengthAdjust="spacingAndGlyphs" textLength="122" x="147.25" y="316.6543">InputStreamReader</text><line style="stroke: #A80036; stroke-width: 1.5;" x1="7" x2="377" y1="328.5" y2="328.5"/><line style="stroke: #A80036; stroke-width: 1.0;" x1="7" x2="377" y1="336.5" y2="336.5"/><ellipse cx="17" cy="348.4023" fill="#84BE84" rx="3" ry="3" style="stroke: #038048; stroke-width: 1.0;"/><text fill="#000000" font-family="sans-serif" font-size="11" lengthAdjust="spacingAndGlyphs" textLength="206" x="26" y="350.7104">InputStreamReader(in: InputStream)</text><ellipse cx="17" cy="361.207" fill="#84BE84" rx="3" ry="3" style="stroke: #038048; stroke-width: 1.0;"/><text fill="#000000" font-family="sans-serif" font-size="11" lengthAdjust="spacingAndGlyphs" textLength="294" x="26" y="363.5151">InputStreamReader(in: InputStream in, cs: Charset)</text><ellipse cx="17" cy="374.0117" fill="#84BE84" rx="3" ry="3" style="stroke: #038048; stroke-width: 1.0;"/><text fill="#000000" font-family="sans-serif" font-size="11" lengthAdjust="spacingAndGlyphs" textLength="334" x="26" y="376.3198">InputStreamReader(in: InputStream, dec: CharsetDecoder)</text><ellipse cx="17" cy="386.8164" fill="#84BE84" rx="3" ry="3" style="stroke: #038048; stroke-width: 1.0;"/><text fill="#000000" font-family="sans-serif" font-size="11" lengthAdjust="spacingAndGlyphs" textLength="346" x="26" y="389.1245">InputStreamReader(in: InputStream in, charsetName: String)</text><line style="stroke: #A80036; stroke-width: 1.0; stroke-dasharray: 1.0,2.0;" x1="7" x2="377" y1="395.7188" y2="395.7188"/><ellipse cx="17" cy="407.6211" fill="#84BE84" rx="3" ry="3" style="stroke: #038048; stroke-width: 1.0;"/><text fill="#000000" font-family="sans-serif" font-size="11" lengthAdjust="spacingAndGlyphs" textLength="69" x="26" y="409.9292">close(): void</text><ellipse cx="17" cy="420.4258" fill="#84BE84" rx="3" ry="3" style="stroke: #038048; stroke-width: 1.0;"/><text fill="#000000" font-family="sans-serif" font-size="11" lengthAdjust="spacingAndGlyphs" textLength="119" x="26" y="422.7339">getEncoding(): String</text><ellipse cx="17" cy="433.2305" fill="#84BE84" rx="3" ry="3" style="stroke: #038048; stroke-width: 1.0;"/><text fill="#000000" font-family="sans-serif" font-size="11" lengthAdjust="spacingAndGlyphs" textLength="68" x="26" y="435.5386">@read(): int</text><ellipse cx="17" cy="446.0352" fill="#84BE84" rx="3" ry="3" style="stroke: #038048; stroke-width: 1.0;"/><text fill="#000000" font-family="sans-serif" font-size="11" lengthAdjust="spacingAndGlyphs" textLength="249" x="26" y="448.3433">read(cbuf: char[], offset: int, length: int): int</text><ellipse cx="17" cy="458.8398" fill="#84BE84" rx="3" ry="3" style="stroke: #038048; stroke-width: 1.0;"/><text fill="#000000" font-family="sans-serif" font-size="11" lengthAdjust="spacingAndGlyphs" textLength="105" x="26" y="461.1479">@ready(): boolean</text><!--class OutputStreamWriter--><rect fill="#FEFECE" filter="url(#fh76i03)" height="184.0469" style="stroke: #A80036; stroke-width: 1.5;" width="393" x="413.5" y="290"/><ellipse cx="543.25" cy="306" fill="#ADD1B2" rx="11" ry="11" style="stroke: #A80036; stroke-width: 1.0;"/><path d="M545.5938,301.6719 L545.7656,301.75 C545.9844,301.4375 546.1875,301.3438 546.4844,301.3438 C546.7813,301.3438 547.0625,301.4844 547.2188,301.75 C547.3125,301.9063 547.3281,302.0313 547.3281,302.4688 L547.3281,303.8906 C547.3281,304.3125 547.2969,304.5 547.1875,304.6563 C547.0156,304.875 546.75,305.0156 546.4844,305.0156 C546.2656,305.0156 546.0313,304.9063 545.8906,304.7656 C545.75,304.6406 545.7188,304.5156 545.6563,304.1094 C545.5625,303.7031 545.3906,303.4844 544.9063,303.2031 C544.4375,302.9531 543.8281,302.7969 543.25,302.7969 C541.5156,302.7969 540.2656,304.1094 540.2656,305.8906 L540.2656,306.9844 C540.2656,308.6875 541.5625,309.7813 543.6094,309.7813 C544.375,309.7813 545.0625,309.6563 545.4844,309.3906 C545.6719,309.2969 545.6719,309.2969 546.125,308.8125 C546.3125,308.625 546.5156,308.5469 546.7344,308.5469 C547.2031,308.5469 547.5938,308.9375 547.5938,309.3906 C547.5938,309.7813 547.2656,310.2344 546.6875,310.6406 C545.9375,311.1875 544.7813,311.4844 543.5625,311.4844 C540.6719,311.4844 538.5625,309.5938 538.5625,307.0156 L538.5625,305.8906 C538.5625,303.1719 540.5625,301.0938 543.1875,301.0938 C544.0625,301.0938 544.6563,301.2344 545.5938,301.6719 Z "/><text fill="#000000" font-family="sans-serif" font-size="12" lengthAdjust="spacingAndGlyphs" textLength="125" x="563.75" y="310.1543">OutputStreamWriter</text><line style="stroke: #A80036; stroke-width: 1.5;" x1="414.5" x2="805.5" y1="322" y2="322"/><line style="stroke: #A80036; stroke-width: 1.0;" x1="414.5" x2="805.5" y1="330" y2="330"/><ellipse cx="424.5" cy="341.9023" fill="#84BE84" rx="3" ry="3" style="stroke: #038048; stroke-width: 1.0;"/><text fill="#000000" font-family="sans-serif" font-size="11" lengthAdjust="spacingAndGlyphs" textLength="227" x="433.5" y="344.2104">OutputStreamWriter(out: OutputStream)</text><ellipse cx="424.5" cy="354.707" fill="#84BE84" rx="3" ry="3" style="stroke: #038048; stroke-width: 1.0;"/><text fill="#000000" font-family="sans-serif" font-size="11" lengthAdjust="spacingAndGlyphs" textLength="315" x="433.5" y="357.0151">OutputStreamWriter(out: OutputStream in, cs: Charset)</text><ellipse cx="424.5" cy="367.5117" fill="#84BE84" rx="3" ry="3" style="stroke: #038048; stroke-width: 1.0;"/><text fill="#000000" font-family="sans-serif" font-size="11" lengthAdjust="spacingAndGlyphs" textLength="355" x="433.5" y="369.8198">OutputStreamWriter(out: OutputStream, enc: CharsetDecoder)</text><ellipse cx="424.5" cy="380.3164" fill="#84BE84" rx="3" ry="3" style="stroke: #038048; stroke-width: 1.0;"/><text fill="#000000" font-family="sans-serif" font-size="11" lengthAdjust="spacingAndGlyphs" textLength="367" x="433.5" y="382.6245">OutputStreamWriter(out: OutputStream in, charsetName: String)</text><line style="stroke: #A80036; stroke-width: 1.0; stroke-dasharray: 1.0,2.0;" x1="414.5" x2="805.5" y1="389.2188" y2="389.2188"/><ellipse cx="424.5" cy="401.1211" fill="#84BE84" rx="3" ry="3" style="stroke: #038048; stroke-width: 1.0;"/><text fill="#000000" font-family="sans-serif" font-size="11" lengthAdjust="spacingAndGlyphs" textLength="69" x="433.5" y="403.4292">close(): void</text><ellipse cx="424.5" cy="413.9258" fill="#84BE84" rx="3" ry="3" style="stroke: #038048; stroke-width: 1.0;"/><text fill="#000000" font-family="sans-serif" font-size="11" lengthAdjust="spacingAndGlyphs" textLength="67" x="433.5" y="416.2339">flush(): void</text><ellipse cx="424.5" cy="426.7305" fill="#84BE84" rx="3" ry="3" style="stroke: #038048; stroke-width: 1.0;"/><text fill="#000000" font-family="sans-serif" font-size="11" lengthAdjust="spacingAndGlyphs" textLength="119" x="433.5" y="429.0386">getEncoding(): String</text><ellipse cx="424.5" cy="439.5352" fill="#84BE84" rx="3" ry="3" style="stroke: #038048; stroke-width: 1.0;"/><text fill="#000000" font-family="sans-serif" font-size="11" lengthAdjust="spacingAndGlyphs" textLength="224" x="433.5" y="441.8433">write(cbuf: char[], off: int, len: int): void</text><ellipse cx="424.5" cy="452.3398" fill="#84BE84" rx="3" ry="3" style="stroke: #038048; stroke-width: 1.0;"/><text fill="#000000" font-family="sans-serif" font-size="11" lengthAdjust="spacingAndGlyphs" textLength="107" x="433.5" y="454.6479">@write(c: int): void</text><ellipse cx="424.5" cy="465.1445" fill="#84BE84" rx="3" ry="3" style="stroke: #038048; stroke-width: 1.0;"/><text fill="#000000" font-family="sans-serif" font-size="11" lengthAdjust="spacingAndGlyphs" textLength="229" x="433.5" y="467.4526">@write(str: String, off: int, len: int): void</text><path d="M192,250.414 C192,266.049 192,281.686 192,296.426 " fill="none" style="stroke: #A80036; stroke-width: 1.0;"/><polygon fill="none" points="185,250.309,192,230.309,199,250.309,185,250.309" style="stroke: #A80036; stroke-width: 1.0;"/><path d="M610,250.363 C610,263.624 610,276.887 610,289.605 " fill="none" style="stroke: #A80036; stroke-width: 1.0;"/><polygon fill="none" points="603,250.309,610,230.309,617,250.309,603,250.309" style="stroke: #A80036; stroke-width: 1.0;"/></g></svg>