<?xml version="1.0" encoding="UTF-8" standalone="no"?><svg xmlns="http://www.w3.org/2000/svg" xmlns:xlink="http://www.w3.org/1999/xlink" contentScriptType="application/ecmascript" contentStyleType="text/css" height="180px" preserveAspectRatio="none" style="width:503px;height:180px;" version="1.1" viewBox="0 0 503 180" width="503px" zoomAndPan="magnify"><defs><filter height="300%" id="f1ov136" width="300%" x="-1" y="-1"><feGaussianBlur result="blurOut" stdDeviation="2.0"/><feColorMatrix in="blurOut" result="blurOut2" type="matrix" values="0 0 0 0 0 0 0 0 0 0 0 0 0 0 0 0 0 0 .4 0"/><feOffset dx="4.0" dy="4.0" in="blurOut2" result="blurOut3"/><feBlend in="SourceGraphic" in2="blurOut3" mode="normal"/></filter></defs><g><!--class InputStream--><rect fill="#FEFECE" filter="url(#f1ov136)" height="163.2422" style="stroke: #A80036; stroke-width: 1.5;" width="221" x="6" y="8"/><ellipse cx="73.25" cy="24" fill="#A9DCDF" rx="11" ry="11" style="stroke: #A80036; stroke-width: 1.0;"/><path d="M74.8281,25.8125 L70.7813,25.8125 L70.3906,26.7969 L70.7813,26.7969 C71.2344,26.7969 71.375,26.8281 71.5469,26.9531 C71.7656,27.125 71.8906,27.375 71.8906,27.6563 C71.8906,27.9375 71.75,28.2344 71.4844,28.375 C71.3594,28.4688 71.1406,28.5 70.7813,28.5 L68.5156,28.5 C67.7656,28.5 67.3906,28.2188 67.3906,27.6563 C67.3906,27.3594 67.5469,27.0781 67.7969,26.9219 C67.9531,26.8125 68.1094,26.7969 68.5313,26.7969 L71.1719,20.2813 L70.0938,20.2813 C69.6563,20.2813 69.4844,20.25 69.3125,20.1406 C69.0938,19.9688 68.9531,19.7188 68.9531,19.4375 C68.9531,19.1563 69.1094,18.875 69.3594,18.7031 C69.5156,18.6094 69.6406,18.5938 70.0938,18.5938 L73.7656,18.5938 L77.1563,26.7969 C77.625,26.7969 77.7813,26.8281 77.9531,26.9688 C78.1719,27.125 78.3125,27.375 78.3125,27.6563 C78.3125,27.9375 78.1563,28.2344 77.9063,28.375 C77.7656,28.4688 77.5469,28.5 77.1875,28.5 L74.8281,28.5 C74.4063,28.5 74.2031,28.4531 74.0625,28.3281 C73.8438,28.1719 73.7031,27.9219 73.7031,27.6563 C73.7031,27.3594 73.8594,27.0781 74.1094,26.9219 C74.2656,26.8125 74.375,26.7969 74.8281,26.7969 L75.2188,26.7969 Z M74.125,24.1094 L72.7969,20.8438 L71.4531,24.1094 Z "/><text fill="#000000" font-family="sans-serif" font-size="12" font-style="italic" lengthAdjust="spacingAndGlyphs" textLength="78" x="93.75" y="28.1543">InputStream</text><line style="stroke: #A80036; stroke-width: 1.5;" x1="7" x2="226" y1="40" y2="40"/><line style="stroke: #A80036; stroke-width: 1.5;" x1="7" x2="226" y1="48" y2="48"/><ellipse cx="17" cy="59.9023" fill="#84BE84" rx="3" ry="3" style="stroke: #038048; stroke-width: 1.0;"/><text fill="#000000" font-family="sans-serif" font-size="11" lengthAdjust="spacingAndGlyphs" textLength="80" x="26" y="62.2104">available(): int</text><ellipse cx="17" cy="72.707" fill="#84BE84" rx="3" ry="3" style="stroke: #038048; stroke-width: 1.0;"/><text fill="#000000" font-family="sans-serif" font-size="11" lengthAdjust="spacingAndGlyphs" textLength="69" x="26" y="75.0151">close(): void</text><ellipse cx="17" cy="85.5117" fill="#84BE84" rx="3" ry="3" style="stroke: #038048; stroke-width: 1.0;"/><text fill="#000000" font-family="sans-serif" font-size="11" lengthAdjust="spacingAndGlyphs" textLength="140" x="26" y="87.8198">mark(readlimit: int): void</text><ellipse cx="17" cy="98.3164" fill="#84BE84" rx="3" ry="3" style="stroke: #038048; stroke-width: 1.0;"/><text fill="#000000" font-family="sans-serif" font-size="11" lengthAdjust="spacingAndGlyphs" textLength="149" x="26" y="100.6245">markSupported(): boolean</text><ellipse cx="17" cy="111.1211" fill="#84BE84" rx="3" ry="3" style="stroke: #038048; stroke-width: 1.0;"/><text fill="#000000" font-family="sans-serif" font-size="11" font-style="italic" font-weight="bold" lengthAdjust="spacingAndGlyphs" textLength="62" x="26" y="113.4292">read(): int</text><ellipse cx="17" cy="123.9258" fill="#84BE84" rx="3" ry="3" style="stroke: #038048; stroke-width: 1.0;"/><text fill="#000000" font-family="sans-serif" font-size="11" lengthAdjust="spacingAndGlyphs" textLength="103" x="26" y="126.2339">read(b: byte[]): int</text><ellipse cx="17" cy="136.7305" fill="#84BE84" rx="3" ry="3" style="stroke: #038048; stroke-width: 1.0;"/><text fill="#000000" font-family="sans-serif" font-size="11" lengthAdjust="spacingAndGlyphs" textLength="195" x="26" y="139.0386">read(b: byte[], off: int, len: int): int</text><ellipse cx="17" cy="149.5352" fill="#84BE84" rx="3" ry="3" style="stroke: #038048; stroke-width: 1.0;"/><text fill="#000000" font-family="sans-serif" font-size="11" lengthAdjust="spacingAndGlyphs" textLength="69" x="26" y="151.8433">reset(): void</text><ellipse cx="17" cy="162.3398" fill="#84BE84" rx="3" ry="3" style="stroke: #038048; stroke-width: 1.0;"/><text fill="#000000" font-family="sans-serif" font-size="11" lengthAdjust="spacingAndGlyphs" textLength="102" x="26" y="164.6479">skip(n: long): long</text><!--class OutputStream--><rect fill="#FEFECE" filter="url(#f1ov136)" height="112.0234" style="stroke: #A80036; stroke-width: 1.5;" width="232" x="262.5" y="33.5"/><ellipse cx="330.75" cy="49.5" fill="#A9DCDF" rx="11" ry="11" style="stroke: #A80036; stroke-width: 1.0;"/><path d="M332.3281,51.3125 L328.2813,51.3125 L327.8906,52.2969 L328.2813,52.2969 C328.7344,52.2969 328.875,52.3281 329.0469,52.4531 C329.2656,52.625 329.3906,52.875 329.3906,53.1563 C329.3906,53.4375 329.25,53.7344 328.9844,53.875 C328.8594,53.9688 328.6406,54 328.2813,54 L326.0156,54 C325.2656,54 324.8906,53.7188 324.8906,53.1563 C324.8906,52.8594 325.0469,52.5781 325.2969,52.4219 C325.4531,52.3125 325.6094,52.2969 326.0313,52.2969 L328.6719,45.7813 L327.5938,45.7813 C327.1563,45.7813 326.9844,45.75 326.8125,45.6406 C326.5938,45.4688 326.4531,45.2188 326.4531,44.9375 C326.4531,44.6563 326.6094,44.375 326.8594,44.2031 C327.0156,44.1094 327.1406,44.0938 327.5938,44.0938 L331.2656,44.0938 L334.6563,52.2969 C335.125,52.2969 335.2813,52.3281 335.4531,52.4688 C335.6719,52.625 335.8125,52.875 335.8125,53.1563 C335.8125,53.4375 335.6563,53.7344 335.4063,53.875 C335.2656,53.9688 335.0469,54 334.6875,54 L332.3281,54 C331.9063,54 331.7031,53.9531 331.5625,53.8281 C331.3438,53.6719 331.2031,53.4219 331.2031,53.1563 C331.2031,52.8594 331.3594,52.5781 331.6094,52.4219 C331.7656,52.3125 331.875,52.2969 332.3281,52.2969 L332.7188,52.2969 Z M331.625,49.6094 L330.2969,46.3438 L328.9531,49.6094 Z "/><text fill="#000000" font-family="sans-serif" font-size="12" font-style="italic" lengthAdjust="spacingAndGlyphs" textLength="87" x="351.25" y="53.6543">OutputStream</text><line style="stroke: #A80036; stroke-width: 1.5;" x1="263.5" x2="493.5" y1="65.5" y2="65.5"/><line style="stroke: #A80036; stroke-width: 1.5;" x1="263.5" x2="493.5" y1="73.5" y2="73.5"/><ellipse cx="273.5" cy="85.4023" fill="#84BE84" rx="3" ry="3" style="stroke: #038048; stroke-width: 1.0;"/><text fill="#000000" font-family="sans-serif" font-size="11" lengthAdjust="spacingAndGlyphs" textLength="69" x="282.5" y="87.7104">close(): void</text><ellipse cx="273.5" cy="98.207" fill="#84BE84" rx="3" ry="3" style="stroke: #038048; stroke-width: 1.0;"/><text fill="#000000" font-family="sans-serif" font-size="11" lengthAdjust="spacingAndGlyphs" textLength="67" x="282.5" y="100.5151">flush(): void</text><ellipse cx="273.5" cy="111.0117" fill="#84BE84" rx="3" ry="3" style="stroke: #038048; stroke-width: 1.0;"/><text fill="#000000" font-family="sans-serif" font-size="11" font-style="italic" font-weight="bold" lengthAdjust="spacingAndGlyphs" textLength="109" x="282.5" y="113.3198">write(b: int): void</text><ellipse cx="273.5" cy="123.8164" fill="#84BE84" rx="3" ry="3" style="stroke: #038048; stroke-width: 1.0;"/><text fill="#000000" font-family="sans-serif" font-size="11" lengthAdjust="spacingAndGlyphs" textLength="114" x="282.5" y="126.1245">write(b: byte[]): void</text><ellipse cx="273.5" cy="136.6211" fill="#84BE84" rx="3" ry="3" style="stroke: #038048; stroke-width: 1.0;"/><text fill="#000000" font-family="sans-serif" font-size="11" lengthAdjust="spacingAndGlyphs" textLength="206" x="282.5" y="138.9292">write(b: byte[], off: int, len: int): void</text></g></svg>