<?xml version="1.0" encoding="UTF-8" standalone="no"?><svg xmlns="http://www.w3.org/2000/svg" xmlns:xlink="http://www.w3.org/1999/xlink" contentScriptType="application/ecmascript" contentStyleType="text/css" height="239px" preserveAspectRatio="none" style="width:635px;height:239px;" version="1.1" viewBox="0 0 635 239" width="635px" zoomAndPan="magnify"><defs><filter height="300%" id="fao61uc" width="300%" x="-1" y="-1"><feGaussianBlur result="blurOut" stdDeviation="2.0"/><feColorMatrix in="blurOut" result="blurOut2" type="matrix" values="0 0 0 0 0 0 0 0 0 0 0 0 0 0 0 0 0 0 .4 0"/><feOffset dx="4.0" dy="4.0" in="blurOut2" result="blurOut3"/><feBlend in="SourceGraphic" in2="blurOut3" mode="normal"/></filter></defs><g><!--class Reader--><rect fill="#FEFECE" filter="url(#fao61uc)" height="222.4609" style="stroke: #A80036; stroke-width: 1.5;" width="249" x="6" y="8"/><ellipse cx="103.75" cy="24" fill="#A9DCDF" rx="11" ry="11" style="stroke: #A80036; stroke-width: 1.0;"/><path d="M105.3281,25.8125 L101.2813,25.8125 L100.8906,26.7969 L101.2813,26.7969 C101.7344,26.7969 101.875,26.8281 102.0469,26.9531 C102.2656,27.125 102.3906,27.375 102.3906,27.6563 C102.3906,27.9375 102.25,28.2344 101.9844,28.375 C101.8594,28.4688 101.6406,28.5 101.2813,28.5 L99.0156,28.5 C98.2656,28.5 97.8906,28.2188 97.8906,27.6563 C97.8906,27.3594 98.0469,27.0781 98.2969,26.9219 C98.4531,26.8125 98.6094,26.7969 99.0313,26.7969 L101.6719,20.2813 L100.5938,20.2813 C100.1563,20.2813 99.9844,20.25 99.8125,20.1406 C99.5938,19.9688 99.4531,19.7188 99.4531,19.4375 C99.4531,19.1563 99.6094,18.875 99.8594,18.7031 C100.0156,18.6094 100.1406,18.5938 100.5938,18.5938 L104.2656,18.5938 L107.6563,26.7969 C108.125,26.7969 108.2813,26.8281 108.4531,26.9688 C108.6719,27.125 108.8125,27.375 108.8125,27.6563 C108.8125,27.9375 108.6563,28.2344 108.4063,28.375 C108.2656,28.4688 108.0469,28.5 107.6875,28.5 L105.3281,28.5 C104.9063,28.5 104.7031,28.4531 104.5625,28.3281 C104.3438,28.1719 104.2031,27.9219 104.2031,27.6563 C104.2031,27.3594 104.3594,27.0781 104.6094,26.9219 C104.7656,26.8125 104.875,26.7969 105.3281,26.7969 L105.7188,26.7969 Z M104.625,24.1094 L103.2969,20.8438 L101.9531,24.1094 Z "/><text fill="#000000" font-family="sans-serif" font-size="12" font-style="italic" lengthAdjust="spacingAndGlyphs" textLength="45" x="124.25" y="28.1543">Reader</text><line style="stroke: #A80036; stroke-width: 1.5;" x1="7" x2="254" y1="40" y2="40"/><polygon fill="none" points="17,46.9023,21,50.9023,17,54.9023,13,50.9023" style="stroke: #B38D22; stroke-width: 1.0;"/><text fill="#000000" font-family="sans-serif" font-size="11" lengthAdjust="spacingAndGlyphs" textLength="66" x="26" y="54.2104">lock: Object</text><line style="stroke: #A80036; stroke-width: 1.0;" x1="7" x2="254" y1="60.8047" y2="60.8047"/><polygon fill="#FFFF44" points="17,67.707,21,71.707,17,75.707,13,71.707" style="stroke: #B38D22; stroke-width: 1.0;"/><text fill="#000000" font-family="sans-serif" font-size="11" lengthAdjust="spacingAndGlyphs" textLength="48" x="26" y="75.0151">Reader()</text><polygon fill="#FFFF44" points="17,80.5117,21,84.5117,17,88.5117,13,84.5117" style="stroke: #B38D22; stroke-width: 1.0;"/><text fill="#000000" font-family="sans-serif" font-size="11" lengthAdjust="spacingAndGlyphs" textLength="114" x="26" y="87.8198">Reader(lock: Object)</text><line style="stroke: #A80036; stroke-width: 1.0; stroke-dasharray: 1.0,2.0;" x1="7" x2="254" y1="94.4141" y2="94.4141"/><ellipse cx="17" cy="106.3164" fill="#84BE84" rx="3" ry="3" style="stroke: #038048; stroke-width: 1.0;"/><text fill="#000000" font-family="sans-serif" font-size="11" font-style="italic" lengthAdjust="spacingAndGlyphs" textLength="69" x="26" y="108.6245">close(): void</text><ellipse cx="17" cy="119.1211" fill="#84BE84" rx="3" ry="3" style="stroke: #038048; stroke-width: 1.0;"/><text fill="#000000" font-family="sans-serif" font-size="11" lengthAdjust="spacingAndGlyphs" textLength="178" x="26" y="121.4292">mark(readAheadLimit: int): void</text><ellipse cx="17" cy="131.9258" fill="#84BE84" rx="3" ry="3" style="stroke: #038048; stroke-width: 1.0;"/><text fill="#000000" font-family="sans-serif" font-size="11" lengthAdjust="spacingAndGlyphs" textLength="149" x="26" y="134.2339">markSupported(): boolean</text><ellipse cx="17" cy="144.7305" fill="#84BE84" rx="3" ry="3" style="stroke: #038048; stroke-width: 1.0;"/><text fill="#000000" font-family="sans-serif" font-size="11" lengthAdjust="spacingAndGlyphs" textLength="56" x="26" y="147.0386">read(): int</text><ellipse cx="17" cy="157.5352" fill="#84BE84" rx="3" ry="3" style="stroke: #038048; stroke-width: 1.0;"/><text fill="#000000" font-family="sans-serif" font-size="11" lengthAdjust="spacingAndGlyphs" textLength="121" x="26" y="159.8433">read(cbuf: char[]): int</text><ellipse cx="17" cy="170.3398" fill="#84BE84" rx="3" ry="3" style="stroke: #038048; stroke-width: 1.0;"/><text fill="#000000" font-family="sans-serif" font-size="11" font-style="italic" lengthAdjust="spacingAndGlyphs" textLength="223" x="26" y="172.6479">read(cbuf: char[], off: int, len: int): void</text><ellipse cx="17" cy="183.1445" fill="#84BE84" rx="3" ry="3" style="stroke: #038048; stroke-width: 1.0;"/><text fill="#000000" font-family="sans-serif" font-size="11" lengthAdjust="spacingAndGlyphs" textLength="160" x="26" y="185.4526">read(target: CharBuffer): int</text><ellipse cx="17" cy="195.9492" fill="#84BE84" rx="3" ry="3" style="stroke: #038048; stroke-width: 1.0;"/><text fill="#000000" font-family="sans-serif" font-size="11" lengthAdjust="spacingAndGlyphs" textLength="93" x="26" y="198.2573">ready(): boolean</text><ellipse cx="17" cy="208.7539" fill="#84BE84" rx="3" ry="3" style="stroke: #038048; stroke-width: 1.0;"/><text fill="#000000" font-family="sans-serif" font-size="11" lengthAdjust="spacingAndGlyphs" textLength="69" x="26" y="211.062">reset(): void</text><ellipse cx="17" cy="221.5586" fill="#84BE84" rx="3" ry="3" style="stroke: #038048; stroke-width: 1.0;"/><text fill="#000000" font-family="sans-serif" font-size="11" lengthAdjust="spacingAndGlyphs" textLength="102" x="26" y="223.8667">skip(n: long): long</text><!--class Writer--><rect fill="#FEFECE" filter="url(#fao61uc)" height="222.4609" style="stroke: #A80036; stroke-width: 1.5;" width="336" x="290.5" y="8"/><ellipse cx="435.25" cy="24" fill="#A9DCDF" rx="11" ry="11" style="stroke: #A80036; stroke-width: 1.0;"/><path d="M436.8281,25.8125 L432.7813,25.8125 L432.3906,26.7969 L432.7813,26.7969 C433.2344,26.7969 433.375,26.8281 433.5469,26.9531 C433.7656,27.125 433.8906,27.375 433.8906,27.6563 C433.8906,27.9375 433.75,28.2344 433.4844,28.375 C433.3594,28.4688 433.1406,28.5 432.7813,28.5 L430.5156,28.5 C429.7656,28.5 429.3906,28.2188 429.3906,27.6563 C429.3906,27.3594 429.5469,27.0781 429.7969,26.9219 C429.9531,26.8125 430.1094,26.7969 430.5313,26.7969 L433.1719,20.2813 L432.0938,20.2813 C431.6563,20.2813 431.4844,20.25 431.3125,20.1406 C431.0938,19.9688 430.9531,19.7188 430.9531,19.4375 C430.9531,19.1563 431.1094,18.875 431.3594,18.7031 C431.5156,18.6094 431.6406,18.5938 432.0938,18.5938 L435.7656,18.5938 L439.1563,26.7969 C439.625,26.7969 439.7813,26.8281 439.9531,26.9688 C440.1719,27.125 440.3125,27.375 440.3125,27.6563 C440.3125,27.9375 440.1563,28.2344 439.9063,28.375 C439.7656,28.4688 439.5469,28.5 439.1875,28.5 L436.8281,28.5 C436.4063,28.5 436.2031,28.4531 436.0625,28.3281 C435.8438,28.1719 435.7031,27.9219 435.7031,27.6563 C435.7031,27.3594 435.8594,27.0781 436.1094,26.9219 C436.2656,26.8125 436.375,26.7969 436.8281,26.7969 L437.2188,26.7969 Z M436.125,24.1094 L434.7969,20.8438 L433.4531,24.1094 Z "/><text fill="#000000" font-family="sans-serif" font-size="12" font-style="italic" lengthAdjust="spacingAndGlyphs" textLength="38" x="455.75" y="28.1543">Writer</text><line style="stroke: #A80036; stroke-width: 1.5;" x1="291.5" x2="625.5" y1="40" y2="40"/><polygon fill="none" points="301.5,46.9023,305.5,50.9023,301.5,54.9023,297.5,50.9023" style="stroke: #B38D22; stroke-width: 1.0;"/><text fill="#000000" font-family="sans-serif" font-size="11" lengthAdjust="spacingAndGlyphs" textLength="66" x="310.5" y="54.2104">lock: Object</text><line style="stroke: #A80036; stroke-width: 1.0;" x1="291.5" x2="625.5" y1="60.8047" y2="60.8047"/><polygon fill="#FFFF44" points="301.5,67.707,305.5,71.707,301.5,75.707,297.5,71.707" style="stroke: #B38D22; stroke-width: 1.0;"/><text fill="#000000" font-family="sans-serif" font-size="11" lengthAdjust="spacingAndGlyphs" textLength="41" x="310.5" y="75.0151">Writer()</text><polygon fill="#FFFF44" points="301.5,80.5117,305.5,84.5117,301.5,88.5117,297.5,84.5117" style="stroke: #B38D22; stroke-width: 1.0;"/><text fill="#000000" font-family="sans-serif" font-size="11" lengthAdjust="spacingAndGlyphs" textLength="107" x="310.5" y="87.8198">Writer(lock: Object)</text><line style="stroke: #A80036; stroke-width: 1.0; stroke-dasharray: 1.0,2.0;" x1="291.5" x2="625.5" y1="94.4141" y2="94.4141"/><ellipse cx="301.5" cy="106.3164" fill="#84BE84" rx="3" ry="3" style="stroke: #038048; stroke-width: 1.0;"/><text fill="#000000" font-family="sans-serif" font-size="11" lengthAdjust="spacingAndGlyphs" textLength="130" x="310.5" y="108.6245">append(c: char): Writer</text><ellipse cx="301.5" cy="119.1211" fill="#84BE84" rx="3" ry="3" style="stroke: #038048; stroke-width: 1.0;"/><text fill="#000000" font-family="sans-serif" font-size="11" lengthAdjust="spacingAndGlyphs" textLength="202" x="310.5" y="121.4292">append(csq: CharSequence): Writer</text><ellipse cx="301.5" cy="131.9258" fill="#84BE84" rx="3" ry="3" style="stroke: #038048; stroke-width: 1.0;"/><text fill="#000000" font-family="sans-serif" font-size="11" lengthAdjust="spacingAndGlyphs" textLength="310" x="310.5" y="134.2339">append(csq: CharSequence, start: int, end: int): Writer</text><ellipse cx="301.5" cy="144.7305" fill="#84BE84" rx="3" ry="3" style="stroke: #038048; stroke-width: 1.0;"/><text fill="#000000" font-family="sans-serif" font-size="11" font-style="italic" lengthAdjust="spacingAndGlyphs" textLength="69" x="310.5" y="147.0386">close(): void</text><ellipse cx="301.5" cy="157.5352" fill="#84BE84" rx="3" ry="3" style="stroke: #038048; stroke-width: 1.0;"/><text fill="#000000" font-family="sans-serif" font-size="11" font-style="italic" lengthAdjust="spacingAndGlyphs" textLength="67" x="310.5" y="159.8433">flush(): void</text><ellipse cx="301.5" cy="170.3398" fill="#84BE84" rx="3" ry="3" style="stroke: #038048; stroke-width: 1.0;"/><text fill="#000000" font-family="sans-serif" font-size="11" lengthAdjust="spacingAndGlyphs" textLength="132" x="310.5" y="172.6479">write(cbuf: char[]): void</text><ellipse cx="301.5" cy="183.1445" fill="#84BE84" rx="3" ry="3" style="stroke: #038048; stroke-width: 1.0;"/><text fill="#000000" font-family="sans-serif" font-size="11" font-style="italic" lengthAdjust="spacingAndGlyphs" textLength="225" x="310.5" y="185.4526">write(cbuf: char[], off: int, len: int): void</text><ellipse cx="301.5" cy="195.9492" fill="#84BE84" rx="3" ry="3" style="stroke: #038048; stroke-width: 1.0;"/><text fill="#000000" font-family="sans-serif" font-size="11" lengthAdjust="spacingAndGlyphs" textLength="95" x="310.5" y="198.2573">write(c: int): void</text><ellipse cx="301.5" cy="208.7539" fill="#84BE84" rx="3" ry="3" style="stroke: #038048; stroke-width: 1.0;"/><text fill="#000000" font-family="sans-serif" font-size="11" lengthAdjust="spacingAndGlyphs" textLength="125" x="310.5" y="211.062">write(str: String): void</text><ellipse cx="301.5" cy="221.5586" fill="#84BE84" rx="3" ry="3" style="stroke: #038048; stroke-width: 1.0;"/><text fill="#000000" font-family="sans-serif" font-size="11" lengthAdjust="spacingAndGlyphs" textLength="217" x="310.5" y="223.8667">write(str: String, off: int, len: int): void</text></g></svg>