<?xml version="1.0" encoding="UTF-8" standalone="no"?><svg xmlns="http://www.w3.org/2000/svg" xmlns:xlink="http://www.w3.org/1999/xlink" contentScriptType="application/ecmascript" contentStyleType="text/css" height="428px" preserveAspectRatio="none" style="width:797px;height:428px;" version="1.1" viewBox="0 0 797 428" width="797px" zoomAndPan="magnify"><defs><filter height="300%" id="fgkkdan" width="300%" x="-1" y="-1"><feGaussianBlur result="blurOut" stdDeviation="2.0"/><feColorMatrix in="blurOut" result="blurOut2" type="matrix" values="0 0 0 0 0 0 0 0 0 0 0 0 0 0 0 0 0 0 .4 0"/><feOffset dx="4.0" dy="4.0" in="blurOut2" result="blurOut3"/><feBlend in="SourceGraphic" in2="blurOut3" mode="normal"/></filter></defs><g><!--class JFrame--><rect fill="#FEFECE" filter="url(#fgkkdan)" height="48" style="stroke: #A80036; stroke-width: 1.5;" width="74" x="236.5" y="14.5"/><ellipse cx="251.5" cy="30.5" fill="#ADD1B2" rx="11" ry="11" style="stroke: #A80036; stroke-width: 1.0;"/><path d="M253.8438,26.1719 L254.0156,26.25 C254.2344,25.9375 254.4375,25.8438 254.7344,25.8438 C255.0313,25.8438 255.3125,25.9844 255.4688,26.25 C255.5625,26.4063 255.5781,26.5313 255.5781,26.9688 L255.5781,28.3906 C255.5781,28.8125 255.5469,29 255.4375,29.1563 C255.2656,29.375 255,29.5156 254.7344,29.5156 C254.5156,29.5156 254.2813,29.4063 254.1406,29.2656 C254,29.1406 253.9688,29.0156 253.9063,28.6094 C253.8125,28.2031 253.6406,27.9844 253.1563,27.7031 C252.6875,27.4531 252.0781,27.2969 251.5,27.2969 C249.7656,27.2969 248.5156,28.6094 248.5156,30.3906 L248.5156,31.4844 C248.5156,33.1875 249.8125,34.2813 251.8594,34.2813 C252.625,34.2813 253.3125,34.1563 253.7344,33.8906 C253.9219,33.7969 253.9219,33.7969 254.375,33.3125 C254.5625,33.125 254.7656,33.0469 254.9844,33.0469 C255.4531,33.0469 255.8438,33.4375 255.8438,33.8906 C255.8438,34.2813 255.5156,34.7344 254.9375,35.1406 C254.1875,35.6875 253.0313,35.9844 251.8125,35.9844 C248.9219,35.9844 246.8125,34.0938 246.8125,31.5156 L246.8125,30.3906 C246.8125,27.6719 248.8125,25.5938 251.4375,25.5938 C252.3125,25.5938 252.9063,25.7344 253.8438,26.1719 Z "/><text fill="#000000" font-family="sans-serif" font-size="12" lengthAdjust="spacingAndGlyphs" textLength="42" x="265.5" y="34.6543">JFrame</text><line style="stroke: #A80036; stroke-width: 1.5;" x1="237.5" x2="309.5" y1="46.5" y2="46.5"/><line style="stroke: #A80036; stroke-width: 1.5;" x1="237.5" x2="309.5" y1="54.5" y2="54.5"/><!--class ActionListener--><rect fill="#FEFECE" filter="url(#fgkkdan)" height="60.8047" style="stroke: #A80036; stroke-width: 1.5;" width="239" x="346" y="8"/><ellipse cx="416.75" cy="24" fill="#B4A7E5" rx="11" ry="11" style="stroke: #A80036; stroke-width: 1.0;"/><path d="M417.7031,20.7813 L417.7031,27.2969 L419.4219,27.2969 C419.875,27.2969 420.0156,27.3281 420.1875,27.4531 C420.4219,27.625 420.5313,27.875 420.5313,28.1563 C420.5313,28.7188 420.1719,29 419.4219,29 L414.2813,29 C413.875,29 413.6719,28.9531 413.5156,28.8281 C413.2969,28.6719 413.1563,28.4063 413.1563,28.1563 C413.1563,27.8594 413.3125,27.5781 413.5625,27.4219 C413.7188,27.3125 413.8438,27.2969 414.2813,27.2969 L416,27.2969 L416,20.7813 L414.2813,20.7813 C413.8594,20.7813 413.6719,20.75 413.5156,20.6406 C413.2969,20.4688 413.1563,20.2188 413.1563,19.9375 C413.1563,19.6563 413.3125,19.3594 413.5625,19.2031 C413.7188,19.1094 413.8438,19.0938 414.2813,19.0938 L419.4219,19.0938 C419.875,19.0938 420.0156,19.125 420.1875,19.2344 C420.4219,19.4063 420.5313,19.6719 420.5313,19.9375 C420.5313,20.2344 420.3906,20.5156 420.125,20.6719 C420,20.75 419.8125,20.7813 419.4219,20.7813 Z "/><text fill="#000000" font-family="sans-serif" font-size="12" font-style="italic" lengthAdjust="spacingAndGlyphs" textLength="89" x="437.25" y="28.1543">ActionListener</text><line style="stroke: #A80036; stroke-width: 1.5;" x1="347" x2="584" y1="40" y2="40"/><line style="stroke: #A80036; stroke-width: 1.5;" x1="347" x2="584" y1="48" y2="48"/><ellipse cx="357" cy="59.9023" fill="#84BE84" rx="3" ry="3" style="stroke: #038048; stroke-width: 1.0;"/><text fill="#000000" font-family="sans-serif" font-size="11" lengthAdjust="spacingAndGlyphs" textLength="213" x="366" y="62.2104">actionPerformed(e: ActionEvent): void</text><!--class SwingApplication--><rect fill="#FEFECE" filter="url(#fgkkdan)" height="99.2188" style="stroke: #A80036; stroke-width: 1.5;" width="239" x="250" y="129"/><ellipse cx="312.75" cy="145" fill="#ADD1B2" rx="11" ry="11" style="stroke: #A80036; stroke-width: 1.0;"/><path d="M315.0938,140.6719 L315.2656,140.75 C315.4844,140.4375 315.6875,140.3438 315.9844,140.3438 C316.2813,140.3438 316.5625,140.4844 316.7188,140.75 C316.8125,140.9063 316.8281,141.0313 316.8281,141.4688 L316.8281,142.8906 C316.8281,143.3125 316.7969,143.5 316.6875,143.6563 C316.5156,143.875 316.25,144.0156 315.9844,144.0156 C315.7656,144.0156 315.5313,143.9063 315.3906,143.7656 C315.25,143.6406 315.2188,143.5156 315.1563,143.1094 C315.0625,142.7031 314.8906,142.4844 314.4063,142.2031 C313.9375,141.9531 313.3281,141.7969 312.75,141.7969 C311.0156,141.7969 309.7656,143.1094 309.7656,144.8906 L309.7656,145.9844 C309.7656,147.6875 311.0625,148.7813 313.1094,148.7813 C313.875,148.7813 314.5625,148.6563 314.9844,148.3906 C315.1719,148.2969 315.1719,148.2969 315.625,147.8125 C315.8125,147.625 316.0156,147.5469 316.2344,147.5469 C316.7031,147.5469 317.0938,147.9375 317.0938,148.3906 C317.0938,148.7813 316.7656,149.2344 316.1875,149.6406 C315.4375,150.1875 314.2813,150.4844 313.0625,150.4844 C310.1719,150.4844 308.0625,148.5938 308.0625,146.0156 L308.0625,144.8906 C308.0625,142.1719 310.0625,140.0938 312.6875,140.0938 C313.5625,140.0938 314.1563,140.2344 315.0938,140.6719 Z "/><text fill="#000000" font-family="sans-serif" font-size="12" lengthAdjust="spacingAndGlyphs" textLength="105" x="333.25" y="149.1543">SwingApplication</text><line style="stroke: #A80036; stroke-width: 1.5;" x1="251" x2="488" y1="161" y2="161"/><rect fill="none" height="6" style="stroke: #C82930; stroke-width: 1.0;" width="6" x="258" y="169.9023"/><text fill="#000000" font-family="sans-serif" font-size="11" lengthAdjust="spacingAndGlyphs" textLength="76" x="270" y="175.2104">jbut1: JButton</text><rect fill="none" height="6" style="stroke: #C82930; stroke-width: 1.0;" width="6" x="258" y="182.707"/><text fill="#000000" font-family="sans-serif" font-size="11" lengthAdjust="spacingAndGlyphs" textLength="76" x="270" y="188.0151">jbut2: JButton</text><line style="stroke: #A80036; stroke-width: 1.5;" x1="251" x2="488" y1="194.6094" y2="194.6094"/><ellipse cx="261" cy="206.5117" fill="#84BE84" rx="3" ry="3" style="stroke: #038048; stroke-width: 1.0;"/><text fill="#000000" font-family="sans-serif" font-size="11" lengthAdjust="spacingAndGlyphs" textLength="213" x="270" y="208.8198">actionPerformed(e: ActionEvent): void</text><ellipse cx="261" cy="219.3164" fill="#84BE84" rx="3" ry="3" style="stroke: #038048; stroke-width: 1.0;"/><text fill="#000000" font-family="sans-serif" font-size="11" lengthAdjust="spacingAndGlyphs" text-decoration="underline" textLength="143" x="270" y="221.6245">main(args: String[]): void</text><line style="stroke: #000000; stroke-width: 1.0;" x1="270" x2="413" y1="223.6245" y2="223.6245"/><!--class JButton--><rect fill="#FEFECE" filter="url(#fgkkdan)" height="60.8047" style="stroke: #A80036; stroke-width: 1.5;" width="264" x="524.5" y="148"/><ellipse cx="629.75" cy="164" fill="#ADD1B2" rx="11" ry="11" style="stroke: #A80036; stroke-width: 1.0;"/><path d="M632.0938,159.6719 L632.2656,159.75 C632.4844,159.4375 632.6875,159.3438 632.9844,159.3438 C633.2813,159.3438 633.5625,159.4844 633.7188,159.75 C633.8125,159.9063 633.8281,160.0313 633.8281,160.4688 L633.8281,161.8906 C633.8281,162.3125 633.7969,162.5 633.6875,162.6563 C633.5156,162.875 633.25,163.0156 632.9844,163.0156 C632.7656,163.0156 632.5313,162.9063 632.3906,162.7656 C632.25,162.6406 632.2188,162.5156 632.1563,162.1094 C632.0625,161.7031 631.8906,161.4844 631.4063,161.2031 C630.9375,160.9531 630.3281,160.7969 629.75,160.7969 C628.0156,160.7969 626.7656,162.1094 626.7656,163.8906 L626.7656,164.9844 C626.7656,166.6875 628.0625,167.7813 630.1094,167.7813 C630.875,167.7813 631.5625,167.6563 631.9844,167.3906 C632.1719,167.2969 632.1719,167.2969 632.625,166.8125 C632.8125,166.625 633.0156,166.5469 633.2344,166.5469 C633.7031,166.5469 634.0938,166.9375 634.0938,167.3906 C634.0938,167.7813 633.7656,168.2344 633.1875,168.6406 C632.4375,169.1875 631.2813,169.4844 630.0625,169.4844 C627.1719,169.4844 625.0625,167.5938 625.0625,165.0156 L625.0625,163.8906 C625.0625,161.1719 627.0625,159.0938 629.6875,159.0938 C630.5625,159.0938 631.1563,159.2344 632.0938,159.6719 Z "/><text fill="#000000" font-family="sans-serif" font-size="12" lengthAdjust="spacingAndGlyphs" textLength="45" x="650.25" y="168.1543">JButton</text><line style="stroke: #A80036; stroke-width: 1.5;" x1="525.5" x2="787.5" y1="180" y2="180"/><line style="stroke: #A80036; stroke-width: 1.5;" x1="525.5" x2="787.5" y1="188" y2="188"/><ellipse cx="535.5" cy="199.9023" fill="#84BE84" rx="3" ry="3" style="stroke: #038048; stroke-width: 1.0;"/><text fill="#000000" font-family="sans-serif" font-size="11" lengthAdjust="spacingAndGlyphs" textLength="238" x="544.5" y="202.2104">addActionListener(al: ActionListener): void</text><polygon fill="#FFA500" filter="url(#fgkkdan)" points="6,158.5,6,198.7656,215,198.7656,215,168.5,205,158.5,6,158.5" style="stroke: #A80036; stroke-width: 1.0;"/><polygon fill="#FFA500" points="6,158.5,6,198.7656,215,198.7656,215,182.5,249.867,178.5,215,174.5,215,168.5,205,158.5,6,158.5" style="stroke: #A80036; stroke-width: 1.0;"/><line style="stroke: #A80036; stroke-width: 1.0;" x1="205" x2="205" y1="158.5" y2="168.5"/><line style="stroke: #A80036; stroke-width: 1.0;" x1="215" x2="205" y1="168.5" y2="168.5"/><text fill="#000000" font-family="sans-serif" font-size="13" lengthAdjust="spacingAndGlyphs" textLength="188" x="12" y="175.5669">jbut1.addActionListener(this);</text><text fill="#000000" font-family="sans-serif" font-size="13" lengthAdjust="spacingAndGlyphs" textLength="188" x="12" y="190.6997">jbut2.addActionListener(this);</text><polygon fill="#FBFB77" filter="url(#fgkkdan)" points="215.5,288,215.5,419.0625,523.5,419.0625,523.5,298,513.5,288,215.5,288" style="stroke: #A80036; stroke-width: 1.0;"/><polygon fill="#FBFB77" points="215.5,288,215.5,419.0625,523.5,419.0625,523.5,298,513.5,288,373.5,288,369.5,228.151,365.5,288,215.5,288" style="stroke: #A80036; stroke-width: 1.0;"/><line style="stroke: #A80036; stroke-width: 1.0;" x1="513.5" x2="513.5" y1="288" y2="298"/><line style="stroke: #A80036; stroke-width: 1.0;" x1="523.5" x2="513.5" y1="298" y2="298"/><text fill="#000000" font-family="sans-serif" font-size="13" lengthAdjust="spacingAndGlyphs" textLength="287" x="221.5" y="305.0669">public void actionPerformed(ActionEvent e) {</text><text fill="#000000" font-family="sans-serif" font-size="13" lengthAdjust="spacingAndGlyphs" textLength="183" x="229.5" y="320.1997">if (e.getSource() == jbut1) {</text><text fill="#000000" font-family="sans-serif" font-size="13" lengthAdjust="spacingAndGlyphs" textLength="0" x="237.5" y="335.3325"/><text fill="#000000" font-family="sans-serif" font-size="13" font-style="italic" lengthAdjust="spacingAndGlyphs" textLength="149" x="237.5" y="335.3325">//handle event for jbut1</text><text fill="#000000" font-family="sans-serif" font-size="13" lengthAdjust="spacingAndGlyphs" textLength="8" x="229.5" y="350.4653">}</text><text fill="#000000" font-family="sans-serif" font-size="13" lengthAdjust="spacingAndGlyphs" textLength="213" x="229.5" y="365.5981">else if (e.getSource() == jbut2) {</text><text fill="#000000" font-family="sans-serif" font-size="13" lengthAdjust="spacingAndGlyphs" textLength="0" x="237.5" y="380.731"/><text fill="#000000" font-family="sans-serif" font-size="13" font-style="italic" lengthAdjust="spacingAndGlyphs" textLength="149" x="237.5" y="380.731">//handle event for jbut2</text><text fill="#000000" font-family="sans-serif" font-size="13" lengthAdjust="spacingAndGlyphs" textLength="8" x="229.5" y="395.8638">}</text><text fill="#000000" font-family="sans-serif" font-size="13" lengthAdjust="spacingAndGlyphs" textLength="8" x="221.5" y="410.9966">}</text><path d="M301.073,79.136 C311.853,94.633 324.323,112.559 335.642,128.829 " fill="none" style="stroke: #A80036; stroke-width: 1.0;"/><polygon fill="none" points="295.243,83.014,289.568,62.598,306.736,75.019,295.243,83.014" style="stroke: #A80036; stroke-width: 1.0;"/><path d="M433.321,85.757 C423.66,99.644 413.037,114.915 403.276,128.946 " fill="none" style="stroke: #A80036; stroke-width: 1.0; stroke-dasharray: 7.0,7.0;"/><polygon fill="none" points="427.738,81.525,444.906,69.104,439.231,89.52,427.738,81.525" style="stroke: #A80036; stroke-width: 1.0;"/><path d="M489.177,178.5 C499.195,178.5 509.214,178.5 519.232,178.5 " fill="none" style="stroke: #A80036; stroke-width: 1.0;"/><polygon fill="#A80036" points="524.472,178.5,515.472,174.5,519.472,178.5,515.472,182.5,524.472,178.5" style="stroke: #A80036; stroke-width: 1.0;"/></g></svg>