<?xml version="1.0" encoding="UTF-8" standalone="no"?><svg xmlns="http://www.w3.org/2000/svg" xmlns:xlink="http://www.w3.org/1999/xlink" contentScriptType="application/ecmascript" contentStyleType="text/css" height="417px" preserveAspectRatio="none" style="width:935px;height:417px;" version="1.1" viewBox="0 0 935 417" width="935px" zoomAndPan="magnify"><defs><filter height="300%" id="fg6cc7w" width="300%" x="-1" y="-1"><feGaussianBlur result="blurOut" stdDeviation="2.0"/><feColorMatrix in="blurOut" result="blurOut2" type="matrix" values="0 0 0 0 0 0 0 0 0 0 0 0 0 0 0 0 0 0 .4 0"/><feOffset dx="4.0" dy="4.0" in="blurOut2" result="blurOut3"/><feBlend in="SourceGraphic" in2="blurOut3" mode="normal"/></filter></defs><g><!--class JFrame--><rect fill="#FEFECE" filter="url(#fg6cc7w)" height="48" style="stroke: #A80036; stroke-width: 1.5;" width="74" x="387" y="14.5"/><ellipse cx="402" cy="30.5" fill="#ADD1B2" rx="11" ry="11" style="stroke: #A80036; stroke-width: 1.0;"/><path d="M404.3438,26.1719 L404.5156,26.25 C404.7344,25.9375 404.9375,25.8438 405.2344,25.8438 C405.5313,25.8438 405.8125,25.9844 405.9688,26.25 C406.0625,26.4063 406.0781,26.5313 406.0781,26.9688 L406.0781,28.3906 C406.0781,28.8125 406.0469,29 405.9375,29.1563 C405.7656,29.375 405.5,29.5156 405.2344,29.5156 C405.0156,29.5156 404.7813,29.4063 404.6406,29.2656 C404.5,29.1406 404.4688,29.0156 404.4063,28.6094 C404.3125,28.2031 404.1406,27.9844 403.6563,27.7031 C403.1875,27.4531 402.5781,27.2969 402,27.2969 C400.2656,27.2969 399.0156,28.6094 399.0156,30.3906 L399.0156,31.4844 C399.0156,33.1875 400.3125,34.2813 402.3594,34.2813 C403.125,34.2813 403.8125,34.1563 404.2344,33.8906 C404.4219,33.7969 404.4219,33.7969 404.875,33.3125 C405.0625,33.125 405.2656,33.0469 405.4844,33.0469 C405.9531,33.0469 406.3438,33.4375 406.3438,33.8906 C406.3438,34.2813 406.0156,34.7344 405.4375,35.1406 C404.6875,35.6875 403.5313,35.9844 402.3125,35.9844 C399.4219,35.9844 397.3125,34.0938 397.3125,31.5156 L397.3125,30.3906 C397.3125,27.6719 399.3125,25.5938 401.9375,25.5938 C402.8125,25.5938 403.4063,25.7344 404.3438,26.1719 Z "/><text fill="#000000" font-family="sans-serif" font-size="12" lengthAdjust="spacingAndGlyphs" textLength="42" x="416" y="34.6543">JFrame</text><line style="stroke: #A80036; stroke-width: 1.5;" x1="388" x2="460" y1="46.5" y2="46.5"/><line style="stroke: #A80036; stroke-width: 1.5;" x1="388" x2="460" y1="54.5" y2="54.5"/><!--class ActionListener--><rect fill="#FEFECE" filter="url(#fg6cc7w)" height="60.8047" style="stroke: #A80036; stroke-width: 1.5;" width="239" x="639.5" y="8"/><ellipse cx="710.25" cy="24" fill="#B4A7E5" rx="11" ry="11" style="stroke: #A80036; stroke-width: 1.0;"/><path d="M711.2031,20.7813 L711.2031,27.2969 L712.9219,27.2969 C713.375,27.2969 713.5156,27.3281 713.6875,27.4531 C713.9219,27.625 714.0313,27.875 714.0313,28.1563 C714.0313,28.7188 713.6719,29 712.9219,29 L707.7813,29 C707.375,29 707.1719,28.9531 707.0156,28.8281 C706.7969,28.6719 706.6563,28.4063 706.6563,28.1563 C706.6563,27.8594 706.8125,27.5781 707.0625,27.4219 C707.2188,27.3125 707.3438,27.2969 707.7813,27.2969 L709.5,27.2969 L709.5,20.7813 L707.7813,20.7813 C707.3594,20.7813 707.1719,20.75 707.0156,20.6406 C706.7969,20.4688 706.6563,20.2188 706.6563,19.9375 C706.6563,19.6563 706.8125,19.3594 707.0625,19.2031 C707.2188,19.1094 707.3438,19.0938 707.7813,19.0938 L712.9219,19.0938 C713.375,19.0938 713.5156,19.125 713.6875,19.2344 C713.9219,19.4063 714.0313,19.6719 714.0313,19.9375 C714.0313,20.2344 713.8906,20.5156 713.625,20.6719 C713.5,20.75 713.3125,20.7813 712.9219,20.7813 Z "/><text fill="#000000" font-family="sans-serif" font-size="12" font-style="italic" lengthAdjust="spacingAndGlyphs" textLength="89" x="730.75" y="28.1543">ActionListener</text><line style="stroke: #A80036; stroke-width: 1.5;" x1="640.5" x2="877.5" y1="40" y2="40"/><line style="stroke: #A80036; stroke-width: 1.5;" x1="640.5" x2="877.5" y1="48" y2="48"/><ellipse cx="650.5" cy="59.9023" fill="#84BE84" rx="3" ry="3" style="stroke: #038048; stroke-width: 1.0;"/><text fill="#000000" font-family="sans-serif" font-size="11" lengthAdjust="spacingAndGlyphs" textLength="213" x="659.5" y="62.2104">actionPerformed(e: ActionEvent): void</text><!--class SwingApplication--><rect fill="#FEFECE" filter="url(#fg6cc7w)" height="86.4141" style="stroke: #A80036; stroke-width: 1.5;" width="169" x="339.5" y="130"/><ellipse cx="368.9" cy="146" fill="#ADD1B2" rx="11" ry="11" style="stroke: #A80036; stroke-width: 1.0;"/><path d="M371.2438,141.6719 L371.4156,141.75 C371.6344,141.4375 371.8375,141.3438 372.1344,141.3438 C372.4313,141.3438 372.7125,141.4844 372.8688,141.75 C372.9625,141.9063 372.9781,142.0313 372.9781,142.4688 L372.9781,143.8906 C372.9781,144.3125 372.9469,144.5 372.8375,144.6563 C372.6656,144.875 372.4,145.0156 372.1344,145.0156 C371.9156,145.0156 371.6813,144.9063 371.5406,144.7656 C371.4,144.6406 371.3688,144.5156 371.3063,144.1094 C371.2125,143.7031 371.0406,143.4844 370.5563,143.2031 C370.0875,142.9531 369.4781,142.7969 368.9,142.7969 C367.1656,142.7969 365.9156,144.1094 365.9156,145.8906 L365.9156,146.9844 C365.9156,148.6875 367.2125,149.7813 369.2594,149.7813 C370.025,149.7813 370.7125,149.6563 371.1344,149.3906 C371.3219,149.2969 371.3219,149.2969 371.775,148.8125 C371.9625,148.625 372.1656,148.5469 372.3844,148.5469 C372.8531,148.5469 373.2438,148.9375 373.2438,149.3906 C373.2438,149.7813 372.9156,150.2344 372.3375,150.6406 C371.5875,151.1875 370.4313,151.4844 369.2125,151.4844 C366.3219,151.4844 364.2125,149.5938 364.2125,147.0156 L364.2125,145.8906 C364.2125,143.1719 366.2125,141.0938 368.8375,141.0938 C369.7125,141.0938 370.3063,141.2344 371.2438,141.6719 Z "/><text fill="#000000" font-family="sans-serif" font-size="12" lengthAdjust="spacingAndGlyphs" textLength="105" x="386.1" y="150.1543">SwingApplication</text><line style="stroke: #A80036; stroke-width: 1.5;" x1="340.5" x2="507.5" y1="162" y2="162"/><rect fill="none" height="6" style="stroke: #C82930; stroke-width: 1.0;" width="6" x="347.5" y="170.9023"/><text fill="#000000" font-family="sans-serif" font-size="11" lengthAdjust="spacingAndGlyphs" textLength="76" x="359.5" y="176.2104">jbut1: JButton</text><rect fill="none" height="6" style="stroke: #C82930; stroke-width: 1.0;" width="6" x="347.5" y="183.707"/><text fill="#000000" font-family="sans-serif" font-size="11" lengthAdjust="spacingAndGlyphs" textLength="76" x="359.5" y="189.0151">jbut2: JButton</text><line style="stroke: #A80036; stroke-width: 1.5;" x1="340.5" x2="507.5" y1="195.6094" y2="195.6094"/><ellipse cx="350.5" cy="207.5117" fill="#84BE84" rx="3" ry="3" style="stroke: #038048; stroke-width: 1.0;"/><text fill="#000000" font-family="sans-serif" font-size="11" lengthAdjust="spacingAndGlyphs" text-decoration="underline" textLength="143" x="359.5" y="209.8198">main(args: String[]): void</text><line style="stroke: #000000; stroke-width: 1.0;" x1="359.5" x2="502.5" y1="211.8198" y2="211.8198"/><!--class JButton--><rect fill="#FEFECE" filter="url(#fg6cc7w)" height="60.8047" style="stroke: #A80036; stroke-width: 1.5;" width="264" x="6" y="142.5"/><ellipse cx="111.25" cy="158.5" fill="#ADD1B2" rx="11" ry="11" style="stroke: #A80036; stroke-width: 1.0;"/><path d="M113.5938,154.1719 L113.7656,154.25 C113.9844,153.9375 114.1875,153.8438 114.4844,153.8438 C114.7813,153.8438 115.0625,153.9844 115.2188,154.25 C115.3125,154.4063 115.3281,154.5313 115.3281,154.9688 L115.3281,156.3906 C115.3281,156.8125 115.2969,157 115.1875,157.1563 C115.0156,157.375 114.75,157.5156 114.4844,157.5156 C114.2656,157.5156 114.0313,157.4063 113.8906,157.2656 C113.75,157.1406 113.7188,157.0156 113.6563,156.6094 C113.5625,156.2031 113.3906,155.9844 112.9063,155.7031 C112.4375,155.4531 111.8281,155.2969 111.25,155.2969 C109.5156,155.2969 108.2656,156.6094 108.2656,158.3906 L108.2656,159.4844 C108.2656,161.1875 109.5625,162.2813 111.6094,162.2813 C112.375,162.2813 113.0625,162.1563 113.4844,161.8906 C113.6719,161.7969 113.6719,161.7969 114.125,161.3125 C114.3125,161.125 114.5156,161.0469 114.7344,161.0469 C115.2031,161.0469 115.5938,161.4375 115.5938,161.8906 C115.5938,162.2813 115.2656,162.7344 114.6875,163.1406 C113.9375,163.6875 112.7813,163.9844 111.5625,163.9844 C108.6719,163.9844 106.5625,162.0938 106.5625,159.5156 L106.5625,158.3906 C106.5625,155.6719 108.5625,153.5938 111.1875,153.5938 C112.0625,153.5938 112.6563,153.7344 113.5938,154.1719 Z "/><text fill="#000000" font-family="sans-serif" font-size="12" lengthAdjust="spacingAndGlyphs" textLength="45" x="131.75" y="162.6543">JButton</text><line style="stroke: #A80036; stroke-width: 1.5;" x1="7" x2="269" y1="174.5" y2="174.5"/><line style="stroke: #A80036; stroke-width: 1.5;" x1="7" x2="269" y1="182.5" y2="182.5"/><ellipse cx="17" cy="194.4023" fill="#84BE84" rx="3" ry="3" style="stroke: #038048; stroke-width: 1.0;"/><text fill="#000000" font-family="sans-serif" font-size="11" lengthAdjust="spacingAndGlyphs" textLength="238" x="26" y="196.7104">addActionListener(al: ActionListener): void</text><!--class EventHandlerGUI--><rect fill="#FEFECE" filter="url(#fg6cc7w)" height="66.7422" style="stroke: #A80036; stroke-width: 1.5;" width="239" x="639.5" y="139.5"/><ellipse cx="702.25" cy="158.4688" fill="#ADD1B2" rx="11" ry="11" style="stroke: #A80036; stroke-width: 1.0;"/><path d="M704.5938,154.1406 L704.7656,154.2188 C704.9844,153.9063 705.1875,153.8125 705.4844,153.8125 C705.7813,153.8125 706.0625,153.9531 706.2188,154.2188 C706.3125,154.375 706.3281,154.5 706.3281,154.9375 L706.3281,156.3594 C706.3281,156.7813 706.2969,156.9688 706.1875,157.125 C706.0156,157.3438 705.75,157.4844 705.4844,157.4844 C705.2656,157.4844 705.0313,157.375 704.8906,157.2344 C704.75,157.1094 704.7188,156.9844 704.6563,156.5781 C704.5625,156.1719 704.3906,155.9531 703.9063,155.6719 C703.4375,155.4219 702.8281,155.2656 702.25,155.2656 C700.5156,155.2656 699.2656,156.5781 699.2656,158.3594 L699.2656,159.4531 C699.2656,161.1563 700.5625,162.25 702.6094,162.25 C703.375,162.25 704.0625,162.125 704.4844,161.8594 C704.6719,161.7656 704.6719,161.7656 705.125,161.2813 C705.3125,161.0938 705.5156,161.0156 705.7344,161.0156 C706.2031,161.0156 706.5938,161.4063 706.5938,161.8594 C706.5938,162.25 706.2656,162.7031 705.6875,163.1094 C704.9375,163.6563 703.7813,163.9531 702.5625,163.9531 C699.6719,163.9531 697.5625,162.0625 697.5625,159.4844 L697.5625,158.3594 C697.5625,155.6406 699.5625,153.5625 702.1875,153.5625 C703.0625,153.5625 703.6563,153.7031 704.5938,154.1406 Z "/><text fill="#000000" font-family="sans-serif" font-size="12" font-style="italic" lengthAdjust="spacingAndGlyphs" textLength="80" x="735.25" y="155.6387">«inner class»</text><text fill="#000000" font-family="sans-serif" font-size="12" lengthAdjust="spacingAndGlyphs" textLength="105" x="722.75" y="169.6074">EventHandlerGUI</text><line style="stroke: #A80036; stroke-width: 1.5;" x1="640.5" x2="877.5" y1="177.4375" y2="177.4375"/><line style="stroke: #A80036; stroke-width: 1.5;" x1="640.5" x2="877.5" y1="185.4375" y2="185.4375"/><ellipse cx="650.5" cy="197.3398" fill="#84BE84" rx="3" ry="3" style="stroke: #038048; stroke-width: 1.0;"/><text fill="#000000" font-family="sans-serif" font-size="11" lengthAdjust="spacingAndGlyphs" textLength="213" x="659.5" y="199.6479">actionPerformed(e: ActionEvent): void</text><polygon fill="#FFA500" filter="url(#fg6cc7w)" points="239,315,239,370.3984,583,370.3984,583,325,573,315,239,315" style="stroke: #A80036; stroke-width: 1.0;"/><polygon fill="#FFA500" points="239,315,239,370.3984,583,370.3984,583,325,573,315,417.06,315,420.72,216.267,409.06,315,239,315" style="stroke: #A80036; stroke-width: 1.0;"/><line style="stroke: #A80036; stroke-width: 1.0;" x1="573" x2="573" y1="315" y2="325"/><line style="stroke: #A80036; stroke-width: 1.0;" x1="583" x2="573" y1="325" y2="325"/><text fill="#000000" font-family="sans-serif" font-size="13" lengthAdjust="spacingAndGlyphs" textLength="323" x="245" y="332.0669">EventHandlerGUI ehUGI = new EventHandlerGUI();</text><text fill="#000000" font-family="sans-serif" font-size="13" lengthAdjust="spacingAndGlyphs" textLength="204" x="245" y="347.1997">jbut1.addActionListener(ehUGI);</text><text fill="#000000" font-family="sans-serif" font-size="13" lengthAdjust="spacingAndGlyphs" textLength="204" x="245" y="362.3325">jbut2.addActionListener(ehUGI);</text><polygon fill="#FBFB77" filter="url(#fg6cc7w)" points="618,277,618,408.0625,926,408.0625,926,287,916,277,618,277" style="stroke: #A80036; stroke-width: 1.0;"/><polygon fill="#FBFB77" points="618,277,618,408.0625,926,408.0625,926,287,916,277,770.993,277,761.537,206.693,762.993,277,618,277" style="stroke: #A80036; stroke-width: 1.0;"/><line style="stroke: #A80036; stroke-width: 1.0;" x1="916" x2="916" y1="277" y2="287"/><line style="stroke: #A80036; stroke-width: 1.0;" x1="926" x2="916" y1="287" y2="287"/><text fill="#000000" font-family="sans-serif" font-size="13" lengthAdjust="spacingAndGlyphs" textLength="287" x="624" y="294.0669">public void actionPerformed(ActionEvent e) {</text><text fill="#000000" font-family="sans-serif" font-size="13" lengthAdjust="spacingAndGlyphs" textLength="183" x="632" y="309.1997">if (e.getSource() == jbut1) {</text><text fill="#000000" font-family="sans-serif" font-size="13" lengthAdjust="spacingAndGlyphs" textLength="0" x="640" y="324.3325"/><text fill="#000000" font-family="sans-serif" font-size="13" font-style="italic" lengthAdjust="spacingAndGlyphs" textLength="149" x="640" y="324.3325">//handle event for jbut1</text><text fill="#000000" font-family="sans-serif" font-size="13" lengthAdjust="spacingAndGlyphs" textLength="8" x="632" y="339.4653">}</text><text fill="#000000" font-family="sans-serif" font-size="13" lengthAdjust="spacingAndGlyphs" textLength="213" x="632" y="354.5981">else if (e.getSource() == jbut2) {</text><text fill="#000000" font-family="sans-serif" font-size="13" lengthAdjust="spacingAndGlyphs" textLength="0" x="640" y="369.731"/><text fill="#000000" font-family="sans-serif" font-size="13" font-style="italic" lengthAdjust="spacingAndGlyphs" textLength="149" x="640" y="369.731">//handle event for jbut2</text><text fill="#000000" font-family="sans-serif" font-size="13" lengthAdjust="spacingAndGlyphs" textLength="8" x="632" y="384.8638">}</text><text fill="#000000" font-family="sans-serif" font-size="13" lengthAdjust="spacingAndGlyphs" textLength="8" x="624" y="399.9966">}</text><path d="M424,82.711 C424,97.869 424,114.865 424,129.928 " fill="none" style="stroke: #A80036; stroke-width: 1.0;"/><polygon fill="none" points="417,82.58,424,62.58,431,82.58,417,82.58" style="stroke: #A80036; stroke-width: 1.0;"/><path d="M275.238,173 C296.572,173 317.905,173 339.239,173 " fill="none" style="stroke: #A80036; stroke-width: 1.0;"/><polygon fill="#A80036" points="270.107,173,279.107,177,275.107,173,279.107,169,270.107,173" style="stroke: #A80036; stroke-width: 1.0;"/><path d="M521.822,173 C558.602,173 600.837,173 639.38,173 " fill="none" style="stroke: #A80036; stroke-width: 1.0;"/><polygon fill="#A80036" points="508.535,173,514.535,177,520.535,173,514.535,169,508.535,173" style="stroke: #A80036; stroke-width: 1.0;"/><text fill="#000000" font-family="sans-serif" font-size="13" lengthAdjust="spacingAndGlyphs" textLength="68" x="540" y="166.0669">inner class</text><path d="M759,89.489 C759,106.087 759,124.136 759,139.109 " fill="none" style="stroke: #A80036; stroke-width: 1.0; stroke-dasharray: 7.0,7.0;"/><polygon fill="none" points="752,89.236,759,69.236,766,89.236,752,89.236" style="stroke: #A80036; stroke-width: 1.0;"/></g></svg>