<?xml version="1.0" encoding="UTF-8" standalone="no"?><svg xmlns="http://www.w3.org/2000/svg" xmlns:xlink="http://www.w3.org/1999/xlink" contentScriptType="application/ecmascript" contentStyleType="text/css" height="188px" preserveAspectRatio="none" style="width:977px;height:188px;" version="1.1" viewBox="0 0 977 188" width="977px" zoomAndPan="magnify"><defs><filter height="300%" id="fvuy6tj" width="300%" x="-1" y="-1"><feGaussianBlur result="blurOut" stdDeviation="2.0"/><feColorMatrix in="blurOut" result="blurOut2" type="matrix" values="0 0 0 0 0 0 0 0 0 0 0 0 0 0 0 0 0 0 .4 0"/><feOffset dx="4.0" dy="4.0" in="blurOut2" result="blurOut3"/><feBlend in="SourceGraphic" in2="blurOut3" mode="normal"/></filter></defs><g><!--class Config--><rect fill="#FEFECE" filter="url(#fvuy6tj)" height="171.2422" style="stroke: #A80036; stroke-width: 1.5;" width="280" x="688.5" y="8"/><ellipse cx="804.75" cy="24" fill="#ADD1B2" rx="11" ry="11" style="stroke: #A80036; stroke-width: 1.0;"/><path d="M807.0938,19.6719 L807.2656,19.75 C807.4844,19.4375 807.6875,19.3438 807.9844,19.3438 C808.2813,19.3438 808.5625,19.4844 808.7188,19.75 C808.8125,19.9063 808.8281,20.0313 808.8281,20.4688 L808.8281,21.8906 C808.8281,22.3125 808.7969,22.5 808.6875,22.6563 C808.5156,22.875 808.25,23.0156 807.9844,23.0156 C807.7656,23.0156 807.5313,22.9063 807.3906,22.7656 C807.25,22.6406 807.2188,22.5156 807.1563,22.1094 C807.0625,21.7031 806.8906,21.4844 806.4063,21.2031 C805.9375,20.9531 805.3281,20.7969 804.75,20.7969 C803.0156,20.7969 801.7656,22.1094 801.7656,23.8906 L801.7656,24.9844 C801.7656,26.6875 803.0625,27.7813 805.1094,27.7813 C805.875,27.7813 806.5625,27.6563 806.9844,27.3906 C807.1719,27.2969 807.1719,27.2969 807.625,26.8125 C807.8125,26.625 808.0156,26.5469 808.2344,26.5469 C808.7031,26.5469 809.0938,26.9375 809.0938,27.3906 C809.0938,27.7813 808.7656,28.2344 808.1875,28.6406 C807.4375,29.1875 806.2813,29.4844 805.0625,29.4844 C802.1719,29.4844 800.0625,27.5938 800.0625,25.0156 L800.0625,23.8906 C800.0625,21.1719 802.0625,19.0938 804.6875,19.0938 C805.5625,19.0938 806.1563,19.2344 807.0938,19.6719 Z "/><text fill="#000000" font-family="sans-serif" font-size="12" lengthAdjust="spacingAndGlyphs" textLength="39" x="825.25" y="28.1543">Config</text><line style="stroke: #A80036; stroke-width: 1.5;" x1="689.5" x2="967.5" y1="40" y2="40"/><rect fill="none" height="6" style="stroke: #C82930; stroke-width: 1.0;" width="6" x="696.5" y="48.9023"/><text fill="#000000" font-family="sans-serif" font-size="11" lengthAdjust="spacingAndGlyphs" text-decoration="underline" textLength="74" x="708.5" y="54.2104">config:Config</text><line style="stroke: #000000; stroke-width: 1.0;" x1="708.5" x2="782.5" y1="56.2104" y2="56.2104"/><rect fill="none" height="6" style="stroke: #C82930; stroke-width: 1.0;" width="6" x="696.5" y="61.707"/><text fill="#000000" font-family="sans-serif" font-size="11" lengthAdjust="spacingAndGlyphs" textLength="126" x="708.5" y="67.0151">properties: Properties</text><line style="stroke: #A80036; stroke-width: 1.0;" x1="689.5" x2="967.5" y1="73.6094" y2="73.6094"/><rect fill="#F24D5C" height="6" style="stroke: #C82930; stroke-width: 1.0;" width="6" x="696.5" y="82.5117"/><text fill="#000000" font-family="sans-serif" font-size="11" lengthAdjust="spacingAndGlyphs" textLength="44" x="708.5" y="87.8198">Config()</text><line style="stroke: #A80036; stroke-width: 1.0; stroke-dasharray: 1.0,2.0;" x1="689.5" x2="967.5" y1="94.4141" y2="94.4141"/><ellipse cx="699.5" cy="106.3164" fill="#84BE84" rx="3" ry="3" style="stroke: #038048; stroke-width: 1.0;"/><text fill="#000000" font-family="sans-serif" font-size="11" lengthAdjust="spacingAndGlyphs" textLength="252" x="708.5" y="108.6245">getValueOfParameter1(): TypeOfParameter1</text><ellipse cx="699.5" cy="119.1211" fill="#84BE84" rx="3" ry="3" style="stroke: #038048; stroke-width: 1.0;"/><text fill="#000000" font-family="sans-serif" font-size="11" lengthAdjust="spacingAndGlyphs" textLength="252" x="708.5" y="121.4292">getValueOfParameter2(): TypeOfParameter2</text><ellipse cx="699.5" cy="131.9258" fill="#84BE84" rx="3" ry="3" style="stroke: #038048; stroke-width: 1.0;"/><text fill="#000000" font-family="sans-serif" font-size="11" lengthAdjust="spacingAndGlyphs" textLength="252" x="708.5" y="134.2339">getValueOfParameter3(): TypeOfParameter3</text><text fill="#000000" font-family="sans-serif" font-size="11" lengthAdjust="spacingAndGlyphs" textLength="20" x="708.5" y="147.0386">. . .</text><ellipse cx="699.5" cy="157.5352" fill="#84BE84" rx="3" ry="3" style="stroke: #038048; stroke-width: 1.0;"/><text fill="#000000" font-family="sans-serif" font-size="11" lengthAdjust="spacingAndGlyphs" textLength="254" x="708.5" y="159.8433">getValueOfParameterN(): TypeOfParameterN</text><ellipse cx="699.5" cy="170.3398" fill="#84BE84" rx="3" ry="3" style="stroke: #038048; stroke-width: 1.0;"/><text fill="#000000" font-family="sans-serif" font-size="11" lengthAdjust="spacingAndGlyphs" text-decoration="underline" textLength="118" x="708.5" y="172.6479">getInstance(): Config</text><line style="stroke: #000000; stroke-width: 1.0;" x1="708.5" x2="826.5" y1="174.6479" y2="174.6479"/><!--class Properties--><rect fill="#FEFECE" filter="url(#fvuy6tj)" height="132.8281" style="stroke: #A80036; stroke-width: 1.5;" width="317" x="336" y="27"/><ellipse cx="457.75" cy="43" fill="#ADD1B2" rx="11" ry="11" style="stroke: #A80036; stroke-width: 1.0;"/><path d="M460.0938,38.6719 L460.2656,38.75 C460.4844,38.4375 460.6875,38.3438 460.9844,38.3438 C461.2813,38.3438 461.5625,38.4844 461.7188,38.75 C461.8125,38.9063 461.8281,39.0313 461.8281,39.4688 L461.8281,40.8906 C461.8281,41.3125 461.7969,41.5 461.6875,41.6563 C461.5156,41.875 461.25,42.0156 460.9844,42.0156 C460.7656,42.0156 460.5313,41.9063 460.3906,41.7656 C460.25,41.6406 460.2188,41.5156 460.1563,41.1094 C460.0625,40.7031 459.8906,40.4844 459.4063,40.2031 C458.9375,39.9531 458.3281,39.7969 457.75,39.7969 C456.0156,39.7969 454.7656,41.1094 454.7656,42.8906 L454.7656,43.9844 C454.7656,45.6875 456.0625,46.7813 458.1094,46.7813 C458.875,46.7813 459.5625,46.6563 459.9844,46.3906 C460.1719,46.2969 460.1719,46.2969 460.625,45.8125 C460.8125,45.625 461.0156,45.5469 461.2344,45.5469 C461.7031,45.5469 462.0938,45.9375 462.0938,46.3906 C462.0938,46.7813 461.7656,47.2344 461.1875,47.6406 C460.4375,48.1875 459.2813,48.4844 458.0625,48.4844 C455.1719,48.4844 453.0625,46.5938 453.0625,44.0156 L453.0625,42.8906 C453.0625,40.1719 455.0625,38.0938 457.6875,38.0938 C458.5625,38.0938 459.1563,38.2344 460.0938,38.6719 Z "/><text fill="#000000" font-family="sans-serif" font-size="12" lengthAdjust="spacingAndGlyphs" textLength="65" x="478.25" y="47.1543">Properties</text><line style="stroke: #A80036; stroke-width: 1.5;" x1="337" x2="652" y1="59" y2="59"/><line style="stroke: #A80036; stroke-width: 1.0;" x1="337" x2="652" y1="67" y2="67"/><ellipse cx="347" cy="78.9023" fill="#84BE84" rx="3" ry="3" style="stroke: #038048; stroke-width: 1.0;"/><text fill="#000000" font-family="sans-serif" font-size="11" lengthAdjust="spacingAndGlyphs" textLength="67" x="356" y="81.2104">Properties()</text><ellipse cx="347" cy="91.707" fill="#84BE84" rx="3" ry="3" style="stroke: #038048; stroke-width: 1.0;"/><text fill="#000000" font-family="sans-serif" font-size="11" lengthAdjust="spacingAndGlyphs" textLength="180" x="356" y="94.0151">Properties(defaults: Properties)</text><line style="stroke: #A80036; stroke-width: 1.0; stroke-dasharray: 1.0,2.0;" x1="337" x2="652" y1="100.6094" y2="100.6094"/><ellipse cx="347" cy="112.5117" fill="#84BE84" rx="3" ry="3" style="stroke: #038048; stroke-width: 1.0;"/><text fill="#000000" font-family="sans-serif" font-size="11" font-weight="bold" lengthAdjust="spacingAndGlyphs" textLength="199" x="356" y="114.8198">getProperty(key: String): String</text><ellipse cx="347" cy="125.3164" fill="#84BE84" rx="3" ry="3" style="stroke: #038048; stroke-width: 1.0;"/><text fill="#000000" font-family="sans-serif" font-size="11" font-weight="bold" lengthAdjust="spacingAndGlyphs" textLength="216" x="356" y="127.6245">load(inStream: InputStream): void</text><ellipse cx="347" cy="138.1211" fill="#84BE84" rx="3" ry="3" style="stroke: #038048; stroke-width: 1.0;"/><text fill="#000000" font-family="sans-serif" font-size="11" lengthAdjust="spacingAndGlyphs" textLength="149" x="356" y="140.4292">load(reader: Reader): void</text><ellipse cx="347" cy="150.9258" fill="#84BE84" rx="3" ry="3" style="stroke: #038048; stroke-width: 1.0;"/><text fill="#000000" font-family="sans-serif" font-size="11" font-weight="bold" lengthAdjust="spacingAndGlyphs" textLength="291" x="356" y="153.2339">setProperty(key: String, value: String): Object</text><polygon fill="#FFA500" filter="url(#fvuy6tj)" points="6,50.5,6,136.1641,301,136.1641,301,60.5,291,50.5,6,50.5" style="stroke: #A80036; stroke-width: 1.0;"/><polygon fill="#FFA500" points="6,50.5,6,136.1641,301,136.1641,301,97.5,335.788,93.5,301,89.5,301,60.5,291,50.5,6,50.5" style="stroke: #A80036; stroke-width: 1.0;"/><line style="stroke: #A80036; stroke-width: 1.0;" x1="291" x2="291" y1="50.5" y2="60.5"/><line style="stroke: #A80036; stroke-width: 1.0;" x1="301" x2="291" y1="60.5" y2="60.5"/><text fill="#000000" font-family="sans-serif" font-size="13" lengthAdjust="spacingAndGlyphs" textLength="270" x="12" y="67.5669">nameOfParameter1 = valueOfParameter1</text><text fill="#000000" font-family="sans-serif" font-size="13" lengthAdjust="spacingAndGlyphs" textLength="270" x="12" y="82.6997">nameOfParameter2 = valueOfParameter2</text><text fill="#000000" font-family="sans-serif" font-size="13" lengthAdjust="spacingAndGlyphs" textLength="270" x="12" y="97.8325">nameOfParameter3 = valueOfParameter3</text><text fill="#000000" font-family="sans-serif" font-size="13" lengthAdjust="spacingAndGlyphs" textLength="20" x="12" y="112.9653">. . .</text><text fill="#000000" font-family="sans-serif" font-size="13" lengthAdjust="spacingAndGlyphs" textLength="274" x="12" y="128.0981">nameOfParameterN = valueOfParameterN</text><path d="M658.26,93.5 C668.28,93.5 678.301,93.5 688.321,93.5 " fill="none" style="stroke: #A80036; stroke-width: 1.0;"/><polygon fill="#A80036" points="653.02,93.5,662.02,97.5,658.02,93.5,662.02,89.5,653.02,93.5" style="stroke: #A80036; stroke-width: 1.0;"/></g></svg>