<?xml version="1.0" encoding="UTF-8" standalone="no"?><svg xmlns="http://www.w3.org/2000/svg" xmlns:xlink="http://www.w3.org/1999/xlink" contentScriptType="application/ecmascript" contentStyleType="text/css" height="149px" preserveAspectRatio="none" style="width:662px;height:149px;" version="1.1" viewBox="0 0 662 149" width="662px" zoomAndPan="magnify"><defs><filter height="300%" id="fi8do7x" width="300%" x="-1" y="-1"><feGaussianBlur result="blurOut" stdDeviation="2.0"/><feColorMatrix in="blurOut" result="blurOut2" type="matrix" values="0 0 0 0 0 0 0 0 0 0 0 0 0 0 0 0 0 0 .4 0"/><feOffset dx="4.0" dy="4.0" in="blurOut2" result="blurOut3"/><feBlend in="SourceGraphic" in2="blurOut3" mode="normal"/></filter></defs><g><!--class Properties--><rect fill="#FEFECE" filter="url(#fi8do7x)" height="132.8281" style="stroke: #A80036; stroke-width: 1.5;" width="317" x="336" y="8"/><ellipse cx="457.75" cy="24" fill="#ADD1B2" rx="11" ry="11" style="stroke: #A80036; stroke-width: 1.0;"/><path d="M460.0938,19.6719 L460.2656,19.75 C460.4844,19.4375 460.6875,19.3438 460.9844,19.3438 C461.2813,19.3438 461.5625,19.4844 461.7188,19.75 C461.8125,19.9063 461.8281,20.0313 461.8281,20.4688 L461.8281,21.8906 C461.8281,22.3125 461.7969,22.5 461.6875,22.6563 C461.5156,22.875 461.25,23.0156 460.9844,23.0156 C460.7656,23.0156 460.5313,22.9063 460.3906,22.7656 C460.25,22.6406 460.2188,22.5156 460.1563,22.1094 C460.0625,21.7031 459.8906,21.4844 459.4063,21.2031 C458.9375,20.9531 458.3281,20.7969 457.75,20.7969 C456.0156,20.7969 454.7656,22.1094 454.7656,23.8906 L454.7656,24.9844 C454.7656,26.6875 456.0625,27.7813 458.1094,27.7813 C458.875,27.7813 459.5625,27.6563 459.9844,27.3906 C460.1719,27.2969 460.1719,27.2969 460.625,26.8125 C460.8125,26.625 461.0156,26.5469 461.2344,26.5469 C461.7031,26.5469 462.0938,26.9375 462.0938,27.3906 C462.0938,27.7813 461.7656,28.2344 461.1875,28.6406 C460.4375,29.1875 459.2813,29.4844 458.0625,29.4844 C455.1719,29.4844 453.0625,27.5938 453.0625,25.0156 L453.0625,23.8906 C453.0625,21.1719 455.0625,19.0938 457.6875,19.0938 C458.5625,19.0938 459.1563,19.2344 460.0938,19.6719 Z "/><text fill="#000000" font-family="sans-serif" font-size="12" lengthAdjust="spacingAndGlyphs" textLength="65" x="478.25" y="28.1543">Properties</text><line style="stroke: #A80036; stroke-width: 1.5;" x1="337" x2="652" y1="40" y2="40"/><line style="stroke: #A80036; stroke-width: 1.0;" x1="337" x2="652" y1="48" y2="48"/><ellipse cx="347" cy="59.9023" fill="#84BE84" rx="3" ry="3" style="stroke: #038048; stroke-width: 1.0;"/><text fill="#000000" font-family="sans-serif" font-size="11" lengthAdjust="spacingAndGlyphs" textLength="67" x="356" y="62.2104">Properties()</text><ellipse cx="347" cy="72.707" fill="#84BE84" rx="3" ry="3" style="stroke: #038048; stroke-width: 1.0;"/><text fill="#000000" font-family="sans-serif" font-size="11" lengthAdjust="spacingAndGlyphs" textLength="180" x="356" y="75.0151">Properties(defaults: Properties)</text><line style="stroke: #A80036; stroke-width: 1.0; stroke-dasharray: 1.0,2.0;" x1="337" x2="652" y1="81.6094" y2="81.6094"/><ellipse cx="347" cy="93.5117" fill="#84BE84" rx="3" ry="3" style="stroke: #038048; stroke-width: 1.0;"/><text fill="#000000" font-family="sans-serif" font-size="11" font-weight="bold" lengthAdjust="spacingAndGlyphs" textLength="199" x="356" y="95.8198">getProperty(key: String): String</text><ellipse cx="347" cy="106.3164" fill="#84BE84" rx="3" ry="3" style="stroke: #038048; stroke-width: 1.0;"/><text fill="#000000" font-family="sans-serif" font-size="11" font-weight="bold" lengthAdjust="spacingAndGlyphs" textLength="216" x="356" y="108.6245">load(inStream: InputStream): void</text><ellipse cx="347" cy="119.1211" fill="#84BE84" rx="3" ry="3" style="stroke: #038048; stroke-width: 1.0;"/><text fill="#000000" font-family="sans-serif" font-size="11" lengthAdjust="spacingAndGlyphs" textLength="149" x="356" y="121.4292">load(reader: Reader): void</text><ellipse cx="347" cy="131.9258" fill="#84BE84" rx="3" ry="3" style="stroke: #038048; stroke-width: 1.0;"/><text fill="#000000" font-family="sans-serif" font-size="11" font-weight="bold" lengthAdjust="spacingAndGlyphs" textLength="291" x="356" y="134.2339">setProperty(key: String, value: String): Object</text><polygon fill="#FFA500" filter="url(#fi8do7x)" points="6,31.5,6,117.1641,301,117.1641,301,41.5,291,31.5,6,31.5" style="stroke: #A80036; stroke-width: 1.0;"/><polygon fill="#FFA500" points="6,31.5,6,117.1641,301,117.1641,301,78.5,335.788,74.5,301,70.5,301,41.5,291,31.5,6,31.5" style="stroke: #A80036; stroke-width: 1.0;"/><line style="stroke: #A80036; stroke-width: 1.0;" x1="291" x2="291" y1="31.5" y2="41.5"/><line style="stroke: #A80036; stroke-width: 1.0;" x1="301" x2="291" y1="41.5" y2="41.5"/><text fill="#000000" font-family="sans-serif" font-size="13" lengthAdjust="spacingAndGlyphs" textLength="270" x="12" y="48.5669">nameOfParameter1 = valueOfParameter1</text><text fill="#000000" font-family="sans-serif" font-size="13" lengthAdjust="spacingAndGlyphs" textLength="270" x="12" y="63.6997">nameOfParameter2 = valueOfParameter2</text><text fill="#000000" font-family="sans-serif" font-size="13" lengthAdjust="spacingAndGlyphs" textLength="270" x="12" y="78.8325">nameOfParameter3 = valueOfParameter3</text><text fill="#000000" font-family="sans-serif" font-size="13" lengthAdjust="spacingAndGlyphs" textLength="20" x="12" y="93.9653">. . .</text><text fill="#000000" font-family="sans-serif" font-size="13" lengthAdjust="spacingAndGlyphs" textLength="274" x="12" y="109.0981">nameOfParameterN = valueOfParameterN</text></g></svg>